<svg width="507" height="741" viewBox="0 0 507 741" fill="none" xmlns="http://www.w3.org/2000/svg">
<g id="folhas">
<g id="folha1" clip-path="url(#clip0_129_26)">
<g id="Vector">
<path d="M398.381 76.9935C402.481 53.2569 384.474 23.7271 376.599 8.42622C363.976 20.4161 343.054 32.2862 336.253 62.305C329.042 93.8773 353.293 129.592 353.293 129.592C353.293 129.592 390.746 121.314 398.381 76.9935Z" fill="#80A674"/>
<path d="M353.319 129.551C364.643 106.405 370.358 80.917 370 55.1512L353.319 129.551Z" fill="#80A674"/>
<path d="M353.319 129.551C364.643 106.405 370.358 80.917 370 55.1512M398.381 76.9935C402.481 53.2569 384.474 23.7271 376.599 8.42622C363.976 20.4161 343.054 32.2862 336.253 62.305C329.042 93.8772 353.293 129.592 353.293 129.592C353.293 129.592 390.746 121.314 398.381 76.9935Z" stroke="#475A4A" stroke-width="4.79177" stroke-linecap="round" stroke-linejoin="round"/>
</g>
</g>
<g id="folha4" clip-path="url(#clip1_129_26)">
<g id="Vector_2">
<path d="M253.552 716.338C264.044 704.93 264.598 682.683 265.673 671.663C254.667 673.748 239.214 672.874 225.072 686.738C210.167 701.3 210.834 729.068 210.834 729.068C210.834 729.068 233.974 737.646 253.552 716.338Z" fill="#80A674"/>
<path d="M210.862 729.055C225.054 720.484 237.029 708.692 245.817 694.633L210.862 729.055Z" fill="#80A674"/>
<path d="M210.862 729.055C225.054 720.484 237.029 708.692 245.817 694.633M253.552 716.338C264.044 704.93 264.598 682.683 265.673 671.663C254.667 673.748 239.214 672.874 225.072 686.738C210.167 701.3 210.834 729.068 210.834 729.068C210.834 729.068 233.974 737.646 253.552 716.338Z" stroke="#475A4A" stroke-width="3.0831" stroke-linecap="round" stroke-linejoin="round"/>
</g>
</g>
<g id="folha5" clip-path="url(#clip2_129_26)">
<g id="Vector_3">
<path d="M490.849 616.2C482.669 606.277 464.448 603.285 455.513 601.146C455.972 610.429 453.493 623.03 463.276 636.233C473.545 650.143 496.443 652.76 496.443 652.76C496.443 652.76 506.13 634.719 490.849 616.2Z" fill="#80A674"/>
<path d="M496.436 652.736C491.009 640.094 482.682 628.908 472.128 620.083L496.436 652.736Z" fill="#80A674"/>
<path d="M496.436 652.736C491.009 640.094 482.682 628.908 472.128 620.083M490.849 616.2C482.669 606.277 464.448 603.285 455.513 601.146C455.972 610.429 453.493 623.03 463.276 636.233C473.545 650.143 496.443 652.76 496.443 652.76C496.443 652.76 506.13 634.719 490.849 616.2Z" stroke="#475A4A" stroke-width="2.55821" stroke-linecap="round" stroke-linejoin="round"/>
</g>
</g>
<g id="folha2" clip-path="url(#clip3_129_26)">
<g id="Vector_4">
<path d="M93.6883 173.182C91.3897 185.835 100.867 201.683 105 209.888C111.794 203.545 123.018 197.305 126.788 181.311C130.783 164.489 118.001 145.31 118.001 145.31C118.001 145.31 97.969 149.557 93.6883 173.182Z" fill="#80A674"/>
<path d="M117.988 145.332C111.835 157.637 108.667 171.217 108.739 184.974L117.988 145.332Z" fill="#80A674"/>
<path d="M117.988 145.332C111.835 157.637 108.667 171.217 108.739 184.974M93.6883 173.182C91.3897 185.835 100.867 201.683 105 209.888C111.794 203.545 123.018 197.305 126.788 181.311C130.783 164.489 118.001 145.31 118.001 145.31C118.001 145.31 97.969 149.557 93.6883 173.182Z" stroke="#475A4A" stroke-width="2.55821" stroke-linecap="round" stroke-linejoin="round"/>
</g>
</g>
<g id="folha3" clip-path="url(#clip4_129_26)">
<g id="Vector_5">
<path d="M13.2584 410.878C23.2203 429.571 51.6574 440.356 65.3814 446.73C67.6753 431.594 75.796 412.062 64.3191 387.551C52.2885 361.74 16.1788 350.03 16.1788 350.03C16.1788 350.03 -5.35679 375.987 13.2584 410.878Z" fill="#80A674"/>
<path d="M16.183 350.072C20.8112 372.253 30.5974 393.032 44.7492 410.728L16.183 350.072Z" fill="#80A674"/>
<path d="M16.183 350.072C20.8112 372.253 30.5974 393.032 44.7492 410.728M13.2584 410.878C23.2203 429.571 51.6574 440.356 65.3814 446.73C67.6753 431.594 75.796 412.062 64.3191 387.551C52.2885 361.74 16.1788 350.03 16.1788 350.03C16.1788 350.03 -5.3568 375.987 13.2584 410.878Z" stroke="#475A4A" stroke-width="4.21354" stroke-linecap="round" stroke-linejoin="round"/>
</g>
</g>
</g>
<defs>
<clipPath id="clip0_129_26">
<rect width="74.9912" height="119.746" fill="white" transform="translate(367.688) rotate(32.1311)"/>
</clipPath>
<clipPath id="clip1_129_26">
<rect width="48.2506" height="77.0468" fill="white" transform="translate(263.791 664) rotate(64.934)"/>
</clipPath>
<clipPath id="clip2_129_26">
<rect width="40.0359" height="63.9296" fill="white" transform="translate(449 601.82) rotate(-17.1711)"/>
</clipPath>
<clipPath id="clip3_129_26">
<rect width="40.0359" height="63.9296" fill="white" transform="translate(109.718 214.427) rotate(-147.373)"/>
</clipPath>
<clipPath id="clip4_129_26">
<rect width="65.9419" height="105.296" fill="white" transform="translate(76.1155 447.771) rotate(174.276)"/>
</clipPath>
</defs>
</svg>
