<svg width="42" height="68" viewBox="0 0 42 68" fill="none" xmlns="http://www.w3.org/2000/svg">
<g clip-path="url(#clip0_109_29)">
<path d="M37.4923 27.4957C32.3675 15.0191 15.0344 6.37939 6.74349 1.46924C4.32866 10.9139 -2.0572 22.7734 3.65789 39.0332C9.6413 56.1517 31.7772 65.8647 31.7772 65.8647C31.7772 65.8647 47.0711 50.7854 37.4923 27.4957Z" fill="#80A674"/>
<path d="M31.7772 65.8378C30.2535 51.4896 25.3726 37.7018 17.5297 25.5907L31.7772 65.8378Z" fill="#80A674"/>
<path d="M31.7772 65.8378C30.2535 51.4896 25.3726 37.7018 17.5297 25.5907M37.4923 27.4957C32.3675 15.0191 15.0344 6.37939 6.74349 1.46924C4.32866 10.9139 -2.0572 22.7734 3.65789 39.0332C9.6413 56.1517 31.7772 65.8647 31.7772 65.8647C31.7772 65.8647 47.0711 50.7854 37.4923 27.4957Z" stroke="#475A4A" stroke-width="2.68314" stroke-linecap="round" stroke-linejoin="round"/>
</g>
<defs>
<clipPath id="clip0_109_29">
<rect width="41.9912" height="67.0517" fill="white" transform="translate(0.0088501 0.127441)"/>
</clipPath>
</defs>
</svg>
