<svg width="153" height="51" viewBox="0 0 153 51" fill="none" xmlns="http://www.w3.org/2000/svg">
<g clip-path="url(#clip0_12_222)">
<path d="M24.1608 41.2755L11.2468 20.557L18.8115 43.3681C9.91136 41.614 1.21967 32.0125 0.0772446 18.3797C-0.365599 12.2523 1.38174 6.1665 5.00974 1.2002C11.4938 6.2625 26.7698 12.9789 27.8968 26.4194C28.4294 32.6973 26.5074 37.0056 24.1608 41.2755Z" fill="#80A674"/>
<path d="M31.0231 42.2371L40.6256 30.5892L34.1339 43.9528C39.7225 43.5989 45.836 38.4212 47.65 30.1661C48.4206 26.448 47.8464 22.578 46.029 19.2413C41.6445 21.811 31.7332 24.6883 29.9501 32.828C29.1087 36.6594 29.9347 39.429 31.0231 42.2371Z" fill="#BECFB4"/>
<path d="M26.43 50.4922C28.3868 50.4922 29.9731 48.9112 29.9731 46.9609C29.9731 45.0106 28.3868 43.4296 26.43 43.4296C24.4732 43.4296 22.887 45.0106 22.887 46.9609C22.887 48.9112 24.4732 50.4922 26.43 50.4922Z" fill="#BECFB4"/>
<path d="M82.2546 1.26941L73.2233 22.2726H67.3491L58.3486 1.26941H64.7941L70.5139 14.9484L76.3573 1.26941H82.2546Z" fill="#80A674"/>
<path d="M98.8121 15.5716H86.9478C87.4341 17.2257 88.8467 18.1874 90.954 18.1874C91.6445 18.2105 92.3328 18.0973 92.9793 17.8544C93.6258 17.6115 94.2177 17.2435 94.7209 16.7718L97.7314 19.8953C96.1876 21.634 93.8719 22.5342 90.7842 22.5342C84.9717 22.5342 81.2048 18.9644 81.2048 14.0714C81.2048 9.17832 85.0644 5.70087 90.1821 5.70087C94.9988 5.70087 98.9124 8.77825 98.9124 14.1637C98.9047 14.5868 98.8429 15.1177 98.8121 15.5716ZM86.8629 12.5711H93.5477C93.4062 11.7903 92.994 11.0838 92.3831 10.575C91.7722 10.0662 91.0014 9.78741 90.2053 9.78741C89.4092 9.78741 88.6383 10.0662 88.0274 10.575C87.4165 11.0838 87.0044 11.7903 86.8629 12.5711Z" fill="#80A674"/>
<path d="M112.691 5.73163V10.8632C112.261 10.8048 111.828 10.7739 111.394 10.7709C109.078 10.7709 107.481 11.9403 107.481 14.7945V22.2649H101.761V6.0009H107.21V7.95505C108.391 6.4856 110.283 5.73163 112.691 5.73163Z" fill="#80A674"/>
<path d="M132.436 1.8727e-05V22.2649H126.987V20.6416C125.906 21.9341 124.308 22.5342 122.201 22.5342C117.747 22.5342 114.165 19.2952 114.165 14.0714C114.165 8.84751 117.747 5.70088 122.201 5.70088C123.029 5.6507 123.859 5.77401 124.637 6.06287C125.415 6.35174 126.123 6.79975 126.717 7.37805V-0.0307617L132.436 1.8727e-05ZM126.809 14.1021C126.809 11.6402 125.335 10.2554 123.405 10.2554C121.475 10.2554 119.978 11.6325 119.978 14.1021C119.978 16.5717 121.452 18.0027 123.405 18.0027C125.358 18.0027 126.809 16.5948 126.809 14.1021Z" fill="#80A674"/>
<path d="M152.907 15.5716H141.051C141.529 17.2257 142.942 18.1874 145.049 18.1874C145.74 18.2113 146.428 18.0986 147.075 17.8556C147.722 17.6126 148.313 17.2442 148.816 16.7718L151.827 19.8953C150.283 21.634 147.967 22.5342 144.88 22.5342C139.067 22.5342 135.308 18.9644 135.308 14.0714C135.308 9.17832 139.129 5.70087 144.277 5.70087C149.094 5.70087 153.008 8.77825 153.008 14.1637C153 14.5868 152.938 15.1177 152.907 15.5716ZM140.958 12.5711H147.643C147.502 11.7903 147.089 11.0838 146.478 10.575C145.868 10.0662 145.097 9.78741 144.301 9.78741C143.504 9.78741 142.734 10.0662 142.123 10.575C141.512 11.0838 141.1 11.7903 140.958 12.5711Z" fill="#80A674"/>
<path d="M82.2546 29.7352L73.2233 50.7384H67.3491L58.3486 29.7352H64.7941L70.5139 43.4142L76.3573 29.7352H82.2546Z" fill="#BECFB4"/>
<path d="M83.2502 29.6352C83.2502 27.9273 84.632 26.604 86.7393 26.604C88.8466 26.604 90.2283 27.835 90.2283 29.5429C90.2283 31.2509 88.8466 32.6665 86.7393 32.6665C84.632 32.6665 83.2502 31.3509 83.2502 29.6352ZM83.8832 34.4668H89.6031V50.7307H83.8832V34.4668Z" fill="#BECFB4"/>
<path d="M110.854 28.4658V50.7307H105.404V49.1074C104.323 50.3999 102.726 51 100.618 51C96.1644 51 92.5828 47.7611 92.5828 42.5372C92.5828 37.3133 96.1644 34.1667 100.618 34.1667C101.447 34.1165 102.277 34.2398 103.054 34.5287C103.832 34.8176 104.541 35.2656 105.134 35.8439V28.4351L110.854 28.4658ZM105.227 42.568C105.227 40.106 103.752 38.7212 101.823 38.7212C99.8927 38.7212 98.3875 40.0984 98.3875 42.568C98.3875 45.0376 99.8619 46.4686 101.823 46.4686C103.783 46.4686 105.227 45.0606 105.227 42.568Z" fill="#BECFB4"/>
<path d="M121.691 34.1975C119.164 34.1545 116.674 34.8095 114.497 36.0901L116.419 39.9368C117.713 39.0197 119.262 38.5275 120.85 38.5289C123.104 38.5289 124.223 39.4522 124.308 41.1063H121.058C116.002 41.1063 113.802 42.968 113.802 45.9685C113.802 48.7843 115.972 50.9769 119.885 50.9769C122.263 50.9769 123.891 50.2076 124.702 48.6074V50.7077H130.005V41.6986C130.005 36.5363 126.987 34.1975 121.691 34.1975ZM123.945 46.507C122.247 48.0457 120.086 48.2381 118.797 47.4457L122.324 45.5069L118.38 46.5763C118.538 45.7167 118.972 44.9312 119.615 44.3375C121.29 42.7988 123.93 43.722 125.304 43.8374C125.177 44.858 124.697 45.8023 123.945 46.507Z" fill="#BECFB4"/>
</g>
<defs>
<clipPath id="clip0_12_222">
<rect width="153" height="51" fill="white"/>
</clipPath>
</defs>
</svg>
