<svg width="208" height="49" viewBox="0 0 208 49" fill="none" xmlns="http://www.w3.org/2000/svg">
<path d="M0.00390733 34.7548C-0.109863 32.0698 2.27932 29.9764 4.75951 29.9901C5.38702 29.9921 6.00796 30.1178 6.5869 30.3599C7.16584 30.6019 7.69143 30.9557 8.13366 31.4009C8.57589 31.8461 8.92611 32.374 9.16431 32.9545C9.40251 33.5351 9.52404 34.1568 9.52194 34.7843C9.51985 35.4118 9.39419 36.0328 9.15212 36.6117C8.91005 37.1907 8.55632 37.7163 8.11113 38.1585C7.66594 38.6007 7.13801 38.9509 6.55747 39.1891C5.97693 39.4273 5.35516 39.5489 4.72766 39.5468C4.10032 39.5512 3.47847 39.4297 2.89888 39.1896C2.3193 38.9495 1.79376 38.5956 1.35335 38.1488C0.912935 37.702 0.566592 37.1714 0.334808 36.5885C0.103024 36.0055 -0.00949494 35.382 0.00390733 34.7548Z" fill="#7F7D7D"/>
<path d="M28.3555 47.1148C25.9208 46.9919 24.369 45.3172 24.3462 43.0919C24.3371 42.535 24.4451 41.9823 24.6631 41.4698C24.8812 40.9572 25.2044 40.4962 25.612 40.1165C26.0195 39.7368 26.5023 39.447 27.029 39.2657C27.5557 39.0845 28.1146 39.0159 28.6695 39.0644C29.6867 39.131 30.6409 39.58 31.3407 40.3212C32.0405 41.0623 32.434 42.0408 32.4421 43.06C32.4535 43.5983 32.3553 44.1333 32.1535 44.6325C31.9517 45.1316 31.6506 45.5846 31.2684 45.9638C30.8862 46.343 30.4309 46.6406 29.9302 46.8385C29.4294 47.0363 28.8937 47.1304 28.3555 47.1148Z" fill="#7F7D7D"/>
<path d="M40.7519 37.5581C40.7758 38.0436 40.6981 38.5287 40.5239 38.9825C40.3497 39.4362 40.0828 39.8486 39.7401 40.1934C39.3975 40.5381 38.9868 40.8077 38.5341 40.9847C38.0815 41.1617 37.5969 41.2424 37.1113 41.2216C36.626 41.2279 36.1444 41.136 35.6957 40.9513C35.2469 40.7665 34.8402 40.4929 34.5 40.1467C34.1598 39.8006 33.8932 39.3892 33.7163 38.9373C33.5394 38.4853 33.4558 38.0023 33.4706 37.5172C33.479 36.5448 33.8728 35.6154 34.5655 34.9329C35.2583 34.2504 36.1934 33.8705 37.1659 33.8765C39.0317 33.9084 40.9658 35.5467 40.7519 37.5581Z" fill="#7F7D7D"/>
<path d="M12.1637 27.5007C11.6908 27.5257 11.218 27.4519 10.7752 27.284C10.3325 27.1161 9.92955 26.8578 9.59216 26.5255C9.25478 26.1933 8.99032 25.7944 8.81565 25.3542C8.64097 24.9141 8.55992 24.4424 8.57765 23.9692C8.57765 21.9259 9.79727 20.4424 12.1045 20.3878C14.2298 20.3331 15.6906 21.753 15.7179 23.9374C15.7452 25.8624 14.4482 27.4643 12.1637 27.5007Z" fill="#7F7D7D"/>
<path d="M42.281 25.9898C43.9739 25.8078 45.594 27.4279 45.5758 29.2073C45.5792 29.647 45.4943 30.0829 45.3261 30.4893C45.1579 30.8956 44.9099 31.264 44.5967 31.5727C44.2835 31.8814 43.9115 32.1241 43.5028 32.2864C43.0941 32.4487 42.657 32.5273 42.2174 32.5175C41.7777 32.5078 41.3445 32.4099 40.9434 32.2296C40.5423 32.0494 40.1814 31.7904 39.8823 31.4682C39.5831 31.1459 39.3516 30.7668 39.2016 30.3534C39.0516 29.9401 38.9861 29.5008 39.009 29.0616C39.0133 28.6424 39.1024 28.2283 39.2709 27.8444C39.4395 27.4605 39.6839 27.1146 39.9896 26.8276C40.2953 26.5407 40.6559 26.3185 41.0497 26.1745C41.4435 26.0305 41.8623 25.9677 42.281 25.9898Z" fill="#7F7D7D"/>
<path d="M20.8284 31.5782C20.8415 31.9896 20.7706 32.3994 20.6202 32.7825C20.4697 33.1656 20.2427 33.5141 19.9532 33.8066C19.6636 34.0991 19.3175 34.3296 18.9359 34.484C18.5544 34.6384 18.1454 34.7135 17.7339 34.7046C17.3148 34.7157 16.8978 34.6419 16.5081 34.4874C16.1184 34.333 15.764 34.1012 15.4663 33.8061C15.1686 33.5109 14.9338 33.1586 14.776 32.7702C14.6182 32.3818 14.5408 31.9655 14.5483 31.5463C14.5501 31.1304 14.634 30.719 14.7952 30.3356C14.9564 29.9522 15.1918 29.6044 15.4878 29.3123C15.7838 29.0201 16.1346 28.7892 16.52 28.633C16.9055 28.4767 17.318 28.3981 17.7339 28.4017C19.4222 28.4563 20.8921 29.6669 20.8284 31.5782Z" fill="#7F7D7D"/>
<path d="M39.9738 20.1786C39.9712 19.5991 40.1416 19.032 40.4631 18.5498C40.7846 18.0677 41.2426 17.6924 41.7786 17.472C42.3145 17.2516 42.904 17.1961 43.4717 17.3126C44.0394 17.4291 44.5594 17.7123 44.9652 18.1259C45.3711 18.5396 45.6443 19.0649 45.75 19.6346C45.8556 20.2044 45.7889 20.7928 45.5584 21.3244C45.3278 21.8561 44.9439 22.3069 44.4558 22.6192C43.9676 22.9314 43.3974 23.091 42.818 23.0774C42.4379 23.0845 42.0604 23.0139 41.7085 22.8701C41.3566 22.7262 41.0378 22.512 40.7715 22.2406C40.5052 21.9693 40.2972 21.6464 40.16 21.2918C40.0228 20.9373 39.9595 20.5585 39.9738 20.1786Z" fill="#7F7D7D"/>
<path d="M26.203 29.6671C26.5671 29.646 26.9316 29.7021 27.2724 29.8318C27.6133 29.9616 27.9228 30.162 28.1807 30.4199C28.4386 30.6778 28.639 30.9873 28.7688 31.3282C28.8985 31.6691 28.9546 32.0335 28.9335 32.3976C28.9335 34.0086 27.9459 35.0917 26.203 35.1281C24.46 35.1645 23.4224 34.1087 23.4224 32.3476C23.4071 31.9829 23.4694 31.6191 23.6051 31.2802C23.7408 30.9414 23.9469 30.6351 24.2097 30.3818C24.4725 30.1285 24.786 29.9338 25.1296 29.8106C25.4732 29.6874 25.8391 29.6385 26.203 29.6671Z" fill="#7F7D7D"/>
<path d="M40.1421 14.1258C39.8071 14.1498 39.4708 14.1028 39.1551 13.988C38.8395 13.8731 38.5516 13.693 38.3103 13.4594C38.0689 13.2258 37.8795 12.9439 37.7545 12.6322C37.6295 12.3204 37.5715 11.9858 37.5846 11.6502C37.6124 10.99 37.8943 10.366 38.3713 9.9087C38.8483 9.45138 39.4836 9.19604 40.1444 9.19604C40.8052 9.19604 41.4405 9.45138 41.9175 9.9087C42.3945 10.366 42.6764 10.99 42.7042 11.6502C42.713 11.9851 42.6521 12.3182 42.5253 12.6283C42.3985 12.9384 42.2086 13.2188 41.9677 13.4516C41.7268 13.6844 41.4401 13.8645 41.1258 13.9806C40.8115 14.0967 40.4765 14.1462 40.1421 14.1258Z" fill="#7F7D7D"/>
<path d="M35.1089 28.2243C35.1089 29.7534 34.1988 30.6499 32.7015 30.6863C32.0672 30.6816 31.4599 30.4291 31.0092 29.9827C30.5585 29.5363 30.3003 28.9314 30.2896 28.2971C30.2978 27.6531 30.5567 27.0376 31.0112 26.5813C31.4658 26.1251 32.0803 25.8639 32.7243 25.8533C34.044 25.8442 35.25 26.9819 35.1089 28.2243Z" fill="#7F7D7D"/>
<path d="M31.8141 5.76593C31.8126 5.45117 31.875 5.13938 31.9975 4.84944C32.12 4.5595 32.3001 4.29746 32.5269 4.07918C32.7537 3.86091 33.0224 3.69094 33.3169 3.57958C33.6113 3.46823 33.9252 3.4178 34.2397 3.43136C34.8757 3.44282 35.4812 3.7065 35.9229 4.16437C36.3645 4.62224 36.6062 5.23681 36.5947 5.87287C36.5833 6.50894 36.3196 7.11439 35.8617 7.55605C35.4039 7.99771 34.7893 8.23939 34.1532 8.22792C33.8358 8.22707 33.5219 8.16186 33.2303 8.03625C32.9388 7.91065 32.6758 7.72725 32.4572 7.49713C32.2385 7.26701 32.0688 6.99496 31.9583 6.6974C31.8478 6.39985 31.7987 6.08297 31.8141 5.76593Z" fill="#7F7D7D"/>
<path d="M34.9997 24.702C34.5718 24.7002 34.1539 24.572 33.7986 24.3333C33.4433 24.0947 33.1665 23.7564 33.003 23.3609C32.8394 22.9654 32.7964 22.5304 32.8794 22.1106C32.9623 21.6907 33.1675 21.3048 33.4692 21.0012C33.7709 20.6976 34.1556 20.49 34.5749 20.4044C34.9942 20.3189 35.4295 20.3591 35.826 20.5202C36.2225 20.6813 36.5625 20.956 36.8033 21.3098C37.0442 21.6635 37.1751 22.0806 37.1796 22.5086C37.1844 22.7968 37.1315 23.0831 37.0238 23.3505C36.9162 23.618 36.756 23.8611 36.5528 24.0656C36.3496 24.2701 36.1075 24.4318 35.8407 24.5411C35.574 24.6504 35.288 24.7051 34.9997 24.702Z" fill="#7F7D7D"/>
<path d="M25.9208 2.94898C25.9111 2.66274 25.9608 2.37759 26.0668 2.11154C26.1729 1.84548 26.333 1.60432 26.537 1.4033C26.741 1.20228 26.9845 1.04578 27.2521 0.943673C27.5197 0.841566 27.8055 0.796082 28.0916 0.810098C28.6507 0.835691 29.1784 1.07581 29.5651 1.48053C29.9517 1.88524 30.1674 2.42341 30.1674 2.98311C30.1674 3.54281 29.9517 4.08098 29.5651 4.48569C29.1784 4.89041 28.6507 5.13054 28.0916 5.15613C27.7989 5.17316 27.506 5.12744 27.2325 5.02204C26.9589 4.91664 26.7111 4.75399 26.5055 4.54499C26.3 4.33599 26.1415 4.08546 26.0406 3.8102C25.9398 3.53495 25.8989 3.24131 25.9208 2.94898Z" fill="#7F7D7D"/>
<path d="M32.4831 17.1839C32.4732 16.9305 32.5163 16.6778 32.6098 16.4421C32.7032 16.2064 32.8449 15.9927 33.0257 15.8149C33.2065 15.6371 33.4224 15.499 33.6597 15.4096C33.897 15.3201 34.1503 15.2812 34.4035 15.2953C34.6567 15.2911 34.9082 15.3369 35.1437 15.43C35.3792 15.5232 35.5939 15.6619 35.7757 15.8381C35.9575 16.0144 36.1027 16.2248 36.203 16.4573C36.3034 16.6898 36.3568 16.9398 36.3604 17.193C36.35 17.7144 36.1388 18.2117 35.7709 18.5813C35.403 18.951 34.9067 19.1644 34.3853 19.1772C34.1262 19.1828 33.8686 19.1344 33.6292 19.035C33.3898 18.9357 33.1737 18.7875 32.9947 18.5999C32.8158 18.4124 32.6778 18.1896 32.5897 17.9458C32.5016 17.702 32.4653 17.4425 32.4831 17.1839Z" fill="#7F7D7D"/>
<path d="M24.6284 1.78854C24.6491 2.02781 24.6167 2.26872 24.5335 2.49401C24.4503 2.71929 24.3183 2.92339 24.1469 3.09169C23.9756 3.25999 23.7692 3.38832 23.5424 3.46751C23.3157 3.54669 23.0742 3.57476 22.8354 3.54971C22.6005 3.56526 22.365 3.53029 22.1447 3.44716C21.9245 3.36403 21.7246 3.23466 21.5586 3.06778C21.3926 2.90089 21.2642 2.70035 21.1823 2.47969C21.1003 2.25902 21.0665 2.02335 21.0833 1.78854C21.0833 0.723646 21.8069 0.05923 22.9036 6.93575e-05C23.1361 -0.00202408 23.3666 0.0432931 23.581 0.133255C23.7955 0.223217 23.9893 0.355934 24.1507 0.523307C24.3121 0.690679 24.4377 0.889192 24.5198 1.10673C24.602 1.32426 24.6389 1.55625 24.6284 1.78854Z" fill="#7F7D7D"/>
<path d="M31.8142 11.3907C33.0611 11.2951 33.6026 12.3464 33.5981 13.1837C33.6004 13.4191 33.5542 13.6524 33.4623 13.869C33.3704 14.0857 33.2348 14.2811 33.064 14.443C32.8931 14.6048 32.6907 14.7297 32.4694 14.8098C32.2481 14.8899 32.0126 14.9235 31.7778 14.9085C30.8221 14.8812 30.094 14.2759 30.0575 13.0881C30.0257 12.2826 30.8403 11.2769 31.8142 11.3907Z" fill="#7F7D7D"/>
<path d="M27.0722 10.7717C26.922 9.92526 27.8185 9.22898 28.533 9.21533C28.9324 9.22107 29.3141 9.38105 29.5983 9.66181C29.8824 9.94257 30.047 10.3223 30.0575 10.7217C29.9847 11.6591 29.4295 12.3235 28.5467 12.3008C27.8913 12.2644 26.9448 11.7547 27.0722 10.7717Z" fill="#7F7D7D"/>
<path d="M18.9763 3.89548C18.7886 3.90638 18.6008 3.87636 18.4259 3.80749C18.251 3.73863 18.0931 3.63256 17.9633 3.49664C17.8334 3.36073 17.7347 3.1982 17.6738 3.02033C17.613 2.84246 17.5916 2.6535 17.611 2.46652C17.5958 2.27283 17.6235 2.07815 17.6922 1.8964C17.7609 1.71465 17.8688 1.5503 18.0084 1.4151C18.1479 1.27991 18.3156 1.17719 18.4994 1.11429C18.6833 1.05139 18.8787 1.02985 19.0718 1.05122C19.2646 1.04789 19.456 1.08371 19.6345 1.15652C19.813 1.22934 19.9748 1.33763 20.1102 1.47483C20.2457 1.61203 20.3518 1.77529 20.4223 1.95472C20.4927 2.13415 20.5261 2.32601 20.5202 2.51869C20.5143 2.71138 20.4694 2.90087 20.3882 3.07569C20.307 3.2505 20.1911 3.40701 20.0476 3.53573C19.9041 3.66445 19.736 3.76271 19.5534 3.82455C19.3708 3.88638 19.1776 3.91051 18.9854 3.89548H18.9763Z" fill="#7F7D7D"/>
<path d="M24.1915 9.99378C24.1706 9.82483 24.1886 9.65334 24.2443 9.49246C24.2999 9.33157 24.3917 9.18557 24.5125 9.06564C24.6333 8.9457 24.78 8.85502 24.9413 8.80056C25.1025 8.74609 25.2742 8.72927 25.443 8.75141C25.6145 8.74609 25.7852 8.7765 25.9443 8.84068C26.1034 8.90486 26.2475 9.00142 26.3673 9.12424C26.4871 9.24705 26.5801 9.39343 26.6403 9.55409C26.7006 9.71475 26.7267 9.88618 26.7172 10.0575C26.7194 10.2256 26.686 10.3922 26.6191 10.5464C26.5522 10.7006 26.4533 10.8388 26.329 10.9519C26.2046 11.0651 26.0577 11.1505 25.8979 11.2026C25.7381 11.2548 25.5691 11.2724 25.402 11.2544C24.5874 11.2498 24.1915 10.8357 24.1915 9.99378Z" fill="#7F7D7D"/>
<path d="M15.1945 48.2797C14.5619 47.9794 13.8657 47.8246 13.2923 47.3695C12.8089 47.0075 12.4106 46.5441 12.1253 46.0119C11.8399 45.4797 11.6744 44.8916 11.6403 44.2886C11.5583 43.6152 11.6355 42.932 11.8659 42.2939C12.0962 41.6558 12.4731 41.0807 12.9664 40.6149C13.4596 40.1491 14.0553 39.8057 14.7055 39.6122C15.3557 39.4188 16.0423 39.3808 16.7099 39.5012C18.4893 39.8015 20.0957 41.3215 20.3506 43.0235C20.6919 45.4491 19.5451 47.4196 17.165 48.1068C17.0376 48.1432 16.892 48.1295 16.8055 48.2615L15.1945 48.2797Z" fill="#7F7D7D"/>
<path d="M75.9571 22.8452C76.5942 23.3321 77.1357 23.6552 77.6181 24.0557C78.469 24.7709 79.1367 25.679 79.5659 26.7043C80.0879 27.921 80.3246 29.2411 80.2576 30.5634C80.1666 32.5976 79.7615 34.5454 78.4373 36.1882C77.7769 37.0107 76.9603 37.6943 76.0344 38.1997C74.6258 38.9432 73.098 39.4345 71.52 39.6514C70.3462 39.8204 69.1608 39.8965 67.9749 39.8789C64.6346 39.8789 61.2943 39.838 57.9631 39.8789C57.1699 39.8484 56.4176 39.519 55.8571 38.9569C55.2966 38.3947 54.9695 37.6414 54.9414 36.8481C54.9823 30.3358 54.9414 23.8236 54.9414 17.3114C54.9147 17.0882 54.9348 16.8619 55.0005 16.647C55.3646 16.4422 55.7014 16.606 56.0245 16.6743C57.5759 16.9613 59.0039 17.7118 60.1202 18.8268C60.5268 19.233 60.8635 19.7035 61.1168 20.2194C61.1618 20.3344 61.2429 20.4317 61.348 20.4966C61.4531 20.5614 61.5764 20.5903 61.6993 20.5789C63.8337 20.5789 65.9635 20.5789 68.0705 20.5789C68.7359 20.589 69.3993 20.5047 70.041 20.3286C71.6383 19.8462 72.3164 19.1909 72.371 17.4889C72.4165 16.333 72.0889 15.3318 71.0058 14.7174C70.5499 14.4685 70.0451 14.3225 69.5268 14.2897C68.9215 14.2396 68.3162 14.1258 67.7064 14.1349C65.654 14.1349 63.6107 14.2169 61.5446 14.1349C60.3989 14.1023 59.2771 13.7997 58.2704 13.2517C57.2638 12.7037 56.4007 11.9258 55.7514 10.9812C55.3589 10.3673 55.0957 9.67975 54.9778 8.96065C54.9481 8.86837 54.9381 8.77092 54.9483 8.67453C54.9585 8.57814 54.9887 8.48494 55.0369 8.4009C55.2283 8.31049 55.443 8.28186 55.6513 8.31898C59.9473 8.31898 64.2478 8.27803 68.5483 8.31898C70.7834 8.30336 72.9824 8.88295 74.9195 9.99824C76.4096 10.8946 77.5543 12.2669 78.1688 13.8937C78.5985 14.8988 78.814 15.9825 78.8015 17.0756C78.789 18.1687 78.5487 19.2471 78.0959 20.2421C77.8107 20.9333 77.3916 21.5612 76.8627 22.0898C76.5805 22.3264 76.2938 22.5494 75.9571 22.8452ZM61.3944 34.0539C61.6266 34.1474 61.8787 34.1803 62.1271 34.1494C64.5027 34.1085 66.8782 34.2359 69.2537 34.0493C69.9415 34.0183 70.6217 33.8911 71.2743 33.6716C71.7557 33.5335 72.1984 33.2851 72.5673 32.9463C72.9362 32.6074 73.2211 32.1873 73.3995 31.7193C73.6874 30.8201 73.7032 29.856 73.445 28.9478C73.339 28.5595 73.1504 28.1986 72.8919 27.8899C72.6335 27.5812 72.3115 27.332 71.9478 27.1594C70.9081 26.6604 69.7648 26.4155 68.612 26.4449C66.4231 26.3857 64.2342 26.4449 62.0498 26.4449C61.8231 26.4028 61.5889 26.4484 61.3944 26.5723V34.0539Z" fill="#7F7D7D"/>
<path d="M109.128 40.4431C106.285 40.554 103.469 39.8531 101.009 38.4225C99.6299 37.6376 98.3979 36.6181 97.3686 35.4099C95.6787 33.3932 94.5084 30.9932 93.9601 28.4198C93.5621 26.7026 93.4255 24.9352 93.5551 23.1773C93.6402 21.5756 93.9028 19.9883 94.3378 18.4444C94.9891 16.0737 96.2163 13.9007 97.9102 12.1188C98.9197 11.0698 100.088 10.1867 101.373 9.50208C102.797 8.78971 104.323 8.30303 105.897 8.05946C107.37 7.80141 108.87 7.73107 110.361 7.85013C113.697 8.11407 116.732 9.13345 119.349 11.3452C122.02 13.6206 123.486 16.5513 124.255 19.887C124.62 21.4708 124.773 23.096 124.71 24.72C124.573 28.1786 123.772 31.4461 121.743 34.3268C120.253 36.4563 118.189 38.1182 115.79 39.1188C114.526 39.6684 113.199 40.0641 111.84 40.2975C110.945 40.4482 110.035 40.4971 109.128 40.4431ZM100.067 24.5152C99.9576 26.5772 100.397 28.6313 101.342 30.4677C102.252 32.2672 103.837 33.6333 105.751 34.2676C107.415 34.7989 109.183 34.9191 110.903 34.618C112.172 34.4546 113.382 33.9786 114.422 33.2328C115.463 32.4871 116.302 31.4947 116.864 30.3448C117.63 28.8621 118.069 27.2329 118.152 25.5665C118.353 23.4122 118.091 21.2399 117.383 19.1953C116.971 17.985 116.282 16.8878 115.37 15.9917C114.458 15.0956 113.349 14.4254 112.131 14.0347C110.633 13.5491 109.04 13.4275 107.485 13.6797C106.076 13.8231 104.733 14.3552 103.609 15.2165C102.484 16.0779 101.62 17.2348 101.114 18.5582C100.347 20.4454 99.9927 22.4752 100.076 24.5107L100.067 24.5152Z" fill="#7F7D7D"/>
<path d="M207.38 14.8674C207.02 15.3183 206.529 15.6459 205.974 15.8049C204.91 16.2045 203.763 16.3306 202.638 16.1716C201.513 16.0125 200.446 15.5735 199.535 14.8947C198.432 14.0903 197.124 13.6167 195.762 13.5295C194.352 13.4132 192.934 13.585 191.593 14.0346C190.636 14.3557 189.762 14.8851 189.034 15.5847C188.306 16.2843 187.743 17.1366 187.384 18.0803C186.731 19.6951 186.372 21.4135 186.323 23.1545C186.184 25.3266 186.471 27.5051 187.17 29.5666C188.271 32.5474 190.497 34.1174 193.582 34.6089C195.064 34.8401 196.58 34.6833 197.983 34.1538C199.434 33.6246 200.638 32.5754 201.359 31.2094C201.719 30.5769 201.905 29.8442 202.329 29.2617C202.526 28.9677 202.791 28.7251 203.102 28.5541C203.412 28.3831 203.759 28.2887 204.113 28.2787C204.588 28.2232 205.071 28.2622 205.531 28.3934C205.992 28.5246 206.422 28.7454 206.798 29.0432C207.309 29.4503 207.683 30.0048 207.869 30.6317C208.055 31.2586 208.043 31.9274 207.835 32.5474C207.128 34.2956 206.039 35.8642 204.65 37.1391C202.963 38.6633 200.884 39.6861 198.647 40.0926C197.221 40.3833 195.764 40.4979 194.31 40.4339C191.866 40.302 189.486 39.8878 187.288 38.7274C185.091 37.5702 183.288 35.7847 182.109 33.5986C180.955 31.4969 180.214 29.1937 179.925 26.8133C179.71 25.0093 179.694 23.187 179.88 21.3797C180.007 19.9153 180.32 18.4733 180.812 17.0882C181.841 14.1547 183.869 11.6768 186.542 10.0891C188.272 9.01527 190.209 8.31753 192.226 8.04121C195.63 7.58612 198.993 7.67259 202.147 9.30178C204.063 10.287 205.659 11.7976 206.748 13.6569C207.018 14.0265 207.231 14.4346 207.38 14.8674Z" fill="#7F7D7D"/>
<path d="M133.775 14.235C133.56 14.1261 133.316 14.0894 133.079 14.1303H127.09C125.629 14.1303 124.915 13.4204 124.724 11.9596C124.607 11.1673 124.684 10.3586 124.947 9.60226C125.061 9.21276 125.302 8.87265 125.632 8.636C125.962 8.39935 126.361 8.27974 126.767 8.29618C133.651 8.29618 140.539 8.29618 147.432 8.29618C147.848 8.26351 148.262 8.37963 148.601 8.62383C148.939 8.86803 149.18 9.22445 149.28 9.62957C149.615 10.5894 149.655 11.6278 149.394 12.6104C149.278 13.0569 149.015 13.451 148.646 13.7281C148.277 14.0051 147.825 14.1485 147.364 14.1349C145.33 14.1349 143.296 14.1349 141.261 14.1349C141.03 14.0979 140.793 14.1278 140.579 14.2213C140.472 14.4643 140.44 14.7338 140.488 14.995C140.488 22.6373 140.488 30.2781 140.488 37.9175C140.502 38.1853 140.487 38.4539 140.442 38.7184C140.201 39.8015 139.368 40.1974 138.422 40.293C137.432 40.4402 136.424 40.4094 135.445 40.202C134.267 39.9016 133.834 39.3328 133.834 38.104V15.0041C133.866 14.7463 133.846 14.4849 133.775 14.235Z" fill="#7F7D7D"/>
<path d="M158.85 26.6406V34.0266C159.102 34.1563 159.39 34.1995 159.669 34.1494C164.739 34.1494 169.804 34.1722 174.869 34.1494C175.217 34.131 175.566 34.1862 175.891 34.3112C176.217 34.4363 176.512 34.6285 176.759 34.8753C177.005 35.1221 177.197 35.418 177.321 35.7438C177.446 36.0696 177.5 36.4179 177.481 36.7662C177.526 37.5127 177.309 38.2514 176.867 38.855C176.625 39.1769 176.31 39.4376 175.949 39.6162C175.588 39.7948 175.19 39.8863 174.787 39.8835H166.846C163.023 39.8835 159.205 39.8562 155.387 39.8835C154.6 39.8608 153.85 39.5391 153.291 38.9837C152.733 38.4283 152.406 37.6809 152.379 36.8936C152.379 32.4884 152.379 28.0832 152.379 23.6962C152.385 22.911 152.698 22.1595 153.252 21.603C153.806 21.0465 154.556 20.7295 155.342 20.72C160.311 20.72 165.282 20.72 170.255 20.72C171.62 20.72 172.53 21.5801 172.753 22.9362C172.884 23.5926 172.842 24.2718 172.63 24.9067C172.175 26.1218 171.21 26.545 170.004 26.5496C167.374 26.5496 164.748 26.5496 162.118 26.5496H159.528C159.298 26.5244 159.065 26.5556 158.85 26.6406Z" fill="#7F7D7D"/>
<path d="M83.4523 8.39181C83.5379 8.33732 83.6342 8.30181 83.7346 8.28768C83.8351 8.27355 83.9375 8.28112 84.0348 8.30989C85.3024 8.54737 86.4883 9.10507 87.4797 9.92998C88.7174 10.9178 89.5993 12.2822 89.9918 13.8164C90.1078 14.2793 90.1674 14.7545 90.1693 15.2317C90.1693 22.604 90.1329 29.9809 90.1693 37.3532C90.1761 37.7485 90.1031 38.1411 89.9547 38.5075C89.8063 38.874 89.5855 39.2067 89.3055 39.4858C89.0255 39.7649 88.6921 39.9847 88.3252 40.132C87.9584 40.2793 87.5655 40.3511 87.1703 40.3431C86.2601 40.3204 85.35 40.3431 84.5627 39.8425C84.2044 39.6577 83.904 39.3777 83.6945 39.0333C83.4849 38.6889 83.3744 38.2934 83.3749 37.8902V8.98797C83.3631 8.78615 83.3893 8.58392 83.4523 8.39181Z" fill="#7F7D7D"/>
<path d="M152.479 8.36437C152.704 8.27395 152.95 8.24871 153.189 8.29155C160.27 8.29155 167.347 8.29155 174.428 8.29155C176.157 8.29155 176.799 9.20171 176.985 10.6261C177.05 11.1773 177.024 11.7354 176.908 12.2781C176.791 12.8143 176.49 13.293 176.058 13.6318C175.627 13.9707 175.09 14.1485 174.541 14.1348H159.524C158.458 14.1526 157.401 13.9471 156.42 13.5317C155.438 13.1163 154.555 12.5002 153.826 11.7229C153.034 10.8826 152.535 9.80787 152.406 8.66017C152.394 8.60861 152.395 8.55495 152.407 8.50356C152.42 8.45216 152.445 8.40448 152.479 8.36437Z" fill="#7F7D7D"/>
</svg>
