<svg width="207" height="81" viewBox="0 0 207 81" fill="none" xmlns="http://www.w3.org/2000/svg">
<path d="M117.491 33.8379C117.491 31.5438 117.574 29.2497 117.491 26.9831C117.225 20.8854 121.877 17.848 126.465 17.5773C128.812 17.4351 131.099 17.6783 133.189 18.8896C135.939 20.4908 137.461 22.895 137.502 26.0838C137.566 31.3786 137.534 36.678 137.502 41.9728C137.526 42.3192 137.476 42.6667 137.356 42.9926C137.236 43.3185 137.049 43.6155 136.807 43.864C136.565 44.1126 136.273 44.3072 135.95 44.4351C135.628 44.563 135.282 44.6214 134.936 44.6064C134.592 44.6407 134.244 44.6033 133.916 44.4966C133.587 44.3899 133.284 44.2162 133.026 43.9865C132.767 43.7567 132.559 43.4759 132.415 43.1617C132.27 42.8475 132.192 42.5067 132.185 42.1609C132.153 41.8351 132.185 41.5048 132.185 41.179C132.185 36.4302 132.185 31.6769 132.185 26.9235C132.185 24.5055 131.072 23.2529 128.684 22.8996C127.822 22.7726 126.945 22.7927 126.09 22.9593C124.036 23.3309 122.904 24.6202 122.881 26.7078C122.858 31.4612 122.881 36.2146 122.881 40.9634C122.881 41.2937 122.881 41.6195 122.881 41.9452C122.876 42.393 122.762 42.8329 122.549 43.2266C122.336 43.6203 122.03 43.956 121.658 44.2046C121.286 44.4533 120.859 44.6073 120.414 44.6533C119.969 44.6993 119.52 44.636 119.105 44.4687C118.619 44.3047 118.201 43.9844 117.917 43.5577C117.633 43.1311 117.497 42.6221 117.532 42.1104C117.532 39.3575 117.532 36.6046 117.532 33.8517L117.491 33.8379Z" fill="#7F7D7D"/>
<path d="M63.059 33.7417C63.059 31.2044 62.9581 28.6625 63.059 26.1298C63.2744 21.7894 65.7127 18.9218 69.934 17.8711C72.0541 17.3448 74.2729 17.3653 76.3829 17.9307C80.5079 19.0227 82.96 22.0372 83.0242 26.2721C83.1021 31.4567 83.0562 36.646 83.0242 41.8306C83.0242 43.5742 81.9837 44.5836 80.3521 44.5836C78.7204 44.5836 77.6983 43.542 77.6937 41.8306C77.6937 36.8616 77.6937 31.8926 77.6937 26.9236C77.6937 24.5194 76.5799 23.253 74.192 22.8952C73.4039 22.7713 72.6013 22.7713 71.8132 22.8952C69.5215 23.2622 68.3619 24.5653 68.3574 26.8869C68.3574 31.5623 68.3574 36.2422 68.3574 40.9222C68.3574 41.2479 68.3574 41.5783 68.3574 41.9041C68.3721 42.2583 68.3136 42.6118 68.1854 42.9424C68.0573 43.2729 67.8623 43.5734 67.6127 43.8249C67.3631 44.0765 67.0643 44.2738 66.735 44.4043C66.4057 44.5349 66.053 44.5959 65.699 44.5836C64.0948 44.6111 63.0681 43.7485 63.0269 42.0968C62.9581 39.3026 63.0269 36.5083 63.0269 33.7141L63.059 33.7417Z" fill="#7F7D7D"/>
<path d="M93.5201 18.4169H98.1814C98.5788 18.3985 98.977 18.4077 99.3731 18.4445C100.04 18.5391 100.647 18.8812 101.074 19.4028C101.501 19.9244 101.716 20.5876 101.678 21.2608C101.639 21.934 101.349 22.568 100.865 23.0373C100.382 23.5066 99.7393 23.7768 99.066 23.7943C97.6543 23.854 96.238 23.7943 94.8264 23.7943H93.6897C93.5052 24.2281 93.448 24.7056 93.5247 25.1708C93.5247 30.5726 93.5247 35.9744 93.5247 41.3763C93.5806 42.0672 93.4118 42.7577 93.0434 43.3446C92.6988 43.8146 92.2172 44.1662 91.6649 44.3511C91.1125 44.5359 90.5165 44.545 89.9588 44.3769C89.41 44.2315 88.9295 43.8979 88.6012 43.4342C88.2728 42.9706 88.1175 42.4063 88.1621 41.8397C88.1621 36.2941 88.1621 30.747 88.1621 25.1983C88.2245 24.7712 88.1916 24.3356 88.0659 23.9228C85.3846 23.464 84.5275 22.7666 84.5367 21.101C84.5458 19.4355 85.3525 18.7565 88.1667 18.2564C88.1667 17.3892 88.1667 16.4899 88.1667 15.5952C88.2034 10.9474 91.3751 7.67598 96.0318 7.48787C97.008 7.44657 97.9843 7.4374 98.9652 7.48787C99.6797 7.48751 100.366 7.76555 100.88 8.26311C101.393 8.76068 101.693 9.4387 101.715 10.1536C101.756 11.6585 100.693 12.7781 99.0751 12.879C98.1585 12.9341 97.2418 12.879 96.3572 12.9249C94.5559 13.0258 93.5751 14.0536 93.5384 15.8292C93.5063 16.6551 93.5201 17.4764 93.5201 18.4169Z" fill="#7F7D7D"/>
<path d="M158.742 18.4262C160.699 18.4262 162.468 18.4262 164.242 18.4262C165.924 18.4491 166.937 19.5136 166.914 21.1791C166.914 22.7483 165.882 23.7669 164.219 23.8127C162.807 23.8494 161.395 23.8127 159.979 23.8127H158.966C158.857 23.9746 158.782 24.1567 158.745 24.3483C158.708 24.5398 158.71 24.7369 158.751 24.9277C158.751 28.6625 158.751 32.3973 158.751 36.132C158.751 38.1646 159.846 39.275 161.881 39.3162C162.679 39.3162 163.476 39.3162 164.269 39.3162C165.915 39.3805 166.923 40.4174 166.918 41.9958C166.914 43.5741 165.97 44.5422 164.324 44.5651C162.679 44.5881 161.07 44.689 159.461 44.3128C157.74 43.9641 156.194 43.0238 155.091 41.6548C153.989 40.2857 153.4 38.5739 153.425 36.8157C153.425 28.0064 153.425 19.197 153.425 10.3877C153.405 9.98958 153.459 9.59127 153.585 9.2131C153.771 8.65608 154.133 8.17514 154.617 7.84374C155.102 7.51234 155.681 7.3487 156.267 7.37782C156.826 7.45002 157.35 7.68842 157.773 8.0622C158.195 8.43598 158.496 8.92798 158.636 9.47462C158.744 10.0074 158.785 10.5513 158.76 11.0943C158.737 13.5122 158.742 15.8981 158.742 18.4262Z" fill="#7F7D7D"/>
<path d="M193.433 17.4718C193.893 17.4817 194.343 17.6047 194.744 17.83C195.145 18.0554 195.484 18.376 195.732 18.7638C195.98 19.1515 196.129 19.5943 196.165 20.0532C196.201 20.512 196.124 20.9728 195.94 21.3947C193.47 27.8824 191.132 34.4206 188.744 40.945C187.012 45.6617 185.281 50.3814 183.551 55.1042C182.901 56.8661 181.361 57.5497 179.747 56.8202C178.436 56.2237 177.914 54.9344 178.432 53.4616C179.807 49.6855 181.182 45.9232 182.557 42.1517C185.307 34.6454 188.057 27.1407 190.807 19.6374C191.398 18.0637 192.145 17.4489 193.433 17.4718Z" fill="#7F7D7D"/>
<path d="M57.9118 31.1355C57.9118 34.6547 57.9118 38.1692 57.9118 41.6884C57.9287 42.1349 57.8343 42.5786 57.6372 42.9795C57.4401 43.3804 57.1464 43.7259 56.7827 43.9849C56.4189 44.2439 55.9965 44.4082 55.5536 44.463C55.1106 44.5179 54.6609 44.4615 54.2451 44.2991C53.7746 44.1516 53.3598 43.8649 53.0554 43.4766C52.751 43.0884 52.5713 42.6168 52.5401 42.1243C52.5194 41.7988 52.5194 41.4724 52.5401 41.147V21.0415C52.5401 20.7846 52.5401 20.5322 52.5401 20.2799C52.5356 19.9338 52.6026 19.5906 52.7368 19.2717C52.8709 18.9527 53.0694 18.6649 53.3198 18.4263C53.5702 18.1877 53.8672 18.0034 54.192 17.885C54.5168 17.7665 54.8626 17.7165 55.2076 17.738C55.5616 17.7243 55.9147 17.7828 56.2453 17.9102C56.5759 18.0375 56.8771 18.231 57.1306 18.4787C57.3841 18.7264 57.5845 19.0233 57.7196 19.3511C57.8547 19.6789 57.9216 20.0308 57.9164 20.3854C57.9302 23.9734 57.9118 27.5613 57.9118 31.1355Z" fill="#7F7D7D"/>
<path d="M112.509 31.1356C112.509 34.6501 112.509 38.1693 112.509 41.6884C112.527 42.1353 112.434 42.5797 112.237 42.9813C112.041 43.3829 111.747 43.7288 111.382 43.9878C111.018 44.2467 110.595 44.4104 110.151 44.464C109.708 44.5175 109.258 44.4593 108.842 44.2945C108.406 44.1613 108.017 43.9054 107.722 43.5572C107.427 43.209 107.239 42.7833 107.179 42.3308C107.137 42.0806 107.119 41.8272 107.124 41.5737C107.124 34.5813 107.124 27.5874 107.124 20.5919C107.124 19.1466 107.715 18.2336 108.829 17.839C109.363 17.6596 109.939 17.6423 110.484 17.7892C111.029 17.9361 111.518 18.2407 111.89 18.6649C112.328 19.2042 112.546 19.8893 112.5 20.5827C112.5 24.1248 112.509 27.6394 112.509 31.1356Z" fill="#7F7D7D"/>
<path d="M142.75 31.0528C142.75 27.5016 142.75 23.9503 142.75 20.399C142.709 19.8509 142.852 19.3049 143.156 18.8471C143.46 18.3893 143.907 18.0458 144.428 17.8709C144.962 17.6864 145.539 17.6655 146.085 17.811C146.632 17.9565 147.122 18.2617 147.494 18.6876C147.929 19.1836 148.158 19.8268 148.136 20.4862C148.136 27.552 148.136 34.6178 148.136 41.6882C148.149 42.0612 148.086 42.433 147.948 42.7801C147.811 43.1271 147.604 43.4419 147.339 43.7045C147.074 43.9672 146.757 44.1719 146.409 44.3058C146.061 44.4397 145.689 44.4999 145.317 44.4825C143.745 44.432 142.755 43.3354 142.755 41.6011C142.746 38.0865 142.75 34.572 142.75 31.0528Z" fill="#7F7D7D"/>
<path d="M174.339 17.4719C174.888 17.4311 175.434 17.5745 175.892 17.8795C176.35 18.1844 176.694 18.6335 176.869 19.1558C178.867 24.787 180.853 30.4213 182.827 36.0587C182.941 36.385 182.988 36.7308 182.966 37.0757C182.944 37.4206 182.853 37.7576 182.699 38.0668C182.545 38.376 182.33 38.6511 182.068 38.876C181.806 39.1008 181.502 39.2708 181.173 39.3759C180.856 39.5187 180.512 39.593 180.165 39.5942C179.818 39.5953 179.474 39.5232 179.156 39.3825C178.838 39.2419 178.554 39.0358 178.321 38.7778C178.088 38.5197 177.912 38.2154 177.804 37.8848C175.787 32.226 173.801 26.5565 171.845 20.8763C171.204 19.1007 172.455 17.4856 174.339 17.4719Z" fill="#7F7D7D"/>
<path d="M7.10505 34.9069C6.45952 34.93 5.81603 34.8214 5.21367 34.5879C4.61131 34.3544 4.06265 34.0008 3.60099 33.5485C3.13933 33.0963 2.77432 32.5548 2.52811 31.957C2.28191 31.3592 2.15965 30.7175 2.16875 30.0709C2.14347 29.411 2.2507 28.7528 2.4841 28.1351C2.71749 27.5174 3.07231 26.9529 3.52755 26.4749C3.98278 25.997 4.52917 25.6153 5.13439 25.3525C5.7396 25.0897 6.39133 24.9512 7.05099 24.945C7.71066 24.9389 8.36485 25.0653 8.97484 25.3168C9.58483 25.5683 10.1382 25.9397 10.6023 26.4091C11.0663 26.8785 11.4315 27.4363 11.6764 28.0495C11.9212 28.6627 12.0406 29.3189 12.0276 29.9792C12.0486 30.632 11.9357 31.2822 11.6957 31.8895C11.4558 32.4969 11.094 33.0486 10.6326 33.5104C10.1712 33.9723 9.62016 34.3345 9.01342 34.5747C8.40668 34.8149 7.75717 34.9279 7.10505 34.9069Z" fill="#7F7D7D"/>
<path d="M20.461 39.3162C20.4745 39.887 20.3713 40.4545 20.1577 40.9838C19.9442 41.5132 19.6248 41.9933 19.2192 42.3946C18.8135 42.7959 18.3303 43.11 17.799 43.3176C17.2677 43.5251 16.6997 43.6218 16.1297 43.6016C13.7143 43.6016 11.6563 41.6792 11.7343 39.3071C11.8259 36.5541 13.6639 34.9345 16.1206 34.8565C16.7012 34.8531 17.2766 34.967 17.8123 35.1914C18.348 35.4158 18.8329 35.7461 19.2381 36.1624C19.6434 36.5788 19.9605 37.0727 20.1706 37.6146C20.3808 38.1565 20.4795 38.7352 20.461 39.3162Z" fill="#7F7D7D"/>
<path d="M8.118 17.8665C8.14562 18.4054 8.06109 18.9442 7.86977 19.4486C7.67845 19.9531 7.38452 20.4123 7.00661 20.7971C6.6287 21.1819 6.17504 21.4839 5.67442 21.6839C5.17379 21.8839 4.6371 21.9777 4.09837 21.9592C1.60502 21.9592 0.0420825 20.2707 0.000832034 17.9216C-0.0404184 15.6779 1.45376 13.7922 4.12587 13.7922C4.66034 13.7791 5.19179 13.8761 5.68722 14.0773C6.18265 14.2784 6.63148 14.5794 7.00585 14.9614C7.38021 15.3435 7.67212 15.7986 7.86344 16.2983C8.05476 16.798 8.1414 17.3318 8.118 17.8665Z" fill="#7F7D7D"/>
<path d="M13.5264 8.08892C13.5377 8.57804 13.4497 9.06437 13.2678 9.51847C13.0858 9.97256 12.8137 10.385 12.4679 10.7307C12.1221 11.0765 11.7098 11.3483 11.256 11.5299C10.8021 11.7115 10.3162 11.7989 9.8276 11.787C9.33891 11.7788 8.85678 11.6729 8.40957 11.4756C7.96235 11.2782 7.55907 10.9933 7.22342 10.6376C6.88778 10.282 6.62656 9.86272 6.45511 9.40455C6.28366 8.94637 6.20544 8.4585 6.22506 7.96962C6.22002 7.48833 6.31176 7.01095 6.49482 6.56589C6.67788 6.12082 6.94853 5.71718 7.29064 5.37898C7.63276 5.04079 8.03935 4.77495 8.48622 4.59731C8.93308 4.41967 9.41108 4.33384 9.89177 4.34495C10.3786 4.34283 10.8609 4.43902 11.3098 4.62777C11.7586 4.81652 12.1649 5.09394 12.5042 5.44345C12.8435 5.79296 13.1089 6.20739 13.2845 6.66193C13.4601 7.11648 13.5424 7.60182 13.5264 8.08892Z" fill="#7F7D7D"/>
<path d="M23.6006 45.5333C23.5703 45.0676 23.6348 44.6005 23.7903 44.1605C23.9457 43.7205 24.1888 43.3166 24.5049 42.9735C24.8209 42.6304 25.2033 42.3551 25.6289 42.1644C26.0544 41.9736 26.5142 41.8714 26.9804 41.864C27.4466 41.8565 27.9094 41.9439 28.3408 42.1209C28.7722 42.2979 29.1632 42.5608 29.4901 42.8937C29.817 43.2265 30.0729 43.6223 30.2423 44.0572C30.4117 44.492 30.4911 44.9567 30.4757 45.4232C30.506 45.889 30.4415 46.356 30.2861 46.796C30.1306 47.2361 29.8875 47.6399 29.5714 47.983C29.2554 48.3262 28.873 48.6014 28.4475 48.7922C28.0219 48.9829 27.5621 49.0851 27.0959 49.0926C26.6298 49.1 26.1669 49.0126 25.7355 48.8356C25.3041 48.6586 24.9131 48.3957 24.5862 48.0629C24.2594 47.73 24.0035 47.3342 23.8341 46.8994C23.6646 46.4646 23.5852 45.9998 23.6006 45.5333Z" fill="#7F7D7D"/>
<path d="M38.3637 45.0378C38.8072 45.0348 39.2469 45.1197 39.6575 45.2876C40.068 45.4555 40.4413 45.7032 40.7558 46.0163C41.0702 46.3294 41.3197 46.7017 41.4897 47.1118C41.6597 47.5218 41.7469 47.9616 41.7462 48.4055C41.736 49.3028 41.3798 50.1613 40.752 50.8017C40.1242 51.4422 39.2734 51.8149 38.3775 51.8421C37.9243 51.8403 37.476 51.7487 37.0584 51.5726C36.6407 51.3965 36.2621 51.1394 35.9442 50.8161C35.6263 50.4928 35.3756 50.1097 35.2063 49.6888C35.0371 49.268 34.9528 48.8178 34.9583 48.3642C34.9562 47.9198 35.0435 47.4795 35.215 47.0696C35.3865 46.6597 35.6386 46.2885 35.9563 45.9781C36.2741 45.6677 36.651 45.4245 37.0645 45.263C37.4781 45.1014 37.9199 45.0248 38.3637 45.0378Z" fill="#7F7D7D"/>
<path d="M18.3068 6.17571C17.8995 6.18784 17.4941 6.11406 17.1171 5.95916C16.7401 5.80426 16.3999 5.57171 16.1185 5.27661C15.8371 4.98152 15.6209 4.63047 15.4838 4.24628C15.3468 3.86208 15.292 3.45333 15.323 3.04656C15.336 2.2434 15.6602 1.4767 16.2271 0.908272C16.7941 0.339848 17.5595 0.0141757 18.3618 0C19.1835 0.0323964 19.9621 0.376744 20.5393 0.963076C21.1165 1.54941 21.449 2.33374 21.4694 3.15668C21.4647 3.5643 21.3787 3.96688 21.2163 4.3407C21.0538 4.71453 20.8184 5.05204 20.5237 5.33337C20.229 5.6147 19.881 5.83415 19.5003 5.97882C19.1196 6.12348 18.7138 6.19043 18.3068 6.17571Z" fill="#7F7D7D"/>
<path d="M54.7355 62.7941C54.7325 62.3982 54.8074 62.0056 54.956 61.6387C55.1045 61.2719 55.3238 60.9379 55.6013 60.6558C55.8788 60.3738 56.2091 60.1492 56.5733 59.9949C56.9375 59.8406 57.3285 59.7597 57.7239 59.7567C58.1193 59.7537 58.5115 59.8287 58.878 59.9774C59.2445 60.1261 59.5782 60.3456 59.8599 60.6234C60.1417 60.9012 60.366 61.2318 60.5201 61.5964C60.6742 61.9609 60.7551 62.3523 60.7581 62.7482C60.7711 63.1467 60.7033 63.5438 60.5588 63.9154C60.4142 64.287 60.1959 64.6254 59.917 64.9102C59.6381 65.1949 59.3044 65.4201 58.9362 65.5722C58.5679 65.7242 58.1726 65.7999 57.7743 65.7947C57.3767 65.8021 56.9817 65.7298 56.6124 65.5821C56.2431 65.4344 55.907 65.2143 55.6239 64.9348C55.3408 64.6552 55.1164 64.3218 54.9638 63.9542C54.8112 63.5866 54.7336 63.1921 54.7355 62.7941Z" fill="#7F7D7D"/>
<path d="M199.534 41.5828C199.55 41.9907 199.481 42.3976 199.329 42.7768C199.178 43.1559 198.948 43.4988 198.655 43.7829C198.362 44.067 198.013 44.286 197.629 44.4256C197.246 44.5651 196.838 44.622 196.431 44.5926C194.639 44.5651 193.552 43.3951 193.562 41.5048C193.571 39.6144 194.707 38.4032 196.554 38.4261C198.402 38.449 199.543 39.7291 199.534 41.5828Z" fill="#7F7D7D"/>
<path d="M24.4852 4.09262C24.4933 3.71181 24.5777 3.3365 24.7334 2.98895C24.8891 2.6414 25.113 2.32869 25.3917 2.06938C25.6704 1.81006 25.9983 1.60942 26.3559 1.47935C26.7135 1.34927 27.0936 1.29243 27.4736 1.31217C27.8622 1.32476 28.2443 1.41579 28.597 1.5798C28.9496 1.74382 29.2655 1.97744 29.5257 2.26666C29.786 2.55588 29.9852 2.89474 30.1114 3.26291C30.2376 3.63107 30.2883 4.02097 30.2603 4.40921C30.2469 4.79245 30.1574 5.16919 29.997 5.51741C29.8366 5.86563 29.6084 6.17834 29.3259 6.43729C29.0433 6.69624 28.7121 6.89623 28.3514 7.02556C27.9908 7.1549 27.6081 7.21099 27.2255 7.19056C26.843 7.17013 26.4684 7.0736 26.1235 6.90659C25.7787 6.73959 25.4706 6.50546 25.2172 6.21789C24.9637 5.93032 24.7701 5.59507 24.6476 5.23174C24.5251 4.86841 24.4761 4.48428 24.5036 4.1018L24.4852 4.09262Z" fill="#7F7D7D"/>
<path d="M24.3615 31.0529C24.3706 31.4337 24.3039 31.8125 24.1652 32.1672C24.0265 32.5219 23.8185 32.8454 23.5536 33.1187C23.2886 33.3921 22.9719 33.6099 22.6219 33.7594C22.2719 33.9089 21.8957 33.9871 21.5152 33.9894C20.7661 33.9779 20.0503 33.6777 19.5167 33.1513C18.9832 32.6248 18.6729 31.9127 18.6506 31.1631C18.6393 30.7825 18.7055 30.4037 18.8452 30.0497C18.985 29.6956 19.1952 29.3738 19.4633 29.1037C19.7313 28.8337 20.0515 28.6211 20.4043 28.479C20.757 28.3369 21.135 28.2682 21.5152 28.2771C21.8863 28.2641 22.2562 28.3264 22.6026 28.4603C22.9489 28.5943 23.2646 28.7971 23.5306 29.0565C23.7966 29.3159 24.0073 29.6265 24.1501 29.9696C24.2929 30.3127 24.3648 30.6812 24.3615 31.0529Z" fill="#7F7D7D"/>
<path d="M112.527 12.466C112.546 12.8369 112.486 13.2075 112.35 13.5529C112.214 13.8984 112.006 14.2107 111.739 14.4689C111.472 14.7271 111.154 14.9251 110.804 15.0498C110.455 15.1744 110.083 15.2227 109.713 15.1914C108.095 15.1593 107.096 14.0857 107.101 12.3926C107.105 10.6996 108.242 9.49746 109.851 9.56629C111.093 9.62135 112.66 10.5344 112.527 12.466Z" fill="#7F7D7D"/>
<path d="M57.9164 12.4798C58.1044 13.9113 56.7752 15.2006 55.2031 15.2006C53.5301 15.2006 52.508 14.1407 52.5126 12.3789C52.5172 10.617 53.6539 9.4883 55.2627 9.5663C56.6606 9.63971 58.0998 10.7409 57.9164 12.4798Z" fill="#7F7D7D"/>
<path d="M142.75 12.3239C142.773 10.6355 143.827 9.60769 145.5 9.65357C145.863 9.6561 146.222 9.73251 146.555 9.87815C146.888 10.0238 147.188 10.2356 147.437 10.5008C147.685 10.766 147.877 11.0789 148.002 11.4207C148.126 11.7625 148.179 12.126 148.159 12.4891C148.162 12.853 148.09 13.2138 147.948 13.5487C147.806 13.8837 147.596 14.1857 147.332 14.4358C147.068 14.686 146.755 14.879 146.413 15.0027C146.071 15.1264 145.707 15.1782 145.344 15.1548C143.704 15.1273 142.727 14.0537 142.75 12.3239Z" fill="#7F7D7D"/>
<path d="M163.467 50.562C163.774 50.2999 164.131 50.102 164.516 49.9799C164.901 49.8578 165.306 49.8139 165.708 49.8508C167.285 49.8784 168.33 50.7134 168.211 52.4202C168.133 53.5397 168.211 54.6684 168.188 55.7925C168.188 56.0999 168.27 56.5129 167.785 56.5267C167.299 56.5404 167.326 56.1458 167.326 55.8201C167.326 54.7327 167.326 53.6453 167.326 52.5579C167.326 51.1814 166.918 50.7639 165.621 50.7593C164.324 50.7547 163.857 51.1814 163.847 52.5946C163.847 53.6866 163.847 54.774 163.847 55.8614C163.847 56.1458 163.87 56.4899 163.467 56.5221C163.009 56.5588 162.977 56.1963 162.977 55.8568C162.977 54.696 162.977 53.5352 162.977 52.3743C162.977 51.2135 162.518 50.7685 161.322 50.7501C160.034 50.7226 159.525 51.1539 159.489 52.3468C159.466 53.4342 159.489 54.5216 159.489 55.609C159.489 55.9623 159.667 56.5267 159.03 56.5267C158.485 56.5267 158.632 56.0174 158.627 55.687C158.627 54.4528 158.6 53.2186 158.627 51.9843C158.612 51.4893 158.781 51.0064 159.102 50.6297C159.423 50.253 159.873 50.0097 160.364 49.9472C161.469 49.7178 162.262 49.8646 163.467 50.562Z" fill="#7F7D7D"/>
<path d="M49.6938 56.788C49.6993 56.1054 49.9755 55.4528 50.4615 54.974C50.7022 54.7369 50.9872 54.5496 51.3002 54.4227C51.6132 54.2959 51.9481 54.232 52.2857 54.2347C52.6234 54.2374 52.9572 54.3067 53.2682 54.4385C53.5791 54.5704 53.861 54.7623 54.0979 55.0032C54.3347 55.2441 54.5218 55.5294 54.6486 55.8427C54.7753 56.1561 54.8391 56.4913 54.8364 56.8293C54.8309 57.512 54.5548 58.1645 54.0687 58.6434C53.5826 59.1222 52.9264 59.3881 52.2445 59.3827C51.5625 59.3772 50.9107 59.1008 50.4324 58.6142C49.954 58.1276 49.6884 57.4707 49.6938 56.788Z" fill="#7F7D7D"/>
<path d="M28.4819 24.088C28.4747 24.5821 28.3213 25.0629 28.0412 25.4698C27.7612 25.8768 27.3669 26.1915 26.9083 26.3743C26.4497 26.5571 25.9472 26.5998 25.4644 26.4969C24.9816 26.3941 24.54 26.1503 24.1955 25.7965C23.8509 25.4426 23.6188 24.9945 23.5285 24.5086C23.4382 24.0228 23.4937 23.5211 23.688 23.0668C23.8823 22.6126 24.2067 22.2261 24.6202 21.9563C25.0338 21.6864 25.5179 21.5453 26.0115 21.5507C26.6662 21.5861 27.2837 21.8667 27.7413 22.3367C28.199 22.8068 28.4633 23.4319 28.4819 24.088Z" fill="#7F7D7D"/>
<path d="M32.8545 15.7009C32.8549 16.0278 32.7896 16.3515 32.6626 16.6528C32.5356 16.954 32.3494 17.2266 32.1152 17.4544C31.8809 17.6823 31.6033 17.8606 31.2988 17.979C30.9944 18.0974 30.6692 18.1533 30.3428 18.1434C30.0163 18.1336 29.6951 18.0582 29.3983 17.9217C29.1015 17.7852 28.8351 17.5905 28.615 17.349C28.3948 17.1074 28.2254 16.8241 28.1167 16.5158C28.008 16.2074 27.9624 15.8804 27.9824 15.554C28.0212 14.9211 28.3046 14.328 28.7725 13.9006C29.2405 13.4731 29.8563 13.2447 30.4895 13.2638C31.1227 13.2829 31.7237 13.5479 32.1651 14.0028C32.6065 14.4577 32.8538 15.0667 32.8545 15.7009Z" fill="#7F7D7D"/>
<path d="M39.702 11.2732C40.0264 11.2664 40.3488 11.325 40.6501 11.4454C40.9514 11.5659 41.2254 11.7457 41.4559 11.9743C41.6863 12.2028 41.8685 12.4755 41.9916 12.7759C42.1147 13.0764 42.1763 13.3986 42.1725 13.7233C42.151 14.3793 41.8736 15.0008 41.3998 15.4545C40.926 15.9082 40.2935 16.158 39.6379 16.1505C38.9838 16.1376 38.3601 15.8721 37.8971 15.4095C37.4341 14.9469 37.1678 14.323 37.1537 13.6683C37.1619 13.3429 37.2347 13.0224 37.3676 12.7253C37.5005 12.4283 37.691 12.1606 37.9281 11.9378C38.1651 11.715 38.444 11.5416 38.7485 11.4275C39.053 11.3134 39.3771 11.261 39.702 11.2732Z" fill="#7F7D7D"/>
<path d="M37.2133 8.0294C37.2182 8.67442 36.9678 9.29515 36.517 9.75596C36.0661 10.2168 35.4513 10.4802 34.807 10.4887C34.16 10.461 33.5487 10.1842 33.1007 9.71616C32.6527 9.24809 32.4026 8.62488 32.4026 7.97663C32.4026 7.32838 32.6527 6.70518 33.1007 6.23711C33.5487 5.76905 34.16 5.49229 34.807 5.4646C35.134 5.47226 35.4563 5.54498 35.755 5.67853C36.0537 5.81208 36.3228 6.00379 36.5468 6.24249C36.7707 6.48119 36.945 6.76211 37.0594 7.06889C37.1738 7.37567 37.2261 7.70218 37.2133 8.0294Z" fill="#7F7D7D"/>
<path d="M133.409 56.1963C133.298 56.8013 133.258 57.4172 133.29 58.0315C133.263 58.3252 133.249 58.6509 132.859 58.6739C132.47 58.6968 132.401 58.3848 132.401 58.082C132.401 56.054 132.328 54.0169 132.474 51.9981C132.584 50.4151 133.689 49.7544 135.55 49.8737C137.053 49.9655 137.883 50.7914 137.956 52.2734C137.988 52.9616 137.983 53.6498 137.956 54.338C137.961 54.8335 137.783 55.3132 137.457 55.6857C137.13 56.0581 136.678 56.2971 136.187 56.3569C135.26 56.5038 134.313 56.449 133.409 56.1963ZM133.299 53.2644C133.299 53.4112 133.299 53.5535 133.299 53.7003C133.299 55.1502 133.643 55.4759 135.096 55.4897C135.348 55.4943 135.601 55.4851 135.852 55.4621C136.016 55.461 136.177 55.4271 136.327 55.3624C136.478 55.2978 136.613 55.2036 136.726 55.0856C136.84 54.9676 136.928 54.828 136.987 54.6752C137.045 54.5224 137.072 54.3594 137.067 54.1958C137.108 53.548 137.108 52.8982 137.067 52.2504C137.016 51.6127 136.783 50.9795 136.081 50.874C134.34 50.562 133.221 50.8143 133.299 52.8561C133.304 52.9753 133.295 53.1222 133.299 53.2644Z" fill="#7F7D7D"/>
<path d="M150.854 52.6586C151.014 51.1674 150.73 50.8004 149.479 50.7591C148.791 50.7591 148.104 50.7591 147.411 50.7591C147.104 50.7591 146.788 50.6765 146.797 50.3002C146.806 49.924 147.132 49.8414 147.439 49.8644C148.356 49.8644 149.272 49.8414 150.152 49.9332C150.381 49.9408 150.606 49.994 150.815 50.0895C151.023 50.1851 151.21 50.3212 151.365 50.4898C151.521 50.6584 151.641 50.8563 151.719 51.0719C151.797 51.2875 151.832 51.5165 151.821 51.7455C151.862 52.7595 151.867 53.7781 151.821 54.7921C151.832 55.2565 151.663 55.7073 151.35 56.0496C151.036 56.3919 150.602 56.599 150.139 56.6274C149.456 56.7307 148.763 56.7307 148.081 56.6274C147.586 56.5921 147.125 56.3617 146.799 55.9867C146.473 55.6116 146.31 55.1226 146.344 54.6269C146.338 54.1305 146.527 53.6516 146.87 53.2925C147.212 52.9334 147.681 52.7224 148.177 52.7045C149.057 52.6081 149.928 52.6586 150.854 52.6586ZM149.479 53.5303V53.5625C149.083 53.5372 148.687 53.5372 148.291 53.5625C148.146 53.5629 148.002 53.5947 147.869 53.6557C147.737 53.7166 147.619 53.8054 147.524 53.9159C147.429 54.0264 147.358 54.1561 147.318 54.2962C147.277 54.4362 147.267 54.5835 147.288 54.7279C147.29 54.8645 147.321 54.9992 147.378 55.1235C147.434 55.2479 147.516 55.3593 147.617 55.4509C147.719 55.5425 147.838 55.6123 147.967 55.656C148.096 55.6997 148.233 55.7164 148.369 55.7051C148.908 55.7441 149.449 55.7441 149.987 55.7051C150.73 55.6271 151.005 55.1041 150.987 54.1956C150.987 53.356 150.377 53.5762 149.909 53.5349C149.758 53.5166 149.616 53.5303 149.469 53.5303H149.479Z" fill="#7F7D7D"/>
<path d="M174.435 52.6587C174.518 51.0666 174.265 50.7821 172.895 50.7546C172.244 50.7546 171.593 50.7546 170.943 50.7546C170.64 50.7546 170.333 50.6766 170.37 50.2682C170.402 49.9379 170.681 49.8874 170.938 49.8828C171.913 49.8123 172.892 49.8385 173.862 49.9608C174.283 50.0037 174.672 50.2063 174.949 50.5271C175.226 50.8478 175.37 51.2624 175.352 51.686C175.393 52.7367 175.352 53.792 175.352 54.8427C175.354 55.0791 175.308 55.3134 175.214 55.5307C175.121 55.748 174.984 55.9434 174.811 56.1044C173.917 56.9808 171.185 56.8982 170.36 55.9759C170.114 55.7051 169.95 55.3694 169.889 55.0084C169.827 54.6473 169.87 54.2762 170.012 53.9388C170.135 53.5719 170.37 53.2532 170.685 53.0283C170.999 52.8033 171.376 52.6836 171.763 52.6862C172.638 52.6266 173.5 52.6587 174.435 52.6587ZM174.408 53.613C173.573 53.4859 172.725 53.4705 171.887 53.5671C171.714 53.5658 171.544 53.6056 171.39 53.6832C171.236 53.7608 171.103 53.874 171.001 54.0134C170.899 54.1529 170.832 54.3145 170.805 54.4851C170.778 54.6556 170.792 54.8301 170.846 54.9941C171.199 55.875 171.992 55.7236 172.68 55.7236C173.367 55.7236 174.119 55.8704 174.412 55.0032C174.538 54.5497 174.536 54.0703 174.408 53.6176V53.613Z" fill="#7F7D7D"/>
<path d="M48.0576 53.2416C48.0576 53.8542 47.8144 54.4419 47.3817 54.8751C46.9489 55.3083 46.3619 55.5517 45.7498 55.5517C45.1378 55.5517 44.5508 55.3083 44.118 54.8751C43.6852 54.4419 43.4421 53.8542 43.4421 53.2416C43.4421 52.6289 43.6852 52.0413 44.118 51.608C44.5508 51.1748 45.1378 50.9314 45.7498 50.9314C46.3619 50.9314 46.9489 51.1748 47.3817 51.608C47.8144 52.0413 48.0576 52.6289 48.0576 53.2416Z" fill="#7F7D7D"/>
<path d="M140.33 50.1534C141.273 49.8436 142.277 49.7711 143.254 49.9424C143.73 49.9919 144.168 50.2195 144.483 50.5795C144.797 50.9395 144.964 51.4052 144.95 51.8832C144.987 53.2229 144.95 54.5627 144.95 55.907C144.95 56.1915 144.973 56.5494 144.57 56.5585C144.166 56.5677 144.079 56.219 144.079 55.8703C144.079 54.6728 144.079 53.4799 144.079 52.2823C144.079 51.2225 143.708 50.8508 142.663 50.7728C142.301 50.7437 141.937 50.7514 141.577 50.7958C140.729 50.9013 140.362 51.2821 140.339 52.1493C140.312 53.2688 140.339 54.3929 140.339 55.517C140.339 55.7327 140.339 55.9529 140.339 56.1685C140.339 56.3842 140.142 56.5448 139.908 56.5631C139.854 56.5709 139.799 56.5664 139.747 56.55C139.695 56.5335 139.648 56.5054 139.608 56.4679C139.568 56.4304 139.538 56.3844 139.518 56.3334C139.499 56.2823 139.491 56.2276 139.496 56.1731C139.496 55.9942 139.496 55.8107 139.496 55.6317V48.3457C139.491 48.2739 139.491 48.2018 139.496 48.13C139.533 47.8318 139.404 47.3913 139.895 47.3868C140.385 47.3822 140.353 47.8456 140.353 48.1897C140.339 48.7999 140.33 49.4147 140.33 50.1534Z" fill="#7F7D7D"/>
<path d="M58.5214 76.0585C58.5418 76.3475 58.5 76.6376 58.3987 76.909C58.2974 77.1805 58.1391 77.427 57.9344 77.6319C57.7297 77.8368 57.4835 77.9953 57.2123 78.0967C56.9411 78.198 56.6514 78.2399 56.3626 78.2195C55.7799 78.221 55.2195 77.9953 54.8003 77.5901C54.381 77.185 54.1359 76.6323 54.1168 76.0493C54.1562 75.4688 54.4037 74.9221 54.8139 74.5098C55.224 74.0975 55.7692 73.8475 56.3489 73.8057C56.9329 73.8236 57.4868 74.0691 57.8926 74.4899C58.2985 74.9108 58.5241 75.4736 58.5214 76.0585Z" fill="#7F7D7D"/>
<path d="M206.001 14.829C206.015 15.5618 205.81 16.2821 205.412 16.8972C205.014 17.5123 204.441 17.994 203.767 18.2803C203.093 18.5665 202.349 18.6443 201.63 18.5034C200.912 18.3626 200.252 18.0097 199.735 17.4901C199.219 16.9705 198.87 16.3081 198.733 15.5881C198.596 14.8681 198.677 14.1236 198.967 13.4503C199.256 12.7771 199.74 12.206 200.357 11.8106C200.973 11.4153 201.694 11.2137 202.426 11.2318C202.897 11.2294 203.365 11.3209 203.801 11.501C204.237 11.6811 204.633 11.9463 204.966 12.2811C205.298 12.6158 205.561 13.0135 205.739 13.4509C205.917 13.8884 206.006 14.3568 206.001 14.829ZM202.389 11.865C201.638 11.8746 200.921 12.1791 200.392 12.7129C199.863 13.2467 199.565 13.967 199.561 14.7189C199.55 15.0901 199.613 15.4599 199.745 15.8068C199.878 16.1538 200.078 16.471 200.333 16.7402C200.589 17.0093 200.896 17.2251 201.235 17.3751C201.574 17.5251 201.94 17.6063 202.311 17.614C202.683 17.619 203.053 17.5491 203.397 17.4084C203.742 17.2677 204.055 17.0592 204.317 16.7951C204.58 16.531 204.786 16.2169 204.925 15.8712C205.064 15.5256 205.132 15.1556 205.125 14.7831C205.144 14.0343 204.867 13.3083 204.355 12.7622C203.843 12.216 203.137 11.8937 202.389 11.865Z" fill="#7F7D7D"/>
<path d="M61.9635 70.1673C61.9372 70.7334 61.6983 71.2687 61.2946 71.666C60.8909 72.0633 60.3523 72.2933 59.7864 72.31C59.2207 72.2874 58.6834 72.056 58.278 71.6604C57.8726 71.2647 57.6279 70.7329 57.591 70.1673C57.591 69.8799 57.6475 69.5953 57.7574 69.3298C57.8673 69.0643 58.0283 68.823 58.2313 68.6198C58.4343 68.4166 58.6753 68.2553 58.9406 68.1454C59.2058 68.0354 59.4901 67.9788 59.7772 67.9788C60.0643 67.9788 60.3486 68.0354 60.6139 68.1454C60.8791 68.2553 61.1202 68.4166 61.3232 68.6198C61.5262 68.823 61.6872 69.0643 61.7971 69.3298C61.907 69.5953 61.9635 69.8799 61.9635 70.1673Z" fill="#7F7D7D"/>
<path d="M14.0672 24.0697C13.504 24.0733 12.9623 23.8532 12.561 23.4575C12.1597 23.0618 11.9316 22.5229 11.9268 21.9591C11.9808 21.3996 12.2334 20.8781 12.6388 20.4892C13.0441 20.1002 13.5753 19.8697 14.136 19.8394C14.6986 19.8772 15.2275 20.1214 15.6216 20.5251C16.0157 20.9289 16.2472 21.464 16.2718 22.0279C16.2612 22.307 16.1957 22.5812 16.0791 22.8349C15.9626 23.0885 15.7972 23.3167 15.5924 23.5064C15.3876 23.696 15.1475 23.8433 14.8858 23.94C14.6241 24.0367 14.346 24.0807 14.0672 24.0697Z" fill="#7F7D7D"/>
<path d="M30.4482 35.1914C30.7295 35.1895 31.0084 35.2441 31.2683 35.352C31.5281 35.4598 31.7638 35.6188 31.9612 35.8194C32.1586 36.0201 32.3138 36.2583 32.4177 36.52C32.5215 36.7818 32.5719 37.0617 32.5657 37.3433C32.5314 37.9023 32.2825 38.4263 31.8711 38.8058C31.4597 39.1854 30.9176 39.391 30.3583 39.3797C29.799 39.3685 29.2656 39.1412 28.8698 38.7454C28.474 38.3496 28.2463 37.816 28.2344 37.2561C28.2439 36.9749 28.3087 36.6983 28.4252 36.4422C28.5416 36.1861 28.7075 35.9555 28.9131 35.7637C29.1188 35.5719 29.3603 35.4226 29.6237 35.3244C29.8871 35.2262 30.1673 35.181 30.4482 35.1914Z" fill="#7F7D7D"/>
<path d="M40.9762 20.0413C40.9702 19.7846 41.0148 19.5292 41.1073 19.2898C41.1999 19.0504 41.3387 18.8315 41.5157 18.6457C41.6928 18.46 41.9046 18.311 42.1392 18.2072C42.3738 18.1034 42.6265 18.0468 42.8829 18.0408C43.1393 18.0348 43.3944 18.0794 43.6336 18.172C43.8728 18.2647 44.0914 18.4036 44.277 18.5809C44.4626 18.7581 44.6114 18.9702 44.7151 19.205C44.8188 19.4398 44.8753 19.6928 44.8813 19.9495C44.8873 20.2062 44.8428 20.4615 44.7502 20.701C44.6576 20.9404 44.5189 21.1593 44.3418 21.345C44.1648 21.5308 43.9529 21.6798 43.7183 21.7836C43.4837 21.8874 43.231 21.9439 42.9746 21.95C42.7182 21.956 42.4631 21.9114 42.2239 21.8187C41.9847 21.7261 41.7661 21.5872 41.5805 21.4099C41.395 21.2327 41.2461 21.0206 41.1424 20.7858C41.0387 20.5509 40.9823 20.298 40.9762 20.0413Z" fill="#7F7D7D"/>
<path d="M39.3445 24.4689C39.3108 24.9563 39.0975 25.4138 38.7461 25.7528C38.3948 26.0919 37.9302 26.2883 37.4424 26.3042C36.9507 26.2796 36.4869 26.0678 36.1461 25.7121C35.8053 25.3564 35.6132 24.8838 35.6091 24.3909C35.642 23.9013 35.8625 23.4433 36.2246 23.1125C36.5867 22.7817 37.0624 22.6035 37.5525 22.6153C38.0269 22.6489 38.4721 22.8567 38.8029 23.1988C39.1336 23.5409 39.3265 23.9932 39.3445 24.4689Z" fill="#7F7D7D"/>
<path d="M23.1056 8.6534C23.5798 8.63927 24.041 8.80969 24.3923 9.12883C24.7435 9.44797 24.9576 9.89099 24.9894 10.3648C25.0041 10.6166 24.9676 10.8688 24.8821 11.1061C24.7965 11.3434 24.6637 11.5608 24.4918 11.7451C24.3198 11.9295 24.1122 12.077 23.8815 12.1786C23.6509 12.2803 23.4021 12.334 23.1501 12.3364C22.8981 12.3389 22.6482 12.2902 22.4157 12.1931C22.1831 12.096 21.9726 11.9527 21.797 11.7718C21.6214 11.5908 21.4844 11.3761 21.3942 11.1405C21.304 10.905 21.2625 10.6536 21.2723 10.4015C21.277 10.1659 21.3283 9.9336 21.4232 9.71796C21.5181 9.50233 21.6547 9.30763 21.8252 9.14511C21.9956 8.98259 22.1965 8.85548 22.4163 8.77108C22.636 8.68669 22.8703 8.64669 23.1056 8.6534Z" fill="#7F7D7D"/>
<path d="M20.0898 16.2604C20.0961 16.5031 20.053 16.7446 19.9631 16.9701C19.8732 17.1957 19.7384 17.4005 19.5668 17.5722C19.3953 17.7439 19.1907 17.8788 18.9654 17.9688C18.7401 18.0588 18.4989 18.102 18.2564 18.0957C17.7861 18.068 17.3435 17.8636 17.0171 17.5233C16.6908 17.1831 16.5049 16.732 16.4964 16.2604C16.5114 15.7679 16.7139 15.2998 17.0624 14.9518C17.4108 14.6038 17.879 14.4022 18.371 14.3884C18.8399 14.4276 19.277 14.6418 19.5954 14.9886C19.9138 15.3354 20.0903 15.7894 20.0898 16.2604Z" fill="#7F7D7D"/>
<path d="M34.3074 29.1257C34.7801 29.1399 35.2291 29.3364 35.5605 29.6741C35.8919 30.0118 36.0801 30.4647 36.0858 30.9381C36.0779 31.4321 35.8742 31.9028 35.5197 32.2465C35.1651 32.5903 34.6887 32.779 34.1951 32.771C33.7016 32.7631 33.2314 32.5593 32.888 32.2044C32.5446 31.8494 32.3562 31.3725 32.3641 30.8784C32.3746 30.6349 32.4334 30.3959 32.5372 30.1754C32.641 29.9549 32.7876 29.7572 32.9686 29.5941C33.1495 29.4309 33.361 29.3055 33.5909 29.2251C33.8208 29.1446 34.0644 29.1109 34.3074 29.1257Z" fill="#7F7D7D"/>
<path d="M52.8655 79.0959C52.87 79.3303 52.8284 79.5633 52.743 79.7816C52.6575 79.9999 52.53 80.1992 52.3676 80.3681C52.2053 80.537 52.0112 80.6723 51.7966 80.7661C51.5821 80.86 51.3511 80.9107 51.117 80.9152C50.8828 80.9197 50.6501 80.878 50.432 80.7925C50.214 80.707 50.0149 80.5793 49.8462 80.4168C49.6774 80.2542 49.5423 80.06 49.4485 79.8452C49.3548 79.6304 49.3042 79.3992 49.2996 79.1648C49.2951 78.9304 49.3368 78.6974 49.4222 78.4791C49.5076 78.2609 49.6352 78.0616 49.7975 77.8926C49.9599 77.7237 50.1539 77.5884 50.3685 77.4946C50.5831 77.4007 50.8141 77.3501 51.0482 77.3455C51.2823 77.341 51.5151 77.3827 51.7331 77.4682C51.9512 77.5538 52.1503 77.6814 52.319 77.844C52.4878 78.0065 52.6229 78.2007 52.7167 78.4155C52.8104 78.6304 52.861 78.8616 52.8655 79.0959Z" fill="#7F7D7D"/>
<path d="M45.3946 32.6357C45.3873 32.8708 45.3313 33.1019 45.2301 33.3142C45.1289 33.5265 44.9848 33.7154 44.8068 33.869C44.6288 34.0225 44.4209 34.1374 44.1962 34.2063C43.9716 34.2752 43.7351 34.2966 43.5017 34.2691C43.2864 34.2614 43.0747 34.2113 42.8788 34.1215C42.6829 34.0317 42.5066 33.904 42.3601 33.7459C42.2136 33.5877 42.0998 33.4022 42.0251 33.1998C41.9504 32.9975 41.9164 32.7824 41.925 32.5669C41.9303 32.342 41.9801 32.1203 42.0713 31.9146C42.1625 31.709 42.2935 31.5234 42.4567 31.3686C42.6198 31.2138 42.8119 31.0929 43.0219 31.0127C43.232 30.9325 43.4558 30.8947 43.6804 30.9014C44.1349 30.9121 44.5675 31.0988 44.8872 31.4222C45.2069 31.7457 45.3888 32.1807 45.3946 32.6357Z" fill="#7F7D7D"/>
<path d="M45.5138 26.5472C45.5194 26.7729 45.4793 26.9974 45.396 27.2072C45.3127 27.417 45.1879 27.6078 45.0291 27.7681C44.8702 27.9284 44.6806 28.0549 44.4717 28.14C44.2628 28.225 44.0389 28.2669 43.8133 28.2632C43.3695 28.2343 42.9537 28.0357 42.6521 27.7083C42.3505 27.381 42.1862 26.9501 42.1933 26.5049C42.2003 26.0597 42.3782 25.6342 42.69 25.3167C43.0019 24.9991 43.4238 24.8138 43.8684 24.7991C44.093 24.7993 44.3152 24.8455 44.5214 24.9347C44.7276 25.024 44.9134 25.1544 45.0675 25.3181C45.2215 25.4817 45.3406 25.6752 45.4173 25.8865C45.4941 26.0979 45.5269 26.3227 45.5138 26.5472Z" fill="#7F7D7D"/>
<path d="M45.5734 76.7834C45.7984 76.7679 46.0242 76.8014 46.235 76.8818C46.4459 76.9621 46.6368 77.0873 46.7945 77.2487C46.9523 77.4102 47.0732 77.604 47.1488 77.8167C47.2244 78.0295 47.253 78.2561 47.2326 78.481C47.244 78.706 47.2078 78.9308 47.1263 79.1407C47.0448 79.3506 46.9199 79.5409 46.7598 79.6991C46.5996 79.8572 46.4078 79.9797 46.197 80.0584C45.9863 80.1371 45.7612 80.1703 45.5367 80.1557C45.3119 80.1631 45.088 80.1235 44.8793 80.0396C44.6706 79.9557 44.4816 79.8293 44.3242 79.6684C44.1669 79.5074 44.0448 79.3155 43.9655 79.1048C43.8862 78.8941 43.8516 78.6692 43.8638 78.4443C43.8534 78.2191 43.8909 77.9943 43.9738 77.7846C44.0568 77.575 44.1832 77.3854 44.3449 77.2284C44.5065 77.0714 44.6996 76.9505 44.9114 76.8738C45.1232 76.7971 45.3488 76.7663 45.5734 76.7834Z" fill="#7F7D7D"/>
<path d="M46.0867 71.5483C46.0868 71.9849 45.9161 72.4043 45.6111 72.7164C45.3061 73.0286 44.8911 73.2088 44.455 73.2184C44.2307 73.25 44.0022 73.2314 43.786 73.1639C43.5697 73.0964 43.3711 72.9817 43.2045 72.8281C43.0379 72.6744 42.9074 72.4857 42.8225 72.2755C42.7376 72.0653 42.7003 71.8389 42.7133 71.6125C42.7005 71.176 42.8571 70.7515 43.1502 70.4281C43.4433 70.1048 43.8502 69.9076 44.2854 69.8782C44.7388 69.8843 45.1739 70.0584 45.5066 70.3668C45.8393 70.6753 46.0459 71.0962 46.0867 71.5483Z" fill="#7F7D7D"/>
<path d="M153.599 53.9206C153.599 53.3057 153.562 52.6909 153.599 52.0853C153.644 51.7079 153.77 51.345 153.97 51.022C154.17 50.6991 154.439 50.4239 154.756 50.2161C155.074 50.0083 155.434 49.8728 155.809 49.8192C156.185 49.7656 156.568 49.7952 156.931 49.9059C157.11 49.9701 157.266 50.0389 157.289 50.2592C157.3 50.313 157.3 50.3687 157.287 50.4224C157.275 50.476 157.251 50.5264 157.218 50.57C157.184 50.6136 157.142 50.6494 157.093 50.675C157.044 50.7005 156.991 50.7152 156.936 50.718C156.652 50.7685 156.363 50.773 156.074 50.8052C154.914 50.9428 154.484 51.4016 154.461 52.5625C154.461 53.5764 154.461 54.5904 154.461 55.6044C154.461 55.9715 154.63 56.5221 154.048 56.5542C153.338 56.5771 153.627 55.9348 153.59 55.5631C153.539 55.0263 153.59 54.4803 153.59 53.9343L153.599 53.9206Z" fill="#7F7D7D"/>
<path d="M42.6308 42.606C42.61 42.9759 42.4486 43.3237 42.1797 43.5782C41.9108 43.8326 41.5548 43.9744 41.1848 43.9744C40.8147 43.9744 40.4587 43.8326 40.1898 43.5782C39.9209 43.3237 39.7595 42.9759 39.7387 42.606C39.7323 42.409 39.7675 42.2128 39.8419 42.0303C39.9163 41.8478 40.0283 41.6829 40.1706 41.5466C40.3128 41.4103 40.4821 41.3054 40.6676 41.239C40.853 41.1725 41.0503 41.1458 41.2466 41.1608C41.4339 41.1593 41.6195 41.1961 41.7921 41.269C41.9646 41.3419 42.1205 41.4493 42.2501 41.5846C42.3797 41.7199 42.4803 41.8803 42.5458 42.056C42.6113 42.2316 42.6402 42.4188 42.6308 42.606Z" fill="#7F7D7D"/>
<path d="M42.3421 39.6879C41.959 39.6871 41.5908 39.5391 41.3136 39.2744C41.0363 39.0097 40.8713 38.6486 40.8525 38.2655C40.8714 37.8635 41.0453 37.4844 41.3377 37.2081C41.63 36.9317 42.0179 36.7795 42.42 36.7835C42.6119 36.7827 42.8018 36.8221 42.9776 36.8991C43.1534 36.9762 43.3111 37.0892 43.4406 37.231C43.5701 37.3727 43.6686 37.5401 43.7296 37.7222C43.7906 37.9043 43.8129 38.0972 43.795 38.2885C43.8042 38.4794 43.7725 38.6702 43.702 38.8478C43.6315 39.0255 43.5238 39.186 43.3861 39.3186C43.2485 39.4512 43.0841 39.5527 42.904 39.6164C42.724 39.6801 42.5323 39.7045 42.3421 39.6879Z" fill="#7F7D7D"/>
<path d="M42.42 76.2052C42.4342 76.3948 42.4062 76.5852 42.3383 76.7627C42.2703 76.9402 42.164 77.1004 42.0269 77.232C41.8898 77.3635 41.7253 77.4631 41.5452 77.5235C41.3652 77.584 41.174 77.6039 40.9854 77.5817C40.7965 77.5841 40.609 77.5488 40.4339 77.4779C40.2588 77.4069 40.0996 77.3017 39.9656 77.1684C39.8316 77.0351 39.7255 76.8764 39.6535 76.7016C39.5815 76.5267 39.545 76.3393 39.5462 76.1502C39.572 75.7687 39.7381 75.4104 40.0124 75.1443C40.2866 74.8783 40.6496 74.7233 41.0313 74.7095C41.4114 74.7296 41.7688 74.897 42.0279 75.1761C42.2871 75.4552 42.4277 75.8242 42.42 76.2052Z" fill="#7F7D7D"/>
<path d="M49.4738 63.8355C49.0934 63.8322 48.7289 63.6819 48.4565 63.416C48.184 63.1501 48.0247 62.7892 48.0117 62.4086C48.039 62.0279 48.2039 61.6703 48.4755 61.4026C48.7472 61.1349 49.107 60.9754 49.4876 60.9541C49.6769 60.9571 49.8638 60.9976 50.0374 61.0735C50.211 61.1494 50.3678 61.259 50.4987 61.396C50.6296 61.533 50.732 61.6947 50.8 61.8717C50.868 62.0487 50.9002 62.2374 50.8947 62.4269C50.9078 62.6165 50.8799 62.8066 50.8129 62.9844C50.746 63.1622 50.6415 63.3234 50.5066 63.4571C50.3718 63.5908 50.2097 63.6938 50.0315 63.7591C49.8532 63.8244 49.663 63.8505 49.4738 63.8355Z" fill="#7F7D7D"/>
<path d="M48.3142 66.6251C48.3268 66.8147 48.2977 67.0048 48.2289 67.1819C48.1601 67.359 48.0533 67.5188 47.916 67.6501C47.7788 67.7814 47.6144 67.8809 47.4345 67.9416C47.2547 68.0024 47.0637 68.0228 46.875 68.0016C46.4939 67.9958 46.1297 67.8426 45.8589 67.574C45.5881 67.3054 45.4315 66.9424 45.4221 66.5609C45.4722 66.1835 45.6486 65.8343 45.9224 65.5701C46.1963 65.306 46.5515 65.1425 46.93 65.1064C47.3105 65.1356 47.6656 65.309 47.9228 65.5912C48.18 65.8734 48.32 66.2432 48.3142 66.6251Z" fill="#7F7D7D"/>
<path d="M39.4316 72.6771C39.4353 72.8602 39.4028 73.0423 39.3361 73.2129C39.2694 73.3835 39.1698 73.5393 39.043 73.6714C38.9162 73.8035 38.7646 73.9092 38.5969 73.9827C38.4292 74.0561 38.2488 74.0958 38.0658 74.0994C37.8828 74.103 37.7009 74.0705 37.5305 74.0038C37.3601 73.937 37.2044 73.8373 37.0725 73.7103C36.9406 73.5834 36.8349 73.4316 36.7615 73.2638C36.6882 73.0959 36.6486 72.9153 36.6449 72.7321C36.6319 72.5403 36.6574 72.3478 36.7199 72.1659C36.7824 71.9841 36.8806 71.8166 37.0087 71.6734C37.1368 71.5301 37.2923 71.414 37.466 71.3319C37.6397 71.2497 37.828 71.2032 38.02 71.1951C38.4013 71.2105 38.7618 71.3738 39.0252 71.6503C39.2886 71.9268 39.4343 72.295 39.4316 72.6771Z" fill="#7F7D7D"/>
<path d="M40.88 65.68C40.876 65.9906 40.7543 66.2881 40.5395 66.5123C40.3246 66.7365 40.0328 66.8706 39.7229 66.8875C39.4131 66.9044 39.1084 66.8028 38.8705 66.6034C38.6326 66.4039 38.4793 66.1214 38.4416 65.8131C38.4213 65.6465 38.4353 65.4775 38.4829 65.3166C38.5304 65.1557 38.6105 65.0063 38.7182 64.8776C38.8258 64.749 38.9587 64.6438 39.1087 64.5687C39.2586 64.4936 39.4223 64.4502 39.5897 64.441C39.7571 64.4319 39.9246 64.4573 40.0818 64.5156C40.239 64.574 40.3825 64.664 40.5035 64.7802C40.6245 64.8964 40.7203 65.0362 40.7851 65.191C40.8498 65.3458 40.8821 65.5122 40.88 65.68Z" fill="#7F7D7D"/>
<path d="M51.3072 74.2646C51.3119 74.4271 51.282 74.5887 51.2193 74.7387C51.1567 74.8887 51.0628 75.0236 50.9439 75.1343C50.825 75.245 50.6839 75.3291 50.53 75.3809C50.3761 75.4327 50.2129 75.451 50.0513 75.4346C49.8219 75.4194 49.6019 75.3373 49.4186 75.1984C49.2352 75.0595 49.0964 74.87 49.0194 74.6531C48.9424 74.4362 48.9304 74.2015 48.985 73.9779C49.0397 73.7543 49.1584 73.5517 49.3268 73.3948C49.4951 73.238 49.7056 73.134 49.9323 73.0955C50.159 73.057 50.392 73.0857 50.6025 73.1782C50.8131 73.2707 50.992 73.4228 51.1172 73.6159C51.2424 73.8089 51.3085 74.0345 51.3072 74.2646Z" fill="#7F7D7D"/>
<path d="M37.1858 68.8137C37.1976 68.9664 37.1762 69.1198 37.1229 69.2633C37.0696 69.4068 36.9858 69.537 36.8772 69.6448C36.7686 69.7526 36.6379 69.8355 36.4941 69.8877C36.3503 69.9399 36.1969 69.9601 36.0445 69.947C35.901 69.9632 35.7557 69.9479 35.6187 69.9022C35.4817 69.8565 35.3563 69.7815 35.2512 69.6824C35.1461 69.5833 35.0638 69.4625 35.0101 69.3283C34.9563 69.1941 34.9324 69.0499 34.9399 68.9055C34.9188 68.7535 34.9307 68.5988 34.9749 68.4518C35.019 68.3049 35.0944 68.1693 35.1958 68.0542C35.2973 67.9392 35.4224 67.8474 35.5625 67.7853C35.7027 67.7232 35.8546 67.6921 36.0079 67.6942C36.1597 67.6861 36.3115 67.7091 36.4541 67.7617C36.5968 67.8143 36.7272 67.8955 36.8374 68.0003C36.9477 68.105 37.0354 68.2312 37.0953 68.3711C37.1552 68.5109 37.186 68.6616 37.1858 68.8137Z" fill="#7F7D7D"/>
<path d="M55.2122 67.116C55.1641 67.3829 55.0325 67.6276 54.8364 67.8148C54.6403 68.002 54.39 68.122 54.1214 68.1576C53.8348 68.125 53.5686 67.9928 53.3693 67.784C53.17 67.5753 53.0501 67.3032 53.0305 67.0151C53.0775 66.748 53.2081 66.5028 53.4033 66.3148C53.5985 66.1268 53.8484 66.0057 54.1168 65.969C54.4026 66.0066 54.667 66.1408 54.8662 66.3494C55.0655 66.558 55.1875 66.8285 55.2122 67.116Z" fill="#7F7D7D"/>
<path d="M43.7079 59.5822C43.4438 59.5881 43.1863 59.4986 42.9827 59.3301C42.779 59.1616 42.6427 58.9254 42.5988 58.6646C42.5945 58.3763 42.6971 58.0968 42.8867 57.8798C43.0763 57.6629 43.3395 57.524 43.6254 57.49C43.9136 57.4938 44.1898 57.6058 44.3995 57.8038C44.6091 58.0018 44.7369 58.2713 44.7575 58.559C44.7387 58.8289 44.6212 59.0823 44.4276 59.271C44.2341 59.4597 43.9779 59.5705 43.7079 59.5822Z" fill="#7F7D7D"/>
<path d="M41.7325 60.6926C42.3283 60.6559 42.6492 61.0597 42.7867 61.6332C42.9242 62.2067 42.2825 62.7435 41.7142 62.7344C41.4392 62.7382 41.1736 62.6343 40.9741 62.4448C40.7746 62.2554 40.657 61.9954 40.6462 61.7204C40.6439 61.5796 40.6709 61.44 40.7255 61.3103C40.7801 61.1806 40.8611 61.0637 40.9632 60.967C41.0654 60.8703 41.1866 60.796 41.319 60.7488C41.4515 60.7015 41.5923 60.6824 41.7325 60.6926Z" fill="#7F7D7D"/>
<path d="M52.1184 69.2175C52.3871 69.1944 52.6541 69.2775 52.8622 69.449C53.0704 69.6205 53.2032 69.8668 53.2322 70.1352C53.3376 70.6674 52.728 71.2317 52.1413 71.218C52.0023 71.2273 51.8628 71.208 51.7315 71.1612C51.6002 71.1143 51.48 71.041 51.3781 70.9457C51.2763 70.8504 51.1952 70.7352 51.1397 70.6072C51.0842 70.4792 51.0556 70.3412 51.0556 70.2017C51.0556 70.0622 51.0842 69.9241 51.1397 69.7962C51.1952 69.6682 51.2763 69.553 51.3781 69.4577C51.48 69.3624 51.6002 69.2891 51.7315 69.2422C51.8628 69.1954 52.0023 69.176 52.1413 69.1854L52.1184 69.2175Z" fill="#7F7D7D"/>
<path d="M35.522 63.8125C35.7691 63.8421 35.9994 63.9534 36.1762 64.1288C36.353 64.3041 36.4664 64.5335 36.4983 64.7806C36.499 64.9159 36.4723 65.0499 36.4198 65.1746C36.3673 65.2993 36.2901 65.412 36.1928 65.5059C36.0956 65.5998 35.9803 65.673 35.854 65.7211C35.7276 65.7691 35.5929 65.791 35.4578 65.7854C35.3409 65.7929 35.2237 65.7765 35.1133 65.7371C35.003 65.6977 34.9018 65.6361 34.816 65.5563C34.7302 65.4764 34.6616 65.3798 34.6143 65.2725C34.5671 65.1652 34.5422 65.0493 34.5412 64.932C34.5283 64.6547 34.6233 64.3831 34.8062 64.1744C34.9891 63.9656 35.2456 63.8359 35.522 63.8125Z" fill="#7F7D7D"/>
<path d="M36.5487 61.2477C36.5493 61.3647 36.5253 61.4805 36.4783 61.5876C36.4313 61.6947 36.3624 61.7907 36.276 61.8694C36.1896 61.9482 36.0876 62.0078 35.9766 62.0446C35.8657 62.0814 35.7483 62.0944 35.632 62.0828C35.5061 62.0972 35.3785 62.0837 35.2584 62.0433C35.1382 62.0029 35.0283 61.9367 34.9366 61.8491C34.8448 61.7616 34.7733 61.655 34.7271 61.5368C34.681 61.4187 34.6613 61.2918 34.6695 61.1652C34.6574 61.0313 34.6733 60.8963 34.7162 60.7689C34.7591 60.6415 34.828 60.5245 34.9185 60.4252C35.009 60.3259 35.1192 60.2466 35.2421 60.1923C35.3649 60.138 35.4977 60.11 35.632 60.1099C35.9035 60.1411 36.1518 60.2779 36.3233 60.4908C36.4948 60.7037 36.5758 60.9756 36.5487 61.2477Z" fill="#7F7D7D"/>
<path d="M36.2325 56.5999C36.4527 56.6 36.6649 56.6824 36.8276 56.8309C36.9904 56.9794 37.0919 57.1833 37.1125 57.4028C37.1265 57.6224 37.0543 57.8387 36.9114 58.0059C36.7684 58.173 36.5659 58.2776 36.347 58.2975C36.1147 58.3062 35.8882 58.223 35.7166 58.0659C35.5451 57.9088 35.4422 57.6903 35.4304 57.4578C35.4427 57.2435 35.5297 57.0402 35.6762 56.8835C35.8228 56.7267 36.0196 56.6263 36.2325 56.5999Z" fill="#7F7D7D"/>
<path d="M37.8595 54.5629C37.8577 54.6722 37.8335 54.78 37.7884 54.8796C37.7433 54.9792 37.6782 55.0684 37.5972 55.1418C37.5162 55.2152 37.421 55.2711 37.3175 55.3061C37.214 55.3411 37.1044 55.3545 36.9955 55.3454C36.8867 55.3362 36.7808 55.3048 36.6846 55.253C36.5884 55.2013 36.5038 55.1302 36.4361 55.0444C36.3684 54.9586 36.3191 54.8597 36.2911 54.754C36.2632 54.6483 36.2573 54.5379 36.2737 54.4298C36.3241 53.8884 36.6953 53.7049 37.1904 53.7416C37.6854 53.7783 37.8641 54.0765 37.8595 54.5629Z" fill="#7F7D7D"/>
<path d="M202.041 15.1916C201.472 15.5907 202.22 16.6093 201.023 16.6139C201.023 15.5862 201.023 14.5768 201.023 13.5719C201.009 13.4637 201.032 13.3538 201.087 13.2599C201.546 12.8011 202.1 13.0122 202.618 13.003C202.854 12.963 203.096 13.0004 203.308 13.1095C203.52 13.2187 203.692 13.3938 203.796 13.6086C203.89 13.8365 203.89 14.0919 203.798 14.3201C203.705 14.5483 203.527 14.7311 203.301 14.8291C203.701 15.3094 203.932 15.9071 203.961 16.5313C203.342 16.825 203.104 16.49 202.999 15.944C202.893 15.398 202.522 15.0998 202.041 15.1916ZM201.99 14.6318C202.403 14.6318 202.815 14.6685 202.985 14.1959C203.006 14.1457 203.016 14.0918 203.016 14.0374C203.016 13.9831 203.005 13.9293 202.983 13.8793C202.962 13.8293 202.931 13.784 202.892 13.7462C202.853 13.7084 202.806 13.6788 202.756 13.6591C202.617 13.5699 202.453 13.5275 202.288 13.5382C202.123 13.549 201.966 13.6122 201.839 13.7188C201.795 13.8703 201.785 14.0301 201.811 14.1859C201.837 14.3417 201.899 14.4895 201.99 14.6181V14.6318Z" fill="#7F7D7D"/>
</svg>
