<svg width="36" height="36" viewBox="0 0 36 36" fill="none" xmlns="http://www.w3.org/2000/svg">
<path d="M18.0629 28.9328L8.89717 14.3239L14.278 30.4055C7.9633 29.1726 1.79679 22.4014 0.981507 12.7925C0.669494 8.47335 1.91042 4.1841 4.48475 0.683624C9.08987 4.25025 19.9307 9.00085 20.7262 18.4629C21.0918 22.8906 19.7133 25.924 18.0629 28.9328Z" fill="#3A493D"/>
<path d="M23.3499 29.6129L30.1686 21.4033L25.5586 30.8262C29.5115 30.5767 33.8646 26.9123 35.1542 21.1049C35.7 18.4822 35.2923 15.753 34.0029 13.3992C30.89 15.2143 23.8588 17.2398 22.589 22.9836C21.9911 25.6696 22.5791 27.6363 23.3499 29.6129Z" fill="#3A493D"/>
<path d="M19.6737 35.4349C21.0627 35.4349 22.1887 34.32 22.1887 32.9447C22.1887 31.5693 21.0627 30.4544 19.6737 30.4544C18.2847 30.4544 17.1587 31.5693 17.1587 32.9447C17.1587 34.32 18.2847 35.4349 19.6737 35.4349Z" fill="#7EA874"/>
</svg>
