<svg width="86" height="81" viewBox="0 0 86 81" fill="none" xmlns="http://www.w3.org/2000/svg">
<g clip-path="url(#clip0_10_24)">
<path d="M4.0863 24.2227L14.7047 32.9509L13.7165 36.3071L0.0148315 37.8825L1.1167 34.1985L10.0107 33.2542L3.09314 27.5936L4.0863 24.2227Z" fill="#3A493D"/>
<path d="M18.5489 18.6893L14.4231 24.482C15.4113 24.8196 16.3699 24.482 17.1061 23.4399C17.358 23.1127 17.5419 22.7392 17.6471 22.3412C17.7522 21.9431 17.7766 21.5283 17.7188 21.1209L20.308 20.7393C20.6193 22.0994 20.2635 23.5231 19.1863 25.03C17.1605 27.8578 14.0921 28.4547 11.7006 26.7717C9.30906 25.0887 8.90389 22.0162 10.7123 19.5112C12.3923 17.1726 15.2582 16.3262 17.9066 18.1854C18.0993 18.3028 18.3414 18.523 18.5489 18.6893ZM12.9111 23.4644L15.2384 20.2158C14.8043 20.0098 14.3107 19.9624 13.8447 20.0819C13.3788 20.2014 12.9705 20.4801 12.692 20.8689C12.4135 21.2576 12.2827 21.7313 12.3228 22.2062C12.3629 22.6812 12.5713 23.1268 12.9111 23.4644Z" fill="#3A493D"/>
<path d="M21.3456 8.95816L23.322 11.3408C23.1004 11.4741 22.8875 11.6212 22.6846 11.7811C21.6025 12.6569 21.3011 13.7968 22.3881 15.1227L25.2342 18.5866L22.5611 20.7393L16.3649 13.1902L18.9096 11.1451L19.6557 12.0502C19.6211 10.9249 20.2239 9.86327 21.3456 8.95816Z" fill="#3A493D"/>
<path d="M32.2012 0.0195618L37.424 12.2508L34.4 13.5082L34.0196 12.6177C33.7231 13.5962 32.977 14.2812 31.806 14.7655C29.3354 15.7978 26.5881 14.8389 25.3825 11.9817C24.1769 9.12448 25.4072 6.53635 27.8778 5.50893C28.3258 5.28926 28.8154 5.16489 29.3149 5.14382C29.8144 5.12276 30.3129 5.20546 30.7782 5.38662L29.0389 1.30139L32.2012 0.0195618ZM32.3841 9.09513C31.8109 7.73501 30.6695 7.31915 29.5973 7.76437C28.5251 8.20959 28.0161 9.32018 28.6091 10.6999C29.202 12.0795 30.3434 12.5052 31.4304 12.0551C32.5175 11.605 32.9721 10.4454 32.3841 9.07555V9.09513Z" fill="#3A493D"/>
<path d="M48.1956 7.54422L41.0656 7.96008C41.4164 8.93858 42.3008 9.45229 43.5658 9.37401C43.9812 9.36514 44.3907 9.274 44.77 9.10595C45.1494 8.9379 45.4909 8.69633 45.7744 8.39551L47.6965 10.1568C46.817 11.2478 45.473 11.8643 43.6102 11.9768C40.1218 12.1774 37.7352 10.1764 37.5623 7.28002C37.3894 4.38367 39.5635 2.14781 42.6516 1.96679C45.5471 1.80044 48.0078 3.48835 48.2005 6.69293C48.2302 6.94734 48.1956 7.27514 48.1956 7.54422ZM40.9074 6.16944L44.9246 5.93459C44.8107 5.4744 44.5374 5.06832 44.1524 4.78699C43.7673 4.50565 43.2949 4.36688 42.8172 4.3948C42.3395 4.42273 41.8868 4.61559 41.5379 4.93983C41.189 5.26407 40.9659 5.69917 40.9074 6.16944Z" fill="#3A493D"/>
<path d="M70.7567 6.49724L60.4298 15.563L57.2378 14.0708L57.7319 0.425659L61.2401 2.05975L60.825 10.9152L67.5301 5.00013L70.7567 6.49724Z" fill="#719D66"/>
<path d="M71.2557 11.0374L73.8597 13.2635L67.4362 20.6316L64.8273 18.4055L71.2557 11.0374ZM72.8715 8.5912C73.5484 7.81819 74.6997 7.75948 75.6582 8.5912C76.6168 9.42293 76.7651 10.5091 76.0881 11.2821C75.4112 12.0551 74.2303 12.1578 73.2667 11.3359C72.3032 10.514 72.1945 9.37889 72.8715 8.60588V8.5912Z" fill="#719D66"/>
<path d="M85.6393 22.2021L74.591 29.7855L72.7232 27.1191L73.5286 26.5662C72.5404 26.4732 71.6707 25.8959 70.9493 24.8636C69.4225 22.6816 69.7981 19.8244 72.3773 18.0582C74.9566 16.292 77.7582 16.9622 79.2949 19.1443C79.6041 19.533 79.8275 19.9816 79.9509 20.4611C80.0743 20.9405 80.0949 21.4403 80.0114 21.9281L83.6875 19.4036L85.6393 22.2021ZM76.7107 24.2472C77.9311 23.4106 78.109 22.2168 77.4518 21.2774C76.7947 20.3381 75.5891 20.0641 74.3686 20.9007C73.1481 21.7373 72.9406 22.9555 73.6077 23.9096C74.2747 24.8636 75.4754 25.0985 76.7107 24.2472Z" fill="#719D66"/>
<path d="M85.6986 32.1388C85.3191 30.6786 84.5414 29.35 83.4504 28.2982L81.4739 30.0203C82.2164 30.6173 82.7505 31.4302 83.0007 32.3442C83.3614 33.6456 83.0007 34.4333 82.0471 34.7464L81.5283 32.8726C80.7229 29.9371 79.29 28.9929 77.5359 29.4479C75.8905 29.8931 74.9616 31.4881 75.5841 33.7386C75.9597 35.1085 76.6959 35.9158 77.7335 36.1359L76.5081 36.4686L77.358 39.5362L82.6252 38.1076C85.6591 37.3101 86.5435 35.1917 85.6986 32.1388ZM78.8799 35.3874C77.7088 34.6535 77.2493 33.4304 77.5112 32.5693L79.206 34.2963L77.946 32.1926C78.474 32.1485 79.0024 32.2737 79.453 32.5497C80.6092 33.2738 80.4956 34.9373 80.6488 35.7445C80.035 35.8355 79.4086 35.7091 78.8799 35.3874Z" fill="#719D66"/>
<path d="M13.1137 51.3907L11.582 51.7772L12.1255 53.8369L11.5177 53.9886L10.989 51.9386L8.6667 52.5013L8.474 51.7527L13.5633 50.4758L14.349 53.5434L13.6819 53.7097L13.1137 51.3907Z" fill="#637565"/>
<path d="M9.97117 56.1706C10.0568 55.8696 10.2284 55.5995 10.4653 55.3927C11.0092 54.9106 11.7117 54.641 12.4417 54.6344C12.7554 54.6358 13.0622 54.7258 13.3262 54.8937C13.5907 55.068 13.7916 55.3218 13.8994 55.6178C14.019 55.8838 14.0451 56.1818 13.9735 56.4642C13.9076 56.6977 13.7894 56.9134 13.6276 57.0953V57.1393L14.2699 56.8947L14.5516 57.6139L10.8705 59.0327L10.5839 58.3135L11.3003 58.0396V57.9906C11.0477 57.9692 10.8039 57.8888 10.5888 57.7558C10.3405 57.5942 10.1543 57.3547 10.0601 57.0757C9.93444 56.791 9.9033 56.4741 9.97117 56.1706ZM11.4189 57.6873C11.7662 57.7498 12.1242 57.7157 12.4531 57.5888C12.782 57.4618 13.0688 57.2469 13.2817 56.9681C13.3639 56.8349 13.4139 56.6846 13.4277 56.5291C13.4416 56.3735 13.4189 56.2169 13.3615 56.0715C13.3041 55.9261 13.2135 55.7958 13.0968 55.6907C12.9801 55.5857 12.8405 55.5089 12.6888 55.4661C12.3457 55.3954 11.989 55.4295 11.666 55.564C11.3294 55.6804 11.0364 55.8954 10.826 56.1804C10.7417 56.3136 10.6901 56.4644 10.6752 56.6208C10.6603 56.7772 10.6825 56.9349 10.7402 57.0813C10.7978 57.2277 10.8891 57.3588 11.007 57.464C11.1248 57.5692 11.2659 57.6457 11.4189 57.6873Z" fill="#637565"/>
<path d="M15.0061 58.475L15.3619 59.1551L14.8035 59.4437L14.8282 59.4829C15.019 59.4596 15.2123 59.4955 15.3816 59.5856C15.5872 59.6929 15.7507 59.8651 15.8461 60.0748C15.8771 60.1256 15.902 60.1798 15.9202 60.2363C15.941 60.2829 15.9544 60.3324 15.9597 60.3831L15.2927 60.6962C15.266 60.5582 15.2194 60.4248 15.1543 60.2999C15.1039 60.1857 15.0299 60.0832 14.9372 59.999C14.8445 59.9147 14.735 59.8506 14.6158 59.8107C14.3214 59.758 14.0179 59.8174 13.7659 59.977L11.8586 60.9555L11.5029 60.2754L15.0061 58.475Z" fill="#637565"/>
<path d="M16.1871 60.9017L16.6417 61.523L16.0784 61.9242L16.113 61.9731C16.2145 61.9465 16.3192 61.9333 16.4243 61.934C16.6029 61.9333 16.7797 61.97 16.9431 62.0416C17.1564 62.1314 17.3385 62.281 17.4668 62.4721C17.622 62.6668 17.7119 62.9045 17.7238 63.1522C17.7319 63.3489 17.7 63.5453 17.6299 63.7295C17.5951 63.8289 17.5433 63.9216 17.4767 64.0035L17.5113 64.0524C17.6266 64.0267 17.744 64.012 17.8621 64.0084C18.0593 64.0032 18.2551 64.0416 18.4353 64.1209C18.6752 64.2239 18.8795 64.3939 19.0233 64.6102C19.2037 64.8353 19.2998 65.1154 19.2951 65.4027C19.2834 65.6646 19.1997 65.9184 19.0529 66.1366C18.9068 66.3604 18.719 66.5547 18.4995 66.709L16.5725 68.0887L16.1229 67.4674L17.9955 66.1219C18.1195 66.0505 18.2274 65.9545 18.3124 65.8401C18.3974 65.7256 18.4577 65.5951 18.4897 65.4566C18.5101 65.3379 18.5057 65.2163 18.4768 65.0993C18.4479 64.9823 18.3951 64.8725 18.3217 64.7765C18.2495 64.6734 18.1573 64.5857 18.0504 64.5185C17.9434 64.4512 17.824 64.4059 17.6991 64.3851C17.5591 64.366 17.4166 64.3757 17.2806 64.4136C17.1446 64.4515 17.0179 64.5167 16.9085 64.6053L15.0309 65.9507L14.5812 65.3343L16.4539 63.9888C16.5774 63.9167 16.6848 63.8205 16.7697 63.7061C16.8546 63.5918 16.9153 63.4616 16.948 63.3234C16.9688 63.2047 16.9646 63.0831 16.9356 62.9661C16.9067 62.8491 16.8538 62.7392 16.78 62.6434C16.7082 62.539 16.6154 62.4503 16.5074 62.383C16.3995 62.3156 16.2786 62.271 16.1525 62.252C16.0133 62.2333 15.8717 62.2432 15.7365 62.2811C15.6014 62.319 15.4755 62.384 15.3669 62.4721L13.4892 63.8176L13.0347 63.1962L16.1871 60.9017Z" fill="#637565"/>
<path d="M18.2278 69.4391C18.174 69.1333 18.2118 68.8187 18.3365 68.5339C18.474 68.2036 18.6774 67.9041 18.9343 67.6533C19.1851 67.3907 19.4857 67.1796 19.8188 67.0319C20.1058 66.9066 20.4222 66.8626 20.7329 66.9047C21.047 66.9553 21.3363 67.1045 21.5581 67.3304C21.7783 67.5226 21.9264 67.783 21.9781 68.0691C22.0156 68.3082 21.997 68.5526 21.9237 68.7834L21.9632 68.8226L22.4574 68.3333L23.0157 68.8715L20.2635 71.6749L19.7002 71.1367L20.2339 70.5937L20.1993 70.5545C19.9601 70.6377 19.7046 70.6645 19.4532 70.6328C19.1601 70.5865 18.8908 70.4454 18.6873 70.2316C18.4528 70.0226 18.2919 69.7449 18.2278 69.4391ZM20.2042 70.2267C20.5453 70.139 20.8555 69.9603 21.1012 69.7102C21.3469 69.46 21.5186 69.148 21.5976 68.8079C21.6259 68.6523 21.6131 68.4921 21.5602 68.3429C21.5074 68.1937 21.4164 68.0606 21.2962 67.9566C21.1867 67.8415 21.0494 67.7559 20.8973 67.708C20.7451 67.66 20.5831 67.6513 20.4266 67.6826C20.0879 67.7554 19.7785 67.9256 19.5372 68.1719C19.2856 68.4185 19.1137 68.7335 19.043 69.077C19.0133 69.2333 19.0255 69.3947 19.0784 69.5449C19.1313 69.6951 19.223 69.829 19.3445 69.9332C19.4482 70.0468 19.5788 70.133 19.7246 70.1843C19.8703 70.2355 20.0267 70.2501 20.1795 70.2267H20.2042ZM21.9089 67.0368L23.3912 66.5721L23.9644 67.1249L22.3437 67.4674L21.9089 67.0368Z" fill="#637565"/>
<path d="M22.0521 72.8295C21.9428 72.5144 21.9274 72.1747 22.0077 71.851C22.088 71.5184 22.2359 71.2055 22.4423 70.9313C22.6487 70.6571 22.9094 70.4273 23.2084 70.2561C23.4992 70.0905 23.8318 70.0107 24.1669 70.0261C24.5291 70.0494 24.8747 70.1846 25.1552 70.4127C25.3421 70.5346 25.5019 70.6929 25.6251 70.8779C25.7483 71.0629 25.8322 71.2709 25.8716 71.489C25.9327 71.903 25.8508 72.3254 25.6394 72.6877L25.0316 72.2375C25.1542 72.0222 25.2028 71.7732 25.17 71.5281C25.1493 71.4064 25.1035 71.2901 25.0355 71.1866C24.9675 71.083 24.8788 70.9945 24.7747 70.9264C24.6515 70.8216 24.5027 70.7507 24.3432 70.7207C24.1837 70.6906 24.019 70.7025 23.8655 70.7551C23.5397 70.8904 23.2564 71.1098 23.0453 71.3903C22.8341 71.6708 22.7027 72.0022 22.6648 72.3501C22.659 72.5102 22.695 72.6692 22.7694 72.8115C22.8439 72.9538 22.9543 73.0746 23.0898 73.1622C23.1846 73.2417 23.295 73.301 23.414 73.3363C23.5331 73.3717 23.6582 73.3824 23.7815 73.3677C24.0274 73.3306 24.2545 73.2155 24.4288 73.0399L25.0316 73.49C24.7411 73.792 24.3565 73.9884 23.9397 74.0478C23.7175 74.072 23.4927 74.0515 23.2788 73.9876C23.0648 73.9237 22.8661 73.8177 22.6945 73.6759C22.3969 73.4666 22.1724 73.1708 22.0521 72.8295Z" fill="#637565"/>
<path d="M27.2551 71.9391L27.9123 72.3403L25.8469 75.6721L25.1898 75.2758L27.2551 71.9391ZM27.7492 71.2395C27.7247 71.1185 27.7472 70.9928 27.8122 70.8876C27.8773 70.7823 27.9801 70.7053 28.1001 70.672C28.2235 70.6452 28.3525 70.6662 28.4608 70.7307C28.5155 70.7615 28.5629 70.8036 28.5996 70.8543C28.6363 70.905 28.6614 70.963 28.6732 71.0242C28.6883 71.083 28.6909 71.1443 28.6807 71.2041C28.6704 71.2639 28.6477 71.321 28.6139 71.3716C28.5835 71.4249 28.5423 71.4715 28.4931 71.5085C28.4438 71.5455 28.3874 71.5722 28.3274 71.5869C28.204 71.6137 28.0749 71.5927 27.9667 71.5282C27.9122 71.4999 27.864 71.461 27.825 71.414C27.7859 71.3669 27.7568 71.3126 27.7394 71.2542L27.7492 71.2395Z" fill="#637565"/>
<path d="M27.6603 76.4842C27.5132 76.2114 27.4497 75.9019 27.4775 75.5938C27.5413 74.8724 27.8721 74.1998 28.4064 73.7053C28.6396 73.4961 28.9271 73.3554 29.2365 73.2992C29.5493 73.2502 29.8696 73.3017 30.1506 73.446C30.4218 73.5609 30.6462 73.7624 30.7881 74.0184C30.8978 74.2344 30.9585 74.4715 30.9659 74.7132L31.0104 74.7376L31.3118 74.1212L32.0134 74.4587L30.2841 77.9813L29.5824 77.6438L29.9184 76.9588H29.8739C29.6707 77.1093 29.436 77.2129 29.1871 77.2621C28.8936 77.3104 28.5923 77.2587 28.3323 77.1154C28.046 76.9815 27.8105 76.7603 27.6603 76.4842ZM29.7652 76.6261C30.0608 76.4361 30.2985 76.1699 30.4526 75.8561C30.6067 75.5423 30.6715 75.1928 30.6398 74.8453C30.6153 74.6892 30.5512 74.5418 30.4536 74.4169C30.356 74.2919 30.2279 74.1936 30.0815 74.131C29.9426 74.0538 29.7861 74.0133 29.6269 74.0133C29.4677 74.0133 29.3112 74.0538 29.1723 74.131C28.8704 74.3082 28.6306 74.5729 28.4855 74.8893C28.3206 75.202 28.2535 75.5563 28.2928 75.9069C28.3223 76.0628 28.3883 76.2097 28.4857 76.3357C28.583 76.4617 28.7088 76.5633 28.853 76.6323C28.9973 76.7013 29.1558 76.7358 29.316 76.7331C29.4762 76.7303 29.6334 76.6903 29.7751 76.6163L29.7652 76.6261Z" fill="#637565"/>
<path d="M34.069 79.1115C33.8752 78.8693 33.7552 78.5774 33.7231 78.27C33.6579 77.5511 33.8541 76.8328 34.2765 76.2445C34.4631 75.994 34.7187 75.802 35.0127 75.6917C35.3112 75.5827 35.6377 75.5741 35.9416 75.6672C36.2289 75.7273 36.4869 75.8826 36.6729 76.1075C36.8222 76.2994 36.9268 76.5216 36.9793 76.7582H37.0287L37.6463 74.5028L38.4072 74.7034L36.9249 80.0851L36.164 79.8796L36.3616 79.1506H36.3122C36.143 79.3365 35.9336 79.482 35.6995 79.5763C35.4209 79.6706 35.1184 79.6706 34.8398 79.5763C34.5403 79.5044 34.2709 79.342 34.069 79.1115ZM36.1541 78.862C36.4101 78.6234 36.5944 78.3193 36.6869 77.9835C36.7793 77.6476 36.7762 77.293 36.6779 76.9588C36.6195 76.8135 36.5279 76.6836 36.4104 76.5792C36.2928 76.4748 36.1524 76.3987 36.0002 76.357C35.848 76.3153 35.6882 76.3091 35.5331 76.3388C35.3781 76.3685 35.2321 76.4334 35.1066 76.5283C34.8458 76.7624 34.6631 77.0695 34.5828 77.4089C34.4787 77.7453 34.4787 78.1049 34.5828 78.4412C34.6356 78.5901 34.726 78.723 34.8454 78.8275C34.9647 78.932 35.1091 79.0045 35.2647 79.0381C35.4157 79.087 35.5769 79.0964 35.7327 79.0655C35.8885 79.0347 36.0337 78.9646 36.1541 78.862Z" fill="#637565"/>
<path d="M39.0644 80.2221C38.8158 80.0007 38.6359 79.714 38.5456 79.3953C38.4547 79.0672 38.4329 78.7242 38.4813 78.3874C38.5188 78.0414 38.6318 77.7075 38.8124 77.4089C38.9837 77.1234 39.234 76.8925 39.5338 76.7436C39.8656 76.5864 40.238 76.5335 40.6011 76.5919C40.841 76.6142 41.0733 76.6873 41.2822 76.8063C41.4911 76.9254 41.6717 77.0875 41.8117 77.2817C42.0963 77.7518 42.1932 78.3102 42.0834 78.8473L42.0538 79.0626L39.1978 78.6859V78.7397C39.1725 78.9308 39.1928 79.1252 39.2571 79.3072C39.3216 79.4884 39.4342 79.649 39.5832 79.772C39.7358 79.9035 39.9256 79.9855 40.1267 80.0068C40.339 80.0401 40.5564 80.0076 40.7493 79.9139C40.9323 79.82 41.0822 79.6732 41.1792 79.4931L41.9352 79.591C41.7938 79.9336 41.5464 80.223 41.2286 80.4178C40.8757 80.6229 40.4608 80.6975 40.0576 80.6282C39.6919 80.5984 39.3447 80.4564 39.0644 80.2221ZM41.3719 78.4608C41.4266 78.1471 41.3614 77.8245 41.1891 77.5557C41.1059 77.453 41.0026 77.3681 40.8854 77.3059C40.7682 77.2436 40.6396 77.2055 40.5072 77.1937C40.3667 77.1686 40.2224 77.174 40.0842 77.2095C39.946 77.245 39.8173 77.3097 39.7067 77.3991C39.4736 77.6009 39.3254 77.882 39.2917 78.1868L41.3719 78.4608Z" fill="#637565"/>
<path d="M44.7022 75.814L45.8486 75.7357L47.5433 79.3463L48.6996 75.5351L49.8459 75.4568L50.2165 80.6379L49.4506 80.6918L49.164 76.6555H49.1344L47.9041 80.7945L47.3655 80.8336L45.557 76.9197H45.5274L45.8189 80.956L45.053 81.0098L44.7022 75.814Z" fill="#637565"/>
<path d="M52.2572 80.0215C51.9675 79.9031 51.7198 79.7022 51.5456 79.4442C51.3403 79.1489 51.1959 78.8164 51.1207 78.4657C51.0302 78.1158 51.0117 77.7514 51.0664 77.3942C51.1111 77.086 51.245 76.7972 51.4518 76.5625C51.6635 76.3277 51.9458 76.1664 52.2572 76.1026C52.5395 76.0225 52.8409 76.0397 53.112 76.1515C53.336 76.2484 53.534 76.3959 53.6901 76.5821H53.7444L53.5863 75.9167L54.3473 75.7406L55.2465 79.5518L54.4856 79.728L54.3127 78.9892H54.2633C54.1999 79.2305 54.0853 79.4556 53.9273 79.6497C53.7304 79.8703 53.464 80.0185 53.1713 80.0704C52.869 80.15 52.549 80.1329 52.2572 80.0215ZM53.9767 78.818C54.1017 78.4889 54.1173 78.1289 54.0212 77.7905C53.9537 77.4473 53.7812 77.133 53.527 76.8903C53.4092 76.7847 53.2663 76.7105 53.1116 76.6746C52.9569 76.6387 52.7955 76.6422 52.6426 76.6848C52.4857 76.7123 52.3387 76.7794 52.2157 76.8797C52.0928 76.98 51.9981 77.11 51.9409 77.2572C51.8362 77.5891 51.8226 77.9427 51.9016 78.2815C51.9807 78.6203 52.1494 78.9321 52.3906 79.1849C52.5117 79.2865 52.6552 79.3586 52.8095 79.3954C52.9638 79.4323 53.1246 79.433 53.2792 79.3973C53.4338 79.3617 53.5778 79.2907 53.6998 79.1901C53.8218 79.0895 53.9183 78.9621 53.9816 78.818H53.9767Z" fill="#637565"/>
<path d="M55.2663 75.4519L55.9976 75.173L56.2347 75.7993L56.2941 75.7748C56.3072 75.5329 56.3876 75.2993 56.5263 75.0997C56.7039 74.8732 56.9419 74.7005 57.2135 74.6011C57.4851 74.5017 57.7793 74.4795 58.063 74.537C58.3211 74.6071 58.554 74.7479 58.7349 74.9431C58.9212 75.143 59.0656 75.3775 59.1599 75.6329L60.0147 77.8394L59.2933 78.1134L58.483 76.0145C58.3871 75.7368 58.1897 75.5046 57.9296 75.3639C57.8069 75.312 57.675 75.2853 57.5417 75.2853C57.4084 75.2853 57.2764 75.312 57.1538 75.3639C57.0208 75.4061 56.899 75.4772 56.7973 75.572C56.6956 75.6668 56.6165 75.7829 56.5658 75.9118C56.4674 76.1859 56.478 76.4867 56.5955 76.7533L57.4107 78.8522L56.6795 79.1311L55.2663 75.4519Z" fill="#637565"/>
<path d="M59.1451 72.947C59.0623 72.9111 58.991 72.8534 58.9389 72.7802C58.8869 72.707 58.8562 72.6211 58.8501 72.5318C58.844 72.4425 58.8627 72.3532 58.9043 72.2738C58.9458 72.1943 59.0086 72.1276 59.0858 72.081C59.1416 72.0517 59.203 72.0344 59.266 72.0302C59.329 72.026 59.3922 72.035 59.4514 72.0565C59.5108 72.0747 59.5656 72.105 59.6125 72.1454C59.6593 72.1859 59.697 72.2356 59.7232 72.2914C59.7754 72.4017 59.7842 72.5273 59.7479 72.6436C59.7296 72.703 59.6991 72.758 59.6583 72.8052C59.6174 72.8523 59.5672 72.8906 59.5107 72.9176C59.3972 72.9735 59.2663 72.984 59.1451 72.947ZM59.486 73.7249L60.1778 73.3824L61.9418 76.8854L61.25 77.2279L59.486 73.7249Z" fill="#637565"/>
<path d="M64.2542 75.3932C64.0007 75.3719 63.7556 75.2932 63.5377 75.1633L63.4982 75.1926L64.7187 77.1203L64.0516 77.5361L61.1364 72.9323L61.8034 72.5164L62.169 73.0986L62.2135 73.0693C62.1908 72.8284 62.2247 72.5856 62.3123 72.3599C62.4235 72.0887 62.626 71.864 62.8855 71.7238C63.1495 71.5496 63.463 71.4639 63.7799 71.4792C64.0928 71.5017 64.3927 71.612 64.6445 71.7972C64.9375 72.0109 65.1845 72.2804 65.3709 72.5898C65.565 72.8883 65.7008 73.2202 65.7711 73.5683C65.8304 73.8706 65.7995 74.1834 65.6822 74.4685C65.5595 74.7542 65.3484 74.994 65.0794 75.1535C64.8387 75.3217 64.5485 75.406 64.2542 75.3932ZM64.9954 73.9891C64.9955 73.6405 64.8905 73.2998 64.694 73.0106C64.5179 72.7105 64.2544 72.47 63.938 72.3207C63.7887 72.2571 63.6252 72.2335 63.4639 72.2524C63.3025 72.2713 63.149 72.332 63.0189 72.4284C62.8772 72.504 62.7575 72.6144 62.671 72.7488C62.5845 72.8832 62.5342 73.0374 62.5248 73.1965C62.5285 73.5453 62.6297 73.8863 62.8173 74.1817C63.0048 74.477 63.2713 74.7152 63.5871 74.8697C63.733 74.9325 63.8926 74.9573 64.0508 74.9419C64.209 74.9265 64.3607 74.8713 64.4914 74.7817C64.6404 74.7076 64.7661 74.5946 64.8549 74.4549C64.9438 74.3152 64.9923 74.1541 64.9954 73.9891Z" fill="#637565"/>
<path d="M70.1835 71.2639L69.5856 71.7532L69.1311 71.2101L69.0866 71.2444C69.1509 71.4782 69.1509 71.7248 69.0866 71.9587C69.0143 72.2206 68.8583 72.4523 68.6419 72.6192C68.4241 72.8164 68.1456 72.9353 67.8513 72.9567C67.5871 72.9687 67.3249 72.9059 67.0953 72.7757C66.8591 72.6417 66.6498 72.466 66.4777 72.2571L64.9954 70.4714L65.5883 69.9821L67.0212 71.6847C67.1968 71.9224 67.4559 72.0865 67.7476 72.1446C67.8733 72.1607 68.001 72.1508 68.1227 72.1154C68.2443 72.08 68.3572 72.02 68.4541 71.9391C68.5635 71.8583 68.6526 71.7536 68.7143 71.6331C68.776 71.5125 68.8087 71.3795 68.8099 71.2444C68.8027 70.9582 68.6923 70.6839 68.4986 70.4714L67.0657 68.7639L67.6636 68.2746L70.1835 71.2639Z" fill="#637565"/>
<path d="M71.315 69.9821C71.2326 70.0052 71.1463 70.0115 71.0613 70.0005C70.9764 69.9896 70.8946 69.9617 70.8209 69.9185C70.6391 69.8146 70.4728 69.6862 70.3268 69.5369L67.1151 66.4106L67.6536 65.8626L70.7764 68.8911C70.8717 68.9899 70.9759 69.08 71.0877 69.1602C71.1641 69.2078 71.2558 69.2252 71.3446 69.2091C71.4733 69.1698 71.5881 69.0952 71.6757 68.9938C71.7346 68.9338 71.7876 68.8682 71.8338 68.7981L72.234 69.1846C72.1291 69.3238 72.0152 69.4562 71.8931 69.5809C71.7376 69.7608 71.5388 69.8988 71.315 69.9821Z" fill="#637565"/>
<path d="M73.2321 67.8098C72.9322 67.8977 72.613 67.8977 72.3131 67.8098C71.9698 67.7079 71.6495 67.5418 71.3693 67.3206C71.0797 67.0997 70.8377 66.8236 70.6578 66.5084C70.4901 66.228 70.411 65.9042 70.4305 65.5789C70.4539 65.265 70.5747 64.966 70.7764 64.7227C70.949 64.487 71.1958 64.3149 71.478 64.2334C71.7171 64.1799 71.9653 64.1799 72.2044 64.2334L72.234 64.1943L71.6955 63.7687L72.1896 63.1669L75.2827 65.6131L74.7886 66.2149L74.1907 65.7256L74.1561 65.7648C74.2603 65.9921 74.3126 66.2393 74.3093 66.4889C74.2925 66.784 74.1759 67.0649 73.9782 67.2864C73.7915 67.5343 73.5304 67.7176 73.2321 67.8098ZM73.83 65.8088C73.7187 65.4749 73.5066 65.1829 73.2223 64.9722C72.954 64.7447 72.6205 64.6061 72.2686 64.5759C72.1106 64.5718 71.9538 64.6041 71.8105 64.6701C71.6672 64.7361 71.5413 64.8341 71.4427 64.9564C71.344 65.0787 71.2754 65.222 71.2421 65.375C71.2088 65.528 71.2118 65.6865 71.2508 65.8382C71.3605 66.1689 71.5711 66.4578 71.8536 66.665C72.1252 66.8926 72.4587 67.0356 72.8122 67.076C72.9725 67.0887 73.1335 67.0597 73.2791 66.9919C73.4247 66.9241 73.5498 66.8199 73.6423 66.6895C73.7484 66.5716 73.8216 66.4284 73.8545 66.2739C73.8875 66.1194 73.879 65.9591 73.83 65.8088Z" fill="#637565"/>
<path d="M76.6464 61.9046C76.5846 61.6667 76.4457 61.4553 76.2512 61.3029L76.6415 60.657C76.9488 60.8956 77.1747 61.2218 77.2888 61.5915C77.4051 61.9779 77.3643 62.394 77.1751 62.751L77.3926 63.0103L77.4766 62.8685C77.5227 62.7814 77.5857 62.7041 77.662 62.6412C77.7383 62.5782 77.8264 62.5308 77.9213 62.5015C78.0913 62.4681 78.2678 62.4995 78.4154 62.5896C78.506 62.6424 78.5848 62.7131 78.6468 62.7973C78.7089 62.8814 78.7529 62.9772 78.7761 63.0788C78.8007 63.1956 78.8012 63.316 78.7774 63.4329C78.7536 63.5498 78.7061 63.6607 78.6377 63.7589C78.5554 63.8933 78.45 64.0125 78.3264 64.1112L77.9707 63.891C78.0792 63.7828 78.1753 63.663 78.2573 63.5338C78.3296 63.4273 78.3644 63.3 78.3561 63.1718C78.3498 63.1232 78.3322 63.0768 78.3048 63.0361C78.2773 62.9953 78.2408 62.9614 78.198 62.937C78.1589 62.9121 78.1134 62.8989 78.067 62.8989C78.0206 62.8989 77.9751 62.9121 77.9361 62.937C77.8551 62.9814 77.7883 63.0475 77.7434 63.1278L77.4173 63.6659L76.9479 63.1522C76.7557 63.4261 76.4857 63.6372 76.1721 63.7589C75.8751 63.866 75.5553 63.8963 75.2432 63.847C74.9196 63.7987 74.6088 63.6873 74.3291 63.5192C74.0341 63.344 73.7785 63.1109 73.578 62.8342C73.3682 62.5522 73.2513 62.2129 73.2434 61.8627C73.2354 61.5124 73.3367 61.1683 73.5336 60.8772C73.6381 60.681 73.7818 60.5079 73.9559 60.3683C74.13 60.2287 74.3309 60.1255 74.5465 60.0651C74.9554 59.9613 75.3878 59.9993 75.7719 60.1727L75.3716 60.7843C75.1426 60.6867 74.8881 60.6644 74.6453 60.7207C74.526 60.7535 74.4145 60.8098 74.3177 60.8863C74.2209 60.9628 74.1408 61.0579 74.082 61.1659C73.9901 61.2985 73.9341 61.4523 73.9194 61.6125C73.9046 61.7727 73.9317 61.9339 73.998 62.0808C74.1561 62.3971 74.4077 62.6582 74.7194 62.8293C75.0124 63.0198 75.3572 63.1171 75.7076 63.1082C75.8684 63.0989 76.024 63.0491 76.1598 62.9635C76.2956 62.8778 76.407 62.7592 76.4834 62.6189C76.5593 62.5177 76.6131 62.4019 76.6411 62.2788C76.6692 62.1558 76.671 62.0284 76.6464 61.9046Z" fill="#637565"/>
<path d="M73.9931 57.5063C73.9352 57.4212 73.9014 57.3223 73.8953 57.2199C73.8893 57.1174 73.9111 57.0153 73.9586 56.9241C73.9953 56.8366 74.051 56.7581 74.1216 56.6941C74.2033 56.6255 74.2891 56.5617 74.3785 56.5033L74.4724 56.4446C74.513 56.4171 74.5511 56.3859 74.5861 56.3516C74.6138 56.3244 74.6371 56.293 74.6552 56.2587C74.6714 56.2248 74.6776 56.1872 74.6732 56.15C74.6688 56.1128 74.6541 56.0776 74.6305 56.0483C74.5695 55.9811 74.4908 55.932 74.4033 55.9064L74.5762 55.515C74.7742 55.578 74.9472 55.7013 75.0703 55.8673C75.1271 55.954 75.1594 56.0542 75.1637 56.1575C75.1681 56.2608 75.1443 56.3633 75.095 56.4544C75.0605 56.5378 75.0083 56.6129 74.9418 56.6746C74.8594 56.7475 74.7719 56.8145 74.68 56.8751L74.5021 57.0023C74.461 57.0348 74.4287 57.0768 74.4082 57.1247C74.3874 57.1559 74.3763 57.1924 74.3763 57.2298C74.3763 57.2672 74.3874 57.3038 74.4082 57.335C74.4699 57.4004 74.5485 57.4478 74.6355 57.472L74.4625 57.8732C74.2716 57.8018 74.1076 57.6737 73.9931 57.5063ZM78.5192 59.7226C78.2514 59.8819 77.9418 59.9585 77.6298 59.9427C76.9006 59.9101 76.2091 59.6122 75.6879 59.1061C75.4653 58.8855 75.3095 58.6076 75.2383 58.3038C75.176 57.9946 75.2158 57.6738 75.3519 57.3889C75.4536 57.1146 75.6472 56.8832 75.9004 56.7333C76.1124 56.6147 76.3491 56.5461 76.5922 56.5327V56.4837L75.9597 56.2147L76.271 55.5052L79.8978 57.0611L79.5865 57.7705L78.8848 57.4671V57.5161C79.0449 57.7088 79.1597 57.9344 79.2208 58.1765C79.282 58.466 79.2438 58.7673 79.1121 59.0327C78.992 59.3145 78.7843 59.551 78.5192 59.7079V59.7226ZM78.5736 57.6384C78.3784 57.3452 78.0973 57.1182 77.7681 56.9877C77.4482 56.8377 77.089 56.7899 76.7404 56.8507C76.5886 56.8879 76.4474 56.9591 76.3277 57.0588C76.208 57.1585 76.113 57.2841 76.05 57.4259C75.987 57.5676 75.9577 57.7218 75.9643 57.8765C75.971 58.0313 76.0133 58.1824 76.0882 58.3184C76.2822 58.6084 76.5616 58.8322 76.8886 58.9593C77.2101 59.11 77.57 59.1611 77.9213 59.1061C78.0798 59.0792 78.2283 59.0111 78.3515 58.9088C78.4748 58.8066 78.5685 58.6737 78.623 58.5239C78.6908 58.3841 78.7218 58.2297 78.7132 58.0749C78.7045 57.92 78.6565 57.7699 78.5736 57.6384Z" fill="#637565"/>
<path d="M80.372 54.9671C80.1182 55.18 79.8076 55.3159 79.4777 55.3585C79.1338 55.4072 78.7833 55.3821 78.45 55.2851C78.1108 55.1878 77.796 55.0211 77.526 54.7958C77.2663 54.5866 77.0726 54.3082 76.9676 53.9935C76.8587 53.6495 76.8587 53.2807 76.9676 52.9367C77.0496 52.6 77.2329 52.2958 77.4931 52.0643C77.7533 51.8328 78.0784 51.685 78.4252 51.6402C78.7692 51.5951 79.1188 51.62 79.4527 51.7134C79.7866 51.8068 80.0978 51.9667 80.3671 52.1832C80.6273 52.394 80.821 52.6741 80.9254 52.9905C81.0344 53.3345 81.0344 53.7033 80.9254 54.0473C80.8403 54.4027 80.6472 54.7237 80.372 54.9671ZM80.1349 53.0101C79.8952 52.7484 79.586 52.5586 79.2426 52.4626C78.8993 52.3666 78.5355 52.3681 78.193 52.467C78.0454 52.52 77.9126 52.6071 77.8057 52.721C77.6988 52.8349 77.6209 52.9724 77.5784 53.1221C77.5359 53.2718 77.53 53.4294 77.5613 53.5818C77.5926 53.7341 77.6601 53.877 77.7582 53.9984C77.9847 54.2717 78.2953 54.4642 78.6426 54.5463C78.9846 54.6569 79.3532 54.6569 79.6951 54.5463C79.8443 54.4956 79.9782 54.4086 80.0844 54.2931C80.1906 54.1777 80.2658 54.0376 80.3029 53.8858C80.3512 53.7384 80.3612 53.5813 80.3318 53.429C80.3025 53.2768 80.2347 53.1344 80.1349 53.015V53.0101Z" fill="#637565"/>
<path d="M9.52152 46.5471C10.5776 46.5471 11.4337 45.6994 11.4337 44.6537C11.4337 43.608 10.5776 42.7603 9.52152 42.7603C8.46544 42.7603 7.60931 43.608 7.60931 44.6537C7.60931 45.6994 8.46544 46.5471 9.52152 46.5471Z" fill="#7EA874"/>
<path d="M80.5895 46.5471C81.6455 46.5471 82.5017 45.6994 82.5017 44.6537C82.5017 43.608 81.6455 42.7603 80.5895 42.7603C79.5334 42.7603 78.6772 43.608 78.6772 44.6537C78.6772 45.6994 79.5334 46.5471 80.5895 46.5471Z" fill="#7EA874"/>
<path d="M45.0629 54.9328L35.8972 40.3239L41.278 56.4055C34.9633 55.1726 28.7968 48.4014 27.9815 38.7925C27.6695 34.4734 28.9104 30.1841 31.4848 26.6836C36.0899 30.2502 46.9307 35.0008 47.7262 44.4629C48.0918 48.8906 46.7133 51.924 45.0629 54.9328Z" fill="#3A493D"/>
<path d="M50.3499 55.6129L57.1686 47.4033L52.5585 56.8262C56.5114 56.5767 60.8646 52.9123 62.1542 47.1049C62.7 44.4822 62.2922 41.753 61.0029 39.3992C57.89 41.2143 50.8588 43.2398 49.589 48.9836C48.9911 51.6696 49.5791 53.6363 50.3499 55.6129Z" fill="#3A493D"/>
<path d="M46.6737 61.4349C48.0627 61.4349 49.1887 60.32 49.1887 58.9447C49.1887 57.5693 48.0627 56.4544 46.6737 56.4544C45.2847 56.4544 44.1587 57.5693 44.1587 58.9447C44.1587 60.32 45.2847 61.4349 46.6737 61.4349Z" fill="#7EA874"/>
</g>
<defs>
<clipPath id="clip0_10_24">
<rect width="86" height="81" fill="white"/>
</clipPath>
</defs>
</svg>
