<svg width="86" height="81" viewBox="0 0 86 81" fill="none" xmlns="http://www.w3.org/2000/svg">
<path d="M45.0629 54.9328L35.8972 40.3239L41.278 56.4055C34.9633 55.1726 28.7968 48.4014 27.9815 38.7925C27.6695 34.4734 28.9104 30.1841 31.4848 26.6836C36.0899 30.2502 46.9307 35.0008 47.7262 44.4629C48.0918 48.8906 46.7133 51.924 45.0629 54.9328Z" fill="#3A493D"/>
<path d="M50.3499 55.6129L57.1686 47.4033L52.5586 56.8262C56.5115 56.5767 60.8646 52.9123 62.1542 47.1049C62.7 44.4822 62.2923 41.753 61.0029 39.3992C57.89 41.2143 50.8588 43.2398 49.589 48.9836C48.9911 51.6696 49.5791 53.6363 50.3499 55.6129Z" fill="#3A493D"/>
<path d="M46.6737 61.4349C48.0627 61.4349 49.1887 60.32 49.1887 58.9447C49.1887 57.5693 48.0627 56.4544 46.6737 56.4544C45.2847 56.4544 44.1587 57.5693 44.1587 58.9447C44.1587 60.32 45.2847 61.4349 46.6737 61.4349Z" fill="#7EA874"/>
</svg>
