<svg width="230" height="46" viewBox="0 0 230 46" fill="none" xmlns="http://www.w3.org/2000/svg">
<path d="M80.8739 19.0375L72.2289 39.1373H66.6097L57.9647 19.0375H64.1314L69.6066 32.1311L75.2258 19.0375H80.8739Z" fill="#F5FAF7"/>
<path d="M97.1264 32.7628H85.7727C86.2338 34.3421 87.5882 35.2609 89.6053 35.2609C90.9379 35.3032 92.233 34.818 93.2074 33.9114L96.0891 36.8976C94.5906 38.5631 92.4005 39.4245 89.4324 39.4245C83.8708 39.4245 80.2687 36.0075 80.2687 31.3558C80.2687 26.7041 83.9284 23.3446 88.8633 23.3446C93.474 23.3446 97.2201 26.2734 97.2201 31.4132C97.2129 31.8152 97.1553 32.3321 97.1264 32.7628ZM85.6863 29.8914H92.0835C91.9497 29.1431 91.5558 28.4656 90.971 27.9775C90.3862 27.4895 89.6477 27.2221 88.8849 27.2221C88.1221 27.2221 87.3836 27.4895 86.7988 27.9775C86.214 28.4656 85.8202 29.1431 85.6863 29.8914Z" fill="#F5FAF7"/>
<path d="M110.814 23.3446V28.2547C110.404 28.2003 109.99 28.1716 109.575 28.1685C107.356 28.1685 105.829 29.2884 105.829 32.0162V39.1948H100.39V23.603H105.606V25.4981C106.694 24.0624 108.509 23.3446 110.814 23.3446Z" fill="#F5FAF7"/>
<path d="M130.122 17.8602V39.1373H124.884V37.5868C123.847 38.8215 122.319 39.3957 120.302 39.3957C116.037 39.3957 112.608 36.2946 112.608 31.3271C112.608 26.3595 116.059 23.3446 120.324 23.3446C121.117 23.2971 121.912 23.4156 122.656 23.6925C123.4 23.9695 124.078 24.3987 124.646 24.9526V17.8602H130.122ZM124.733 31.3558C124.733 29.0013 123.292 27.6804 121.477 27.6804C119.661 27.6804 118.191 29.0013 118.191 31.3558C118.191 33.7104 119.632 35.0886 121.477 35.0886C123.321 35.0886 124.733 33.7391 124.733 31.3558Z" fill="#F5FAF7"/>
<path d="M150.099 32.7628H138.767C139.228 34.3421 140.582 35.2609 142.599 35.2609C143.932 35.3032 145.227 34.818 146.201 33.9114L149.083 36.8976C147.584 38.5631 145.394 39.4245 142.426 39.4245C136.865 39.4245 133.263 36.0075 133.263 31.3558C133.263 26.7041 136.922 23.3446 141.85 23.3446C146.461 23.3446 150.207 26.2734 150.207 31.4132C150.207 31.8152 150.149 32.3321 150.099 32.7628ZM138.658 29.8914H145.056C144.922 29.1431 144.528 28.4656 143.943 27.9775C143.358 27.4895 142.62 27.2221 141.857 27.2221C141.094 27.2221 140.356 27.4895 139.771 27.9775C139.186 28.4656 138.792 29.1431 138.658 29.8914Z" fill="#F5FAF7"/>
<path d="M183.058 19.0375L174.413 39.1373H168.829L160.184 19.0375H166.351L171.826 32.1311L177.41 19.0375H183.058Z" fill="#F5FAF7"/>
<path d="M184.412 18.98C184.412 17.3433 185.738 16.1086 187.755 16.1086C189.772 16.1086 191.098 17.2859 191.098 18.9226C191.098 20.5593 189.772 21.9089 187.755 21.9089C185.738 21.9089 184.412 20.6167 184.412 18.98ZM185.017 23.603H190.492V39.1373H185.017V23.603Z" fill="#F5FAF7"/>
<path d="M211.24 17.8602V39.1373H206.025V37.5868C204.987 38.8215 203.46 39.3957 201.443 39.3957C197.178 39.3957 193.749 36.2946 193.749 31.3271C193.749 26.3595 197.178 23.3446 201.443 23.3446C202.236 23.2971 203.03 23.4156 203.775 23.6925C204.519 23.9695 205.197 24.3987 205.765 24.9526V17.8602H211.24ZM205.852 31.3558C205.852 29.0013 204.411 27.6804 202.595 27.6804C200.78 27.6804 199.31 29.0013 199.31 31.3558C199.31 33.7104 200.751 35.0886 202.595 35.0886C204.44 35.0886 205.852 33.7391 205.852 31.3558Z" fill="#F5FAF7"/>
<path d="M222.039 23.3446C219.626 23.3055 217.248 23.9289 215.167 25.1464L217.011 28.8433C218.242 27.965 219.719 27.4953 221.233 27.5009C223.394 27.5009 224.453 28.3839 224.539 29.9632H221.42C216.593 29.9632 214.489 31.7363 214.489 34.6005C214.489 37.2924 216.564 39.3814 220.296 39.3814C222.565 39.3814 224.121 38.6061 224.899 37.1202V39.1373H229.986V30.5231C230 25.5771 227.097 23.3446 222.039 23.3446ZM224.201 35.0886C222.587 36.5243 220.519 36.7469 219.287 35.9859L222.645 34.1124L218.877 35.1389C219.026 34.3123 219.44 33.5564 220.058 32.9853C221.65 31.5496 224.172 32.3967 225.483 32.5115C225.374 33.4976 224.914 34.412 224.186 35.0886H224.201Z" fill="#F5FAF7"/>
<path d="M22.585 37.3858L10.5325 18.0612L17.5926 39.3383C9.28617 37.7088 1.17427 28.7428 0.108058 16.0296C-0.306502 10.3123 1.3244 4.63336 4.71153 7.62939e-06C10.763 4.72348 25.0201 10.9832 26.0719 23.5312C26.5329 29.3961 24.7463 33.3945 22.585 37.3858Z" fill="#F5FAF7"/>
<path d="M28.9535 38.2903L37.9155 27.4292L31.8568 39.8911C37.0798 39.568 42.7783 34.7369 44.4713 27.0343C45.1904 23.5627 44.6545 19.9496 42.9584 16.8336C38.8664 19.2384 29.6163 21.916 27.9522 29.5181C27.1669 33.0715 27.9377 35.6773 28.9535 38.2903Z" fill="#F5FAF7"/>
<path d="M24.667 46C26.4933 46 27.9738 44.5248 27.9738 42.7051C27.9738 40.8853 26.4933 39.4101 24.667 39.4101C22.8408 39.4101 21.3603 40.8853 21.3603 42.7051C21.3603 44.5248 22.8408 46 24.667 46Z" fill="#F5FAF7"/>
</svg>
