<svg width="99" height="83" viewBox="0 0 99 83" fill="none" xmlns="http://www.w3.org/2000/svg">
<path d="M48.164 0.00204007C48.2588 0.0461786 48.3589 0.077721 48.4618 0.0958633C52.8452 0.303904 57.0464 1.91162 60.4488 4.68301C64.2446 7.72819 66.6962 11.6463 67.8384 16.3865C68.5034 19.2484 68.5648 22.2175 68.0187 25.1045C67.4726 27.9914 66.3311 30.733 64.6668 33.1543C63.3042 35.1394 61.6104 36.8752 59.6594 38.2861C59.547 38.3713 59.4269 38.4457 59.3005 38.5084C62.0662 33.9967 63.1513 29.126 62.3599 23.8944C61.5686 18.6627 59.0965 14.2816 55.056 10.8509C51.6026 7.88375 47.2664 6.13938 42.7202 5.88844C38.0862 5.59065 33.8131 6.73285 29.8828 9.19469L29.8236 9.13146C30.4722 8.3564 31.0861 7.5487 31.7715 6.80831C34.7231 3.5924 38.6123 1.38734 42.8875 0.505831C43.9073 0.28555 44.9638 0.234559 46.002 0.0979034C46.1304 0.0731955 46.2571 0.040497 46.3814 0L48.164 0.00204007Z" fill="#7F7D7D"/>
<path d="M0.00611906 66.8124C0.618011 66.8002 1.21563 66.7879 1.81936 66.7798C2.36394 66.7798 2.90853 66.7798 3.45107 66.7655C4.36687 66.7472 5.28674 66.6819 6.19234 66.7084C7.19711 66.7031 8.19238 66.903 9.11719 67.2958C9.90245 67.6568 10.5653 68.1586 10.9712 68.9377C11.8299 70.5837 11.4322 72.4806 9.86981 73.6575L9.52512 73.9165C9.72908 74.0348 9.87185 74.1205 10.0228 74.2224C11.1242 74.922 11.7993 75.9072 11.9319 77.2085C12.1359 79.3093 10.9977 81.0654 8.98665 81.7915C8.28117 82.0588 7.53753 82.2116 6.78384 82.2443C5.61105 82.279 4.43621 82.3076 3.26342 82.3096C2.31295 82.3096 1.36044 82.2627 0.407928 82.2423C0.271469 82.2459 0.135301 82.2568 0 82.2749V80.2679C0.662883 80.2904 1.34004 80.4352 1.94786 80.064V68.9357C1.31965 68.6175 0.656764 68.7052 0 68.744L0.00611906 66.8124ZM4.60347 75.1892V80.064C4.65188 80.0918 4.7041 80.1124 4.75848 80.1251C5.72119 80.1721 6.68594 80.2129 7.61397 79.8865C8.16786 79.7302 8.64218 79.3703 8.94178 78.8789C9.49044 77.8917 9.41701 76.3049 7.96887 75.591C6.9001 75.0628 5.76606 75.1811 4.60347 75.1892ZM4.60347 73.0394C5.35405 73.0109 6.07812 73.0027 6.80016 72.9497C7.30855 72.8963 7.78522 72.6769 8.15652 72.3256C9.10903 71.5097 8.99685 69.621 7.64661 69.1356C6.65534 68.7786 5.64368 68.8052 4.60347 68.954V73.0394Z" fill="#7F7D7D"/>
<path d="M28.1735 82.4931C27.9512 82.4381 27.733 82.3728 27.5106 82.332C25.1997 81.9037 23.6721 80.4963 22.7012 78.4322C22.2087 77.3208 21.9584 76.1172 21.9669 74.9016C21.9052 73.552 22.1333 72.2048 22.6359 70.9508C23.5905 68.7174 25.1732 67.1632 27.6208 66.7308C30.001 66.3106 32.2141 66.6982 33.9743 68.5318C35.0783 69.6853 35.7734 71.1693 35.9527 72.7559C36.0476 73.3631 36.0933 73.977 36.0894 74.5916C36.0261 76.4497 35.6468 78.2221 34.4821 79.7396C33.3175 81.2571 31.8102 82.1709 29.895 82.381C29.8153 82.4027 29.7391 82.4357 29.6686 82.4789L28.1735 82.4931ZM33.3644 74.4651C33.3297 74.0837 33.3012 73.7023 33.2604 73.3229C33.1597 72.334 32.8087 71.3871 32.2406 70.5714C31.1596 69.0234 29.742 68.593 27.992 68.9622C26.6316 69.2477 25.8218 70.2308 25.2589 71.4342C24.9467 72.145 24.7577 72.9037 24.7 73.6778C24.5471 75.1892 24.7123 76.6373 25.4445 77.9876C26.1767 79.3378 27.2924 80.172 28.8772 80.2067C30.3294 80.2373 31.4879 79.656 32.2854 78.4118C33.0625 77.2125 33.3481 75.8806 33.3644 74.4651Z" fill="#7F7D7D"/>
<path d="M98.998 82.2708C98.8389 82.2585 98.6798 82.2381 98.5187 82.2381H88.2042V80.3474C88.7835 80.1842 89.4382 80.4738 90.0154 80.1067V68.9519C89.4586 68.6297 88.8386 68.748 88.2103 68.6929V66.8735H94.5434V68.6827C94.4394 68.6929 94.3395 68.7072 94.2497 68.7133C93.8805 68.7378 93.5093 68.7541 93.1422 68.7888C92.7751 68.8234 92.6506 68.9376 92.6506 69.3313C92.6506 70.3226 92.6506 71.3138 92.6506 72.3031V79.8212C92.9464 79.9435 95.8712 79.9884 96.7952 79.8946C97.2255 79.352 96.9216 78.6708 97.0685 78.0181L99 77.961L98.998 82.2708Z" fill="#7F7D7D"/>
<path d="M69.4477 9.51685C76.1663 13.9449 79.599 21.8709 78.6689 29.5828C78.1417 34.0202 76.2229 38.1767 73.1874 41.4562C70.152 44.7356 66.156 46.9696 61.7725 47.8376C52.588 49.6243 44.403 45.3268 40.1768 38.9672C44.6742 41.7758 49.5408 42.9057 54.7949 42.1409C60.049 41.376 64.4424 38.9264 67.8996 34.8879C70.903 31.4257 72.6645 27.0599 72.9049 22.4828C73.1904 17.8223 72.0299 13.5084 69.4477 9.51685Z" fill="#7F7D7D"/>
<path d="M58.7559 19.5868C54.6233 16.9572 49.7131 15.8262 44.8465 16.3831C39.9799 16.94 35.4521 19.151 32.0204 22.6463C25.6771 29.1731 23.7109 39.9975 29.3688 48.9413C26.3396 46.861 23.9091 44.0226 22.3198 40.7093C20.713 37.4125 20.0092 33.7485 20.2802 30.091C20.9492 20.315 28.1532 12.7418 36.9706 10.8918C41.0547 10.0229 45.3048 10.3853 49.1828 11.9331C53.0609 13.481 56.3925 16.1446 58.7559 19.5868Z" fill="#7F7D7D"/>
<path d="M39.8138 20.0457C34.5882 28.194 35.5611 38.5207 41.5577 45.4167C45.0149 49.4063 49.3675 51.813 54.6012 52.5738C59.8349 53.3346 64.6546 52.225 69.1907 49.4063C67.0098 52.592 63.9967 55.1183 60.4794 56.7102C56.6254 58.4554 52.3363 59.0032 48.1673 58.2828C43.9984 57.5624 40.1418 55.607 37.097 52.6697C34.0568 49.8044 31.9688 46.0754 31.1147 41.986C29.1342 32.6465 33.4134 24.3819 39.8138 20.0457Z" fill="#7F7D7D"/>
<path d="M84.8735 80.0986C85.4486 80.4066 86.0585 80.2475 86.6704 80.3189V82.2015H80.8493V80.2985H82.1567C81.8426 79.3644 81.5448 78.5077 81.2674 77.647H76.5456C76.2662 78.4934 75.9847 79.344 75.6808 80.2679H77.0045V82.2137H71.2568V80.3352C71.8443 80.2271 72.4806 80.425 73.0517 80.0946L77.5573 66.8716H80.3536C81.8548 71.2731 83.3614 75.6821 84.8735 80.0986ZM80.6065 75.3728C80.0293 73.6758 79.4745 72.038 78.8892 70.3145L77.2105 75.3728H80.6065Z" fill="#7F7D7D"/>
<path d="M45.7736 66.8633H51.5886V68.6663L49.8202 68.8417C48.213 73.3289 46.6261 77.7713 45.0373 82.2156H42.4449C40.9981 77.7923 39.5513 73.3623 38.1045 68.9254C37.5069 68.6867 36.8971 68.7214 36.2689 68.703V66.8674H42.1593V68.6765L40.8417 68.7785C41.8412 72.0052 42.8222 75.1687 43.8053 78.3383H43.8278C43.84 78.3383 43.8563 78.3383 43.8624 78.3383C43.897 78.3048 43.9253 78.2654 43.9461 78.222C44.9659 75.1014 46 71.9828 47.0382 68.8275C46.6547 68.6011 46.2019 68.7948 45.7695 68.6765L45.7736 66.8633Z" fill="#7F7D7D"/>
<path d="M59.8818 71V66.8677H71.3629V70.9877H69.5537C69.464 70.3881 69.6129 69.7497 69.2886 69.1786H66.9573V80.0947C67.508 80.4761 68.1607 80.1967 68.7726 80.3375V82.2078H62.4272V80.3456C63.0289 80.1682 63.7326 80.5067 64.3057 80.056V69.1908H61.9581C61.5665 69.7089 61.8194 70.3759 61.695 70.9959L59.8818 71Z" fill="#7F7D7D"/>
<path d="M15.7032 68.9664C15.1056 68.636 14.4631 68.74 13.8206 68.7033V66.8799H20.168V68.6972C19.5683 68.7482 18.9442 68.634 18.3547 68.9481V80.0865C18.885 80.4843 19.5377 80.1967 20.1598 80.3374V82.2118H13.8206V80.3497C14.4325 80.1661 15.1301 80.5087 15.7032 80.06V68.9664Z" fill="#7F7D7D"/>
<path d="M58.8844 80.2944V82.2116H52.5289V80.3453C53.1183 80.1883 53.769 80.4636 54.3462 80.1087V68.9417C53.7853 68.6358 53.1673 68.752 52.537 68.6929V66.8735H58.8721V68.6929C58.2603 68.752 57.628 68.6378 57.0242 68.9417C57.012 69.1029 56.9875 69.2579 56.9875 69.4149C56.9875 72.8143 56.9875 76.2198 56.9875 79.6315C56.9875 80.1353 57.1038 80.2678 57.6137 80.2903C58.0175 80.3086 58.4255 80.2944 58.8844 80.2944Z" fill="#7F7D7D"/>
</svg>
