<svg width="209" height="45" viewBox="0 0 209 45" fill="none" xmlns="http://www.w3.org/2000/svg">
<path d="M120.101 8.11573C120.391 7.5895 120.101 7.01016 120.482 6.47428H126.594C126.937 6.95706 126.816 7.4688 126.816 7.92262C126.816 15.248 126.816 22.5733 126.816 29.8987C126.825 31.5553 126.702 33.2099 126.449 34.8472C125.45 41.1764 120.902 43.7255 116.852 44.6235C114.902 45.028 112.897 45.0966 110.923 44.8262V38.8301C113.82 39.0715 116.664 39.1681 118.648 36.5417C120.029 34.712 119.864 32.554 119.946 30.5118C119.866 30.4354 119.76 30.3928 119.65 30.3928C119.539 30.3928 119.433 30.4354 119.353 30.5118C113.883 34.4996 103.421 32.2643 100.853 23.2702C99.4042 18.2058 100.293 13.5566 103.904 9.64131C105.835 7.55487 108.441 6.21712 111.262 5.86384C114.082 5.51055 116.938 6.16442 119.324 7.71019C119.535 7.92242 119.806 8.06409 120.101 8.11573ZM119.98 19.0941C119.932 18.3128 119.932 17.5292 119.98 16.7478C120.135 15.4974 119.565 14.6767 118.648 13.967C117.931 13.3953 117.13 12.9392 116.272 12.6152C113.376 11.5821 110.479 12.3014 108.674 14.5029C106.26 17.4527 106.607 22.1115 109.456 24.5399C112.198 26.8765 116.746 26.4951 119.29 23.7336C119.521 23.5044 119.701 23.2289 119.818 22.9252C119.936 22.6216 119.988 22.2966 119.971 21.9715C119.951 21.0156 119.98 20.0548 119.98 19.0941Z" fill="#7F7D7D"/>
<path d="M95.571 6.47938C95.7496 7.70564 95.7689 30.3866 95.5951 31.7625H89.319C88.9955 31.2459 89.261 30.6859 89.0486 30.2031C88.812 30.0776 88.6382 30.2031 88.4644 30.3431C83.7236 33.8964 76.4529 32.5832 72.5327 28.272C67.3284 22.5221 68.1877 12.9052 74.3335 8.27532C76.2814 6.81393 78.6219 5.96864 81.0541 5.84819C83.4863 5.72775 85.8989 6.33763 87.9817 7.59942C88.3003 7.79253 88.561 8.14979 89.01 8.0822C89.2659 7.59942 88.9714 7.03458 89.3238 6.47938H95.571ZM88.87 19.133C88.87 18.1337 88.87 17.1295 88.87 16.1301C88.8861 15.8695 88.8472 15.6084 88.7557 15.3639C88.6642 15.1193 88.5222 14.8968 88.3389 14.7108C86.2968 12.6203 83.8346 11.7272 80.9717 12.3741C77.3026 13.1997 75.1446 17.255 76.2308 21.1317C76.984 23.816 78.7558 25.4767 81.5028 25.9595C84.2498 26.4423 86.5575 25.5153 88.4258 23.4539C88.5831 23.2745 88.703 23.0655 88.7785 22.8392C88.8539 22.6129 88.8834 22.3738 88.8652 22.1359C88.87 21.1365 88.87 20.1372 88.87 19.133Z" fill="#7F7D7D"/>
<path d="M165.323 5.86589C171.932 5.90452 177.233 10.1771 178.551 16.5257C178.924 18.3804 178.894 20.2934 178.465 22.1359C178.036 23.9783 177.217 25.7074 176.063 27.2066C174.909 28.7058 173.448 29.9403 171.776 30.8269C170.105 31.7135 168.264 32.2316 166.375 32.3463C160.77 32.6408 156.198 30.6421 153.393 25.6743C148.377 16.8008 154.61 5.75003 165.323 5.86589ZM165.236 12.1903C161.374 12.1903 158.516 15.1401 158.52 19.1568C158.525 23.1735 161.417 26.1088 165.279 26.0895C169.142 26.0702 171.908 23.1349 171.908 19.1761C171.932 15.1401 169.113 12.1951 165.236 12.1903Z" fill="#7F7D7D"/>
<path d="M51.3532 31.7962H44.2901V0.0341797H67.7339V6.20891H51.4015C51.2228 8.78212 51.2856 11.1912 51.3532 13.7258H64.0889C64.1758 15.8597 64.1661 17.868 64.0889 20.0357H51.3532V31.7962Z" fill="#7F7D7D"/>
<path d="M190.321 31.8201H183.789V6.48389C185.864 6.33766 187.946 6.32637 190.022 6.45009C190.418 7.0246 190.128 7.59912 190.369 8.07707C190.785 8.21225 191.007 7.86465 191.277 7.68602C198.036 3.22997 208.198 7.15496 208.816 16.376C209.149 21.339 208.918 26.3068 208.966 31.2746C208.944 31.439 208.905 31.6007 208.85 31.7574H202.376C201.99 31.3277 202.149 30.7918 202.149 30.2801C202.149 26.8379 202.149 23.3956 202.149 19.9486C202.149 19.0796 202.115 18.2058 202.053 17.3368C201.782 13.5807 199.277 11.6158 195.554 12.2628C193.87 12.5793 192.323 13.405 191.123 14.6284C190.899 14.8646 190.729 15.1468 190.626 15.4554C190.522 15.7639 190.488 16.0913 190.524 16.4147C190.524 20.9914 190.524 25.5681 190.524 30.1449C190.593 30.7115 190.523 31.2864 190.321 31.8201Z" fill="#7F7D7D"/>
<path d="M149.01 12.1857C148.007 12.2705 147 12.2705 145.997 12.1857C143.54 12.147 141.652 13.2574 140.098 15.0485C139.667 15.5953 139.461 16.2862 139.523 16.9797C139.523 21.3794 139.523 25.7775 139.523 30.174C139.611 30.7187 139.539 31.2773 139.316 31.7817H132.803V6.43575C134.913 6.34885 136.974 6.35851 138.992 6.43575C139.547 7.08268 139.045 7.8841 139.538 8.55999C142.232 6.1123 145.399 5.51365 148.99 6.06402C149.111 8.1448 149.063 10.1387 149.01 12.1857Z" fill="#7F7D7D"/>
<path d="M19.5381 3.62597C19.519 4.57356 19.1262 5.47521 18.4453 6.13445C17.7643 6.79369 16.8504 7.15707 15.9027 7.14542C14.9552 7.13325 14.0514 6.74521 13.39 6.06662C12.7286 5.38803 12.3639 4.47449 12.376 3.52699C12.3882 2.57949 12.7762 1.67562 13.4548 1.01424C14.1334 0.352852 15.047 -0.0118691 15.9945 0.000294778C16.9438 0.0155449 17.8486 0.405027 18.5123 1.08401C19.1759 1.763 19.5445 2.67657 19.5381 3.62597Z" fill="#7F7D7D"/>
<path d="M7.09686 3.57761C7.10599 4.04742 7.02042 4.51425 6.84527 4.95028C6.67012 5.38631 6.40897 5.78261 6.07738 6.11555C5.74579 6.44849 5.35055 6.71126 4.91524 6.88819C4.47993 7.06511 4.01344 7.15256 3.5436 7.14534C2.62072 7.11138 1.74697 6.72088 1.10608 6.05597C0.465184 5.39105 0.107086 4.50353 0.107086 3.58003C0.107086 2.65653 0.465184 1.76899 1.10608 1.10408C1.74697 0.439162 2.62072 0.0486677 3.5436 0.0147019C4.01176 0.0121278 4.47576 0.102596 4.90865 0.280858C5.34154 0.459119 5.7347 0.721627 6.06529 1.05312C6.39588 1.3846 6.65732 1.77846 6.8344 2.21184C7.01149 2.64522 7.1007 3.10947 7.09686 3.57761Z" fill="#7F7D7D"/>
<path d="M31.902 3.59695C31.9033 4.06533 31.8116 4.52932 31.6322 4.962C31.4529 5.39467 31.1894 5.78743 30.8571 6.11751C30.5247 6.44759 30.1302 6.70841 29.6963 6.88485C29.2624 7.06129 28.7978 7.14983 28.3295 7.14536C27.3845 7.14216 26.4795 6.76371 25.8136 6.09327C25.1477 5.42283 24.7754 4.51532 24.7786 3.57038C24.7818 2.62544 25.1603 1.72047 25.8307 1.05456C26.5011 0.388651 27.4087 0.0163507 28.3536 0.0195517C28.8222 0.018892 29.2863 0.111179 29.719 0.291085C30.1517 0.470992 30.5444 0.73494 30.8744 1.06765C31.2045 1.40035 31.4652 1.79521 31.6416 2.22936C31.818 2.66352 31.9065 3.12835 31.902 3.59695Z" fill="#7F7D7D"/>
<path d="M15.9703 12.4609C16.4394 12.4532 16.9053 12.5393 17.3406 12.7142C17.7759 12.8892 18.1719 13.1493 18.5052 13.4795C18.8385 13.8096 19.1024 14.2031 19.2814 14.6367C19.4605 15.0704 19.551 15.5354 19.5477 16.0045C19.5325 16.95 19.1455 17.8515 18.4706 18.5138C17.7956 19.1761 16.887 19.546 15.9414 19.5433C15.0164 19.5369 14.1316 19.1647 13.4803 18.5079C12.829 17.8512 12.4641 16.9633 12.4654 16.0383C12.4483 15.5701 12.5267 15.1032 12.6958 14.6662C12.865 14.2293 13.1213 13.8313 13.4493 13.4966C13.7772 13.1619 14.1698 12.8975 14.6033 12.7194C15.0367 12.5414 15.5018 12.4534 15.9703 12.4609Z" fill="#7F7D7D"/>
<path d="M3.50015 31.9071C3.0315 31.9022 2.56853 31.804 2.13817 31.6184C1.70781 31.4329 1.31866 31.1635 0.993384 30.8261C0.668104 30.4887 0.413187 30.09 0.243473 29.6531C0.0737584 29.2162 -0.00736375 28.75 0.00482748 28.2815C0.045456 27.3586 0.437733 26.4863 1.10117 25.8435C1.7646 25.2007 2.64888 24.8362 3.57256 24.8248C4.04207 24.822 4.50734 24.9137 4.94067 25.0945C5.374 25.2752 5.76653 25.5413 6.09491 25.8769C6.42328 26.2125 6.68078 26.6107 6.85208 27.0478C7.02338 27.485 7.10498 27.9521 7.09202 28.4215C7.09979 28.8904 7.01137 29.356 6.83222 29.7894C6.65307 30.2229 6.387 30.615 6.05043 30.9416C5.71385 31.2683 5.3139 31.5224 4.87528 31.6885C4.43665 31.8546 3.96865 31.929 3.50015 31.9071Z" fill="#7F7D7D"/>
<path d="M3.62567 19.5429C2.67984 19.5457 1.77057 19.1778 1.0928 18.5181C0.415031 17.8584 0.0227261 16.9594 0 16.0138C0.0044188 15.091 0.36575 14.2057 1.00831 13.5434C1.65086 12.881 2.52479 12.493 3.44704 12.4606C3.91544 12.4329 4.38454 12.5013 4.82554 12.6616C5.26653 12.8219 5.6701 13.0706 6.01146 13.3925C6.35282 13.7144 6.62477 14.1028 6.81059 14.5336C6.99641 14.9645 7.09218 15.4287 7.09202 15.898C7.11146 16.3668 7.03642 16.8348 6.87136 17.2741C6.7063 17.7133 6.4546 18.1149 6.13122 18.455C5.80785 18.795 5.41939 19.0666 4.98896 19.2535C4.55853 19.4404 4.09491 19.5388 3.62567 19.5429Z" fill="#7F7D7D"/>
<path d="M28.4888 12.5765C29.3979 12.5906 30.2642 12.9653 30.897 13.6181C31.5299 14.2709 31.8775 15.1483 31.8634 16.0574C31.8493 16.9665 31.4747 17.8327 30.8219 18.4656C30.1691 19.0985 29.2917 19.4461 28.3826 19.432C27.484 19.3924 26.6324 19.0192 25.9941 18.3854C25.3558 17.7516 24.9767 16.9026 24.9307 16.0043C24.9572 15.081 25.3447 14.2048 26.0099 13.564C26.6752 12.9231 27.5651 12.5686 28.4888 12.5765Z" fill="#7F7D7D"/>
<path d="M28.3777 25.066C28.82 25.0549 29.2601 25.133 29.6716 25.2956C30.0831 25.4582 30.4576 25.702 30.773 26.0123C31.0883 26.3227 31.338 26.6934 31.507 27.1023C31.6761 27.5111 31.7612 27.9499 31.7572 28.3923C31.7572 29.2886 31.4011 30.1482 30.7673 30.7819C30.1336 31.4157 29.274 31.7718 28.3777 31.7718C27.4791 31.7633 26.6189 31.4062 25.9785 30.7757C25.3381 30.1452 24.9676 29.2907 24.9452 28.3923C24.9402 27.9451 25.0263 27.5015 25.1984 27.0886C25.3706 26.6758 25.625 26.3023 25.9462 25.9911C26.2674 25.6798 26.6487 25.4372 27.0667 25.2782C27.4848 25.1191 27.9308 25.0469 28.3777 25.066Z" fill="#7F7D7D"/>
<path d="M15.9703 25.0663C18.0125 25.0663 19.2967 26.3939 19.2774 28.4457C19.2825 28.8809 19.201 29.3127 19.0377 29.7161C18.8744 30.1196 18.6326 30.4865 18.3262 30.7956C18.0198 31.1046 17.655 31.3497 17.2531 31.5165C16.8511 31.6833 16.42 31.7686 15.9848 31.7673C15.5295 31.7695 15.0783 31.6797 14.6586 31.5032C14.2388 31.3268 13.859 31.0673 13.542 30.7404C13.225 30.4135 12.9774 30.0259 12.8139 29.6009C12.6505 29.1758 12.5746 28.7222 12.5909 28.2671C12.6009 27.8345 12.6964 27.4082 12.872 27.0127C13.0476 26.6172 13.2997 26.2603 13.6139 25.9628C13.928 25.6652 14.298 25.4328 14.7025 25.2789C15.1069 25.1251 15.5378 25.0528 15.9703 25.0663Z" fill="#7F7D7D"/>
<path d="M120.101 8.11573C120.391 7.5895 120.101 7.01016 120.482 6.47428H126.594C126.937 6.95706 126.816 7.4688 126.816 7.92262C126.816 15.248 126.816 22.5733 126.816 29.8987C126.825 31.5553 126.702 33.2099 126.449 34.8472C125.45 41.1764 120.902 43.7255 116.852 44.6235C114.902 45.028 112.897 45.0966 110.923 44.8262V38.8301C113.82 39.0715 116.664 39.1681 118.648 36.5417C120.029 34.712 119.864 32.554 119.946 30.5118C119.866 30.4354 119.76 30.3928 119.65 30.3928C119.539 30.3928 119.433 30.4354 119.353 30.5118C113.883 34.4996 103.421 32.2643 100.853 23.2702C99.4042 18.2058 100.293 13.5566 103.904 9.64131C105.835 7.55487 108.441 6.21712 111.262 5.86384C114.082 5.51055 116.938 6.16442 119.324 7.71019C119.535 7.92242 119.806 8.06409 120.101 8.11573ZM119.98 19.0941C119.932 18.3128 119.932 17.5292 119.98 16.7478C120.135 15.4974 119.565 14.6767 118.648 13.967C117.931 13.3953 117.13 12.9392 116.272 12.6152C113.376 11.5821 110.479 12.3014 108.674 14.5029C106.26 17.4527 106.607 22.1115 109.456 24.5399C112.198 26.8765 116.746 26.4951 119.29 23.7336C119.521 23.5044 119.701 23.2289 119.818 22.9252C119.936 22.6216 119.988 22.2966 119.971 21.9715C119.951 21.0156 119.98 20.0548 119.98 19.0941Z" fill="#7F7D7D"/>
<path d="M95.571 6.47914C95.7496 7.7054 95.7689 30.3864 95.5951 31.7623H89.319C88.9955 31.2457 89.261 30.6857 89.0486 30.2029C88.812 30.0774 88.6382 30.2029 88.4644 30.3429C83.7236 33.8962 76.4529 32.583 72.5327 28.2718C67.3284 22.5219 68.1877 12.9049 74.3335 8.27508C76.2814 6.81368 78.6219 5.9684 81.0541 5.84795C83.4863 5.7275 85.8989 6.33739 87.9817 7.59917C88.3003 7.79228 88.561 8.14954 89.01 8.08195C89.2659 7.59917 88.9714 7.03433 89.3238 6.47914H95.571ZM88.87 19.1328C88.87 18.1334 88.87 17.1292 88.87 16.1299C88.8861 15.8693 88.8472 15.6082 88.7557 15.3636C88.6642 15.1191 88.5222 14.8965 88.3389 14.7105C86.2968 12.6201 83.8346 11.7269 80.9717 12.3739C77.3026 13.1994 75.1446 17.2548 76.2308 21.1315C76.984 23.8157 78.7558 25.4765 81.5028 25.9593C84.2498 26.442 86.5575 25.5151 88.4258 23.4536C88.5831 23.2743 88.703 23.0653 88.7785 22.839C88.8539 22.6126 88.8834 22.3735 88.8652 22.1357C88.87 21.1363 88.87 20.1369 88.87 19.1328Z" fill="#7F7D7D"/>
<path d="M165.323 5.86589C171.932 5.90452 177.233 10.1771 178.551 16.5257C178.924 18.3804 178.894 20.2934 178.465 22.1359C178.036 23.9783 177.217 25.7074 176.063 27.2066C174.909 28.7058 173.448 29.9403 171.776 30.8269C170.105 31.7135 168.264 32.2316 166.375 32.3463C160.77 32.6408 156.198 30.6421 153.393 25.6743C148.377 16.8008 154.61 5.75003 165.323 5.86589ZM165.236 12.1903C161.374 12.1903 158.516 15.1401 158.52 19.1568C158.525 23.1735 161.417 26.1088 165.279 26.0895C169.142 26.0702 171.908 23.1349 171.908 19.1761C171.932 15.1401 169.113 12.1951 165.236 12.1903Z" fill="#7F7D7D"/>
<path d="M51.3532 31.7962H44.2901V0.0341797H67.7339V6.20891H51.4015C51.2228 8.78212 51.2856 11.1912 51.3532 13.7258H64.0889C64.1758 15.8597 64.1661 17.868 64.0889 20.0357H51.3532V31.7962Z" fill="#7F7D7D"/>
<path d="M190.321 31.8201H183.789V6.48389C185.864 6.33766 187.946 6.32637 190.022 6.45009C190.418 7.0246 190.128 7.59912 190.369 8.07707C190.785 8.21225 191.007 7.86465 191.277 7.68602C198.036 3.22997 208.198 7.15496 208.816 16.376C209.149 21.339 208.918 26.3068 208.966 31.2746C208.944 31.439 208.905 31.6007 208.85 31.7574H202.376C201.99 31.3277 202.149 30.7918 202.149 30.2801C202.149 26.8379 202.149 23.3956 202.149 19.9486C202.149 19.0796 202.115 18.2058 202.053 17.3368C201.782 13.5807 199.277 11.6158 195.554 12.2628C193.87 12.5793 192.323 13.405 191.123 14.6284C190.899 14.8646 190.729 15.1468 190.626 15.4554C190.522 15.7639 190.488 16.0913 190.524 16.4147C190.524 20.9914 190.524 25.5681 190.524 30.1449C190.593 30.7115 190.523 31.2864 190.321 31.8201Z" fill="#7F7D7D"/>
<path d="M149.01 12.1857C148.007 12.2705 147 12.2705 145.997 12.1857C143.54 12.147 141.652 13.2574 140.098 15.0485C139.667 15.5953 139.461 16.2862 139.523 16.9797C139.523 21.3794 139.523 25.7775 139.523 30.174C139.611 30.7187 139.539 31.2773 139.316 31.7817H132.803V6.43575C134.913 6.34885 136.974 6.35851 138.992 6.43575C139.547 7.08268 139.045 7.8841 139.538 8.55999C142.232 6.1123 145.399 5.51365 148.99 6.06402C149.111 8.1448 149.063 10.1387 149.01 12.1857Z" fill="#7F7D7D"/>
<path d="M19.5381 3.62597C19.519 4.57356 19.1262 5.47521 18.4453 6.13445C17.7643 6.79369 16.8504 7.15707 15.9027 7.14542C14.9552 7.13325 14.0514 6.74521 13.39 6.06662C12.7286 5.38803 12.3639 4.47449 12.376 3.52699C12.3882 2.57949 12.7762 1.67562 13.4548 1.01424C14.1334 0.352852 15.047 -0.0118691 15.9945 0.000294778C16.9438 0.0155449 17.8486 0.405027 18.5123 1.08401C19.1759 1.763 19.5445 2.67657 19.5381 3.62597Z" fill="#7F7D7D"/>
<path d="M7.09735 3.57761C7.10647 4.04742 7.02091 4.51425 6.84576 4.95028C6.67061 5.38631 6.40945 5.78261 6.07786 6.11555C5.74628 6.44849 5.35104 6.71126 4.91573 6.88819C4.48041 7.06511 4.01393 7.15256 3.54409 7.14534C2.62121 7.11138 1.74746 6.72088 1.10657 6.05597C0.465672 5.39105 0.107574 4.50353 0.107574 3.58003C0.107574 2.65653 0.465672 1.76899 1.10657 1.10408C1.74746 0.439162 2.62121 0.0486677 3.54409 0.0147019C4.01224 0.0121278 4.47624 0.102596 4.90914 0.280858C5.34203 0.459119 5.73519 0.721627 6.06578 1.05312C6.39637 1.3846 6.65781 1.77846 6.83489 2.21184C7.01198 2.64522 7.10119 3.10947 7.09735 3.57761Z" fill="#7F7D7D"/>
<path d="M31.902 3.5967C31.9033 4.06509 31.8116 4.52907 31.6322 4.96175C31.4529 5.39443 31.1894 5.78719 30.8571 6.11726C30.5247 6.44734 30.1302 6.70816 29.6963 6.8846C29.2624 7.06104 28.7978 7.14959 28.3295 7.14511C27.3845 7.14191 26.4795 6.76347 25.8136 6.09303C25.1477 5.42259 24.7754 4.51508 24.7786 3.57014C24.7818 2.6252 25.1603 1.72023 25.8307 1.05432C26.5011 0.388406 27.4087 0.0161066 28.3536 0.0193076C28.8222 0.0186478 29.2863 0.110935 29.719 0.290841C30.1517 0.470748 30.5444 0.734695 30.8744 1.0674C31.2045 1.40011 31.4652 1.79496 31.6416 2.22912C31.818 2.66327 31.9065 3.12811 31.902 3.5967Z" fill="#7F7D7D"/>
<path d="M15.9703 12.4609C16.4394 12.4532 16.9053 12.5393 17.3406 12.7142C17.7759 12.8892 18.1719 13.1493 18.5052 13.4795C18.8385 13.8096 19.1024 14.2031 19.2814 14.6367C19.4605 15.0704 19.551 15.5354 19.5477 16.0045C19.5325 16.95 19.1455 17.8515 18.4706 18.5138C17.7956 19.1761 16.887 19.546 15.9414 19.5433C15.0164 19.5369 14.1316 19.1647 13.4803 18.5079C12.829 17.8512 12.4641 16.9633 12.4654 16.0383C12.4483 15.5701 12.5267 15.1032 12.6958 14.6662C12.865 14.2293 13.1213 13.8313 13.4493 13.4966C13.7772 13.1619 14.1698 12.8975 14.6033 12.7194C15.0367 12.5414 15.5018 12.4534 15.9703 12.4609Z" fill="#7F7D7D"/>
<path d="M3.50015 31.9071C3.0315 31.9022 2.56853 31.804 2.13817 31.6184C1.70781 31.4329 1.31866 31.1635 0.993384 30.8261C0.668104 30.4887 0.413187 30.09 0.243473 29.6531C0.0737584 29.2162 -0.00736375 28.75 0.00482748 28.2815C0.045456 27.3586 0.437733 26.4863 1.10117 25.8435C1.7646 25.2007 2.64888 24.8362 3.57256 24.8248C4.04207 24.822 4.50734 24.9137 4.94067 25.0945C5.374 25.2752 5.76653 25.5413 6.09491 25.8769C6.42328 26.2125 6.68078 26.6107 6.85208 27.0478C7.02338 27.485 7.10498 27.9521 7.09202 28.4215C7.09979 28.8904 7.01137 29.356 6.83222 29.7894C6.65307 30.2229 6.387 30.615 6.05043 30.9416C5.71385 31.2683 5.3139 31.5224 4.87528 31.6885C4.43665 31.8546 3.96865 31.929 3.50015 31.9071Z" fill="#7F7D7D"/>
<path d="M3.62567 19.5429C2.67984 19.5457 1.77057 19.1778 1.0928 18.5181C0.415031 17.8584 0.0227261 16.9594 0 16.0138C0.0044188 15.091 0.36575 14.2057 1.00831 13.5434C1.65086 12.881 2.52479 12.493 3.44704 12.4606C3.91544 12.4329 4.38454 12.5013 4.82554 12.6616C5.26653 12.8219 5.6701 13.0706 6.01146 13.3925C6.35282 13.7144 6.62477 14.1028 6.81059 14.5336C6.99641 14.9645 7.09218 15.4287 7.09202 15.898C7.11146 16.3668 7.03642 16.8348 6.87136 17.2741C6.7063 17.7133 6.4546 18.1149 6.13122 18.455C5.80785 18.795 5.41939 19.0666 4.98896 19.2535C4.55853 19.4404 4.09491 19.5388 3.62567 19.5429Z" fill="#7F7D7D"/>
<path d="M28.4888 12.5765C29.3979 12.5906 30.2642 12.9653 30.897 13.6181C31.5299 14.2709 31.8775 15.1483 31.8634 16.0574C31.8493 16.9665 31.4747 17.8327 30.8219 18.4656C30.1691 19.0985 29.2917 19.4461 28.3826 19.432C27.484 19.3924 26.6324 19.0192 25.9941 18.3854C25.3558 17.7516 24.9767 16.9026 24.9307 16.0043C24.9572 15.081 25.3447 14.2048 26.0099 13.564C26.6752 12.9231 27.5651 12.5686 28.4888 12.5765Z" fill="#D4D6D4"/>
<path d="M28.3777 25.066C28.82 25.0549 29.2601 25.133 29.6716 25.2956C30.0831 25.4582 30.4576 25.702 30.773 26.0123C31.0883 26.3227 31.338 26.6934 31.507 27.1023C31.6761 27.5111 31.7612 27.9499 31.7572 28.3923C31.7572 29.2886 31.4011 30.1482 30.7673 30.7819C30.1336 31.4157 29.274 31.7718 28.3777 31.7718C27.4791 31.7633 26.6189 31.4062 25.9785 30.7757C25.3381 30.1452 24.9676 29.2907 24.9452 28.3923C24.9402 27.9451 25.0263 27.5015 25.1984 27.0886C25.3706 26.6758 25.625 26.3023 25.9462 25.9911C26.2674 25.6798 26.6487 25.4372 27.0667 25.2782C27.4848 25.1191 27.9308 25.0469 28.3777 25.066Z" fill="#D4D6D4"/>
<path d="M15.9703 25.0663C18.0125 25.0663 19.2967 26.3939 19.2774 28.4457C19.2825 28.8809 19.201 29.3127 19.0377 29.7161C18.8744 30.1196 18.6326 30.4865 18.3262 30.7956C18.0198 31.1046 17.655 31.3497 17.2531 31.5165C16.8511 31.6833 16.42 31.7686 15.9848 31.7673C15.5295 31.7695 15.0783 31.6797 14.6586 31.5032C14.2388 31.3268 13.859 31.0673 13.542 30.7404C13.225 30.4135 12.9774 30.0259 12.8139 29.6009C12.6505 29.1758 12.5746 28.7222 12.5909 28.2671C12.6009 27.8345 12.6964 27.4082 12.872 27.0127C13.0476 26.6172 13.2997 26.2603 13.6139 25.9628C13.928 25.6652 14.298 25.4328 14.7025 25.2789C15.1069 25.1251 15.5378 25.0528 15.9703 25.0663Z" fill="#D4D6D4"/>
</svg>
