<svg width="151" height="69" viewBox="0 0 151 69" fill="none" xmlns="http://www.w3.org/2000/svg">
<path d="M0.203618 25.014C0.493768 25.6503 0.773731 26.2866 1.06388 26.9228C3.93484 33.2196 7.31992 39.2109 11.8401 44.4896C14.8944 48.0529 18.3507 51.2191 22.708 53.1839C26.7549 55.0114 30.934 55.4491 35.1387 53.7999C39.1295 52.2371 41.3692 49.1829 42.1277 45.0139C42.8149 41.2573 42.1888 37.6024 41.1096 34.0086C39.456 28.7312 38.379 23.2901 37.8976 17.7806C37.5413 12.9244 37.6787 8.08348 39.4502 3.44617C39.8639 2.19691 40.4946 1.03033 41.3132 0L41.5576 0.025461C41.5576 0.478502 41.5576 0.926454 41.5576 1.37949C41.6288 4.47442 42.0666 7.48791 43.3494 10.3487C45.0241 14.0188 47.7525 16.4571 51.723 17.3988C54.9146 18.1318 57.5107 16.9763 59.2414 14.1919C59.41 13.8835 59.6555 13.6239 59.9541 13.4385C59.7403 14.9147 59.557 16.396 59.3127 17.8671C58.3564 23.966 57.0631 30.0073 55.4389 35.9633C53.4028 43.1763 50.9747 50.2163 47.0857 56.6861C45.3763 59.6484 43.1805 62.3019 40.5904 64.5354C34.3751 69.7276 26.9432 69.244 21.0028 65.0852C16.9305 62.2498 14.0086 58.4219 11.4482 54.2682C8.11368 48.7423 5.42531 42.8514 3.43598 36.7116C2.21939 33.0923 1.21659 29.4018 0.127259 25.7419C0.0721345 25.5239 0.0296442 25.303 0 25.0801L0.203618 25.014Z" fill="#7F7D7D"/>
<path d="M133.454 21.7611C134.599 23.5987 150.644 64.8356 151 66.9329C149.473 66.9736 147.946 67.2179 146.465 66.77C145.299 66.4238 144.78 65.4617 144.377 64.408C143.268 61.476 142.151 58.544 141.028 55.6119C137.93 47.4877 134.83 39.3635 131.728 31.2393C131.601 30.8983 131.433 30.5725 131.285 30.2213L131.031 30.1806L126.388 41.8884C126.928 41.9291 127.254 41.98 127.579 41.98C128.877 41.98 130.17 41.98 131.468 41.98C133.123 42.0105 134.304 42.8606 134.68 44.4539C134.823 45.4007 134.893 46.3571 134.889 47.3147H124.26C123.553 49.0759 122.881 50.715 122.224 52.3592C121.374 54.5328 120.56 55.0978 118.218 55.1029H115.474C115.537 54.786 115.618 54.4732 115.719 54.1663C118.552 47.1111 121.395 40.0558 124.245 33.0006C125.263 30.4554 126.378 27.9103 127.299 25.304C128.419 22.3822 130.15 21.3844 133.454 21.7611Z" fill="#7F7D7D"/>
<path d="M79.4298 55.2505C75.0979 44.0874 70.5217 33.0668 65.6044 22.1938C65.5809 22.0557 65.5809 21.9146 65.6044 21.7764C67.0752 21.7108 68.5484 21.7244 70.0177 21.8171C71.1936 21.9393 71.8757 22.8759 72.3185 23.9347L75.1081 30.6336L81.3539 45.5483C81.5117 45.9097 81.695 46.261 81.9546 46.8107C82.1735 46.3017 82.3211 46.0268 82.4636 45.7265C85.472 38.5542 88.4957 31.3921 91.4684 24.2045C92.2065 22.428 93.4028 21.5677 95.3371 21.6899C96.3093 21.751 97.2918 21.6899 98.3913 21.6899C98.3237 21.9943 98.2404 22.295 98.1419 22.5909C93.9576 32.5204 89.7683 42.45 85.5738 52.3796C85.2822 53.1518 84.7809 53.8273 84.1261 54.3301C83.4714 54.8328 82.6894 55.1428 81.868 55.2251C81.0565 55.2828 80.2423 55.2913 79.4298 55.2505Z" fill="#7F7D7D"/>
<path d="M1.20642 23.395C1.60856 23.7412 2.01069 24.0924 2.42301 24.4131C7.23848 28.3428 12.6444 31.3156 18.2031 34.0338C20.9875 35.3981 23.8432 36.6299 26.6632 37.9178C29.1217 38.9572 31.3448 40.4826 33.1992 42.4024C34.6347 43.96 35.775 45.6805 35.8004 47.9101C35.8479 48.9803 35.509 50.0319 34.8455 50.873C34.1819 51.7141 33.2381 52.2885 32.1863 52.4914C29.5342 53.1023 27.0399 52.4914 24.6322 51.4072C21.5118 49.9972 18.8903 47.8745 16.4876 45.4922C12.1099 41.1807 8.55688 36.2176 5.34996 31.0102C4.00611 28.8315 2.80478 26.5816 1.51183 24.3622C1.35403 24.0822 1.23696 23.7768 1.09952 23.4815L1.20642 23.395Z" fill="#7F7D7D"/>
<path d="M108.577 21.466C108.618 21.9496 108.664 22.3161 108.664 22.6775C108.664 32.2372 108.664 41.7934 108.664 51.3463C108.664 53.7591 107.259 55.159 104.851 55.1793H103.222C103.161 54.7931 103.12 54.4041 103.1 54.0136C103.1 44.2538 103.1 34.4939 103.1 24.734C103.1 22.5502 104.235 21.4507 106.388 21.466H108.577Z" fill="#7F7D7D"/>
<path d="M24.1282 17.3326C24.2046 17.4242 24.2351 17.4497 24.2402 17.4802C24.5965 19.0684 25.5077 20.1272 27.1672 20.3359C28.8266 20.5446 30.0788 19.6335 30.8017 18.2082C31.3201 17.0968 31.7342 15.9397 32.0386 14.7518C33.0359 11.2759 34.3655 7.90413 36.0091 4.68311C36.1894 4.29933 36.4417 3.95372 36.7523 3.66504C36.3654 5.07506 35.9378 6.47491 35.5968 7.90021C34.5125 12.4204 33.9373 16.9865 35.1336 21.5576C35.6986 23.721 36.6607 25.7775 37.4395 27.8951C39.1142 32.5375 40.3715 37.2664 40.3003 42.2549C40.3039 44.2987 39.8113 46.3128 38.8648 48.1241C38.8205 47.8733 38.7916 47.62 38.7782 47.3657C38.9768 39.2211 35.7699 32.6037 29.7734 27.2384C28.5568 26.1491 27.1875 25.2277 25.8691 24.2606C24.8511 23.5276 23.8839 22.8098 23.2476 21.7154C22.7859 21.0166 22.6194 20.1636 22.7844 19.3425C22.9493 18.5213 23.4325 17.7988 24.1282 17.3326Z" fill="#7F7D7D"/>
<path d="M34.6296 40.6667C34.0493 40.234 33.4996 39.8013 32.9345 39.3941C28.7972 36.4282 24.3113 33.9818 19.5775 32.1098C17.9061 31.4967 16.383 30.5375 15.1081 29.2948C14.2702 28.4801 13.6851 27.4408 13.4232 26.3017C13.2279 25.5496 13.3266 24.7514 13.6993 24.0695C14.0719 23.3876 14.6904 22.8734 15.4288 22.6316C16.774 22.1973 18.2286 22.2459 19.5418 22.769C22.0056 23.5987 23.9603 25.1971 25.7164 27.0347C29.3764 30.8678 32.1354 35.3371 34.5634 40.0202C34.6278 40.1399 34.679 40.2662 34.7162 40.3969C34.7263 40.4478 34.6805 40.5191 34.6296 40.6667Z" fill="#7F7D7D"/>
<path d="M50.7202 6.13385C51.7921 6.12642 52.8231 6.54513 53.5863 7.29785C54.3496 8.05057 54.7825 9.07564 54.7899 10.1476C54.7973 11.2195 54.3786 12.2505 53.6259 13.0137C52.8732 13.7769 51.8481 14.2099 50.7762 14.2173C50.2463 14.2256 49.7201 14.1272 49.229 13.9279C48.738 13.7286 48.292 13.4325 47.9178 13.0573C47.5435 12.6821 47.2485 12.2354 47.0505 11.7438C46.8525 11.2522 46.7554 10.7258 46.765 10.1959C46.7442 9.66596 46.8315 9.13732 47.0216 8.64216C47.2116 8.147 47.5004 7.69567 47.8704 7.31567C48.2404 6.93567 48.6839 6.63493 49.1738 6.43175C49.6637 6.22858 50.1898 6.12723 50.7202 6.13385Z" fill="#7F7D7D"/>
<path d="M30.5319 14.197C30.536 14.8847 30.2681 15.5462 29.7866 16.0372C29.305 16.5283 28.6489 16.8091 27.9613 16.8185C27.2787 16.7886 26.6339 16.4963 26.1615 16.0027C25.6891 15.5091 25.4254 14.8522 25.4254 14.169C25.4254 13.4857 25.6891 12.8288 26.1615 12.3352C26.6339 11.8416 27.2787 11.5494 27.9613 11.5195C28.3091 11.5155 28.654 11.5829 28.9748 11.7174C29.2955 11.852 29.5853 12.0509 29.8262 12.3018C30.067 12.5527 30.2539 12.8503 30.3753 13.1763C30.4967 13.5022 30.55 13.8496 30.5319 14.197Z" fill="#7F7D7D"/>
<path d="M124.001 67.1416C123.634 65.4058 123.889 63.6242 123.522 61.7611L121.145 65.0189L118.676 61.6389C118.621 61.8704 118.581 62.105 118.554 62.3414C118.554 63.67 118.554 64.9986 118.554 66.3271C118.517 66.6919 118.458 67.054 118.376 67.4114C117.867 66.602 117.77 61.8629 118.091 60.5954C118.6 60.3867 118.809 60.8092 119.038 61.1044C119.71 62.0411 120.371 62.9828 121.074 63.9805C122.311 62.9319 122.738 61.3335 124.011 60.4172C124.403 61.2062 124.484 66.1388 124.001 67.1416Z" fill="#7F7D7D"/>
<path d="M104.342 67.1621C104.042 66.5868 103.95 61.9648 104.22 60.5802C105.287 60.5319 106.356 60.5421 107.422 60.6108C107.804 60.6568 108.159 60.8342 108.425 61.1127C108.692 61.3912 108.853 61.7536 108.882 62.1379C108.956 62.5086 108.922 62.8928 108.784 63.2447C108.646 63.5966 108.41 63.9014 108.104 64.1231C107.925 64.2707 107.717 64.3878 107.422 64.5863L108.949 67.0348L108.765 67.213C108.579 67.1374 108.407 67.0307 108.256 66.8974C107.951 66.5298 107.683 66.1324 107.457 65.7113C106.892 64.5507 105.991 64.3115 104.724 64.6932C104.673 65.4975 104.612 66.3425 104.556 67.1875L104.342 67.1621ZM104.734 63.9246C105.553 63.9686 106.374 63.9686 107.192 63.9246C107.516 63.8506 107.805 63.6665 108.008 63.4037C108.211 63.141 108.317 62.8158 108.308 62.4837C108.298 62.1515 108.173 61.833 107.955 61.5825C107.737 61.3319 107.439 61.1648 107.111 61.1096C106.347 61.0486 105.584 61.1096 104.734 61.1096V63.9246Z" fill="#7F7D7D"/>
<path d="M89.6512 67.0806C90.5267 64.8816 91.4039 62.6757 92.2829 60.4631H92.5883C92.7751 60.6663 92.9359 60.892 93.0668 61.1351C93.8456 63.1203 94.7517 65.0597 95.388 67.0959L95.0418 67.2537C94.716 66.5868 94.3852 65.92 94.0238 65.2175H91.051L90.0635 67.2537L89.6512 67.0806ZM92.7054 61.5932H92.4152C92.0589 62.5145 91.7076 63.441 91.3004 64.5049H93.8456C93.4333 63.4512 93.0566 62.5247 92.7003 61.5932H92.7054Z" fill="#7F7D7D"/>
<path d="M133.774 67.2384C133.54 66.2916 135.648 61.0537 136.274 60.5396C136.849 61.0486 138.992 66.2814 138.992 67.269C138.152 66.8159 138.315 65.7928 137.658 65.2328H134.792C134.436 65.9099 134.105 66.5767 133.774 67.2384ZM136.37 61.4762H136.141C135.79 62.4382 135.434 63.4003 135.042 64.4744H137.531L136.37 61.4762Z" fill="#7F7D7D"/>
<path d="M78.3048 63.4307C79.277 63.787 80.3053 63.3238 81.2113 63.899C80.3154 64.4081 79.277 64.011 78.1571 64.347V67.1721L77.8874 67.2179C77.7906 67.0754 77.6023 66.938 77.6023 66.7954C77.6023 64.7593 77.6023 62.7232 77.6023 60.7176C78.9264 60.3917 80.3098 60.3917 81.6339 60.7176C81.1248 61.2266 80.5496 60.9823 80.0355 61.023C79.5214 61.0637 78.9512 61.023 78.3099 61.023L78.3048 63.4307Z" fill="#7F7D7D"/>
</svg>
