<svg width="209" height="40" viewBox="0 0 209 40" fill="none" xmlns="http://www.w3.org/2000/svg">
<path d="M1.24589 38.9945C0.960116 38.5825 1.01441 38.1117 1.01441 37.6492C1.01441 25.5526 1.01441 13.4551 1.01441 1.35665C1.01441 0.953056 0.900105 0.51583 1.22017 0.072998H44.7085C45.0457 0.431748 44.94 0.818527 44.94 1.17447C44.94 13.4112 44.94 25.6498 44.94 37.8902C44.94 38.2602 44.9171 38.6302 44.9057 39.0113L1.24589 38.9945ZM36.8727 8.62694C36.9556 5.16276 33.7293 3.0551 31.0545 2.78044C27.1271 2.38139 23.1665 2.41429 19.2465 2.87853C15.5029 3.31296 12.0422 4.5882 9.24457 7.1583C5.35239 10.7234 4.38649 15.2862 4.70941 20.2471C5.11234 26.2813 7.77857 30.9423 13.694 33.3162C19.1236 35.4883 24.8076 35.9508 30.4601 34.4709C38.1101 32.4642 42.451 26.2449 41.0507 18.117C35.181 18.117 29.2913 18.0077 23.413 18.1674C20.7668 18.2403 19.0407 20.7179 19.3551 23.5347H35.0724C35.23 24.2209 35.2163 24.9344 35.0324 25.6143C33.9207 30.4602 29.6228 33.6301 24.3846 33.4619C19.0122 33.2966 15.06 30.0342 14.2112 25.0678C13.2853 19.6389 16.5345 15.8748 22.127 15.8748C24.6475 15.8748 27.168 15.8944 29.6856 15.8748C31.686 15.8524 33.5578 15.4123 35.1381 14.1567C36.204 13.3159 36.9185 12.2649 36.9013 10.9056C36.7856 10.8058 36.6484 10.7331 36.4999 10.6928C36.3514 10.6525 36.1955 10.6457 36.044 10.6729C30.8116 10.6729 25.582 10.6729 20.3524 10.6729C19.448 10.6734 18.5479 10.796 17.6776 11.0373C14.0283 12.0575 11.6765 14.437 10.2133 17.8844C10.0704 17.1472 10.3762 16.6035 10.5677 16.057C12.2309 11.3232 15.8687 8.78669 20.9611 8.78669C25.7239 8.78669 30.4782 8.78669 35.2239 8.78669C35.7382 8.77828 36.2669 8.86797 36.8727 8.62694Z" fill="#7F7D7D"/>
<path d="M58.0338 38.9944C57.2251 38.4198 56.8907 37.7108 56.8907 36.6709C56.9336 25.1265 56.9165 13.5848 56.9193 2.04039C56.9193 0.3083 57.2051 0 58.9854 0C72.6757 0 86.3678 0 100.062 0H101.068L97.8815 6.20525H65.8267V32.5033H74.3084L84.1388 13.7054H93.6921C93.9236 14.2239 93.5121 14.5798 93.3177 14.9498C89.376 22.4929 85.4162 30.0294 81.4383 37.5594C81.1811 38.0527 80.8668 38.5179 80.581 38.9944H58.0338Z" fill="#7F7D7D"/>
<path d="M129.093 38.9945C127.499 38.3891 127.067 37.2344 127.093 35.6144C127.17 29.5913 127.119 23.5626 127.124 17.5424C127.124 14.5911 128.113 13.6354 131.125 13.6326C136.078 13.6326 141.02 13.6326 145.951 13.6326C149.557 13.6326 151.443 16.4129 149.883 19.594C148.168 23.0946 146.251 26.5083 144.399 30.0089H138.112L143.356 19.9191H133.468V32.5314H149.083V38.9777L129.093 38.9945Z" fill="#7F7D7D"/>
<path d="M153.066 38.9944V13.9128C153.484 13.5204 153.924 13.6493 154.344 13.6465C160.996 13.6465 167.649 13.6465 174.302 13.6465C174.966 13.6314 175.631 13.6888 176.282 13.8175C178.98 14.4257 179.954 16.155 179.009 18.7082C178.3 20.6281 177.202 22.3742 176.259 24.1876C173.688 29.1372 171.073 34.0644 168.475 39H162.474C162.245 38.4927 162.583 38.1087 162.791 37.7108C164.923 33.6319 167.058 29.5557 169.195 25.4824C170.133 23.6887 171.05 21.8837 172.053 19.9358H159.445C159.202 20.5244 159.293 21.0373 159.293 21.5418C159.293 26.8203 159.293 32.0997 159.293 37.38C159.293 37.9406 159.41 38.5011 159.068 39L153.066 38.9944Z" fill="#7F7D7D"/>
<path d="M179.892 38.9945C179.717 38.6189 179.32 38.7366 179.034 38.6245C177.783 38.1312 177.305 37.2876 177.58 35.9815C177.641 35.6642 177.742 35.3554 177.88 35.0622C179.986 30.8161 182.226 26.6344 184.541 22.4219H190.716C188.979 25.816 187.287 29.1289 185.524 32.5566H194.414C194.414 28.4198 194.443 24.3418 194.386 20.0788C189.793 19.5519 185.527 20.02 181.077 19.7593C182.158 17.6881 183.181 15.7262 184.187 13.8035C184.841 13.5232 185.467 13.641 186.07 13.6382C189.253 13.6382 192.44 13.6101 195.623 13.6382C198.687 13.6662 200.375 15.3198 200.384 18.3215C200.407 24.8098 200.384 31.2982 200.384 37.7865C200.384 38.2041 200.41 38.6273 200.153 38.9917L179.892 38.9945Z" fill="#7F7D7D"/>
<path d="M92.5662 38.9944C89.5799 37.8173 89.297 37.1054 90.8058 34.199C92.6891 30.5554 94.6237 26.9595 96.5212 23.344C96.6955 23.0161 96.807 22.6573 97.2185 22.3967H103.22L97.9986 32.5145H106.652C106.969 32.1922 106.82 31.7522 106.823 31.357C106.835 28.2067 106.835 25.0565 106.823 21.9062C106.823 20.1657 106.483 19.8378 104.637 19.8322C101.548 19.8322 98.4616 19.8322 95.3724 19.8322H93.5949C94.4923 17.6348 95.7011 15.7738 96.6441 13.8259C97.0185 13.5821 97.4071 13.6381 97.7872 13.6381C101.216 13.6381 104.628 13.6157 108.049 13.6381C111.093 13.6606 112.784 15.188 112.807 18.1505C112.862 25.0985 112.807 32.0465 112.807 38.9944H92.5662Z" fill="#7F7D7D"/>
<path d="M116.822 38.9947C116.811 28.1463 116.798 17.2978 116.785 6.44939C116.785 4.36976 116.785 2.29013 116.785 0.104004H122.923C123.209 0.384277 123.132 0.712196 123.132 1.0233C123.132 13.4506 123.132 25.8761 123.132 38.2996C123.132 38.5295 123.109 38.7621 123.098 38.9919L116.822 38.9947Z" fill="#7F7D7D"/>
<path d="M209 3.92942C208.818 4.20101 208.719 4.51805 208.714 4.84311C208.587 5.82068 208.095 6.71742 207.334 7.36062C206.572 8.00383 205.595 8.34802 204.591 8.32691C202.547 8.32691 200.753 6.85827 200.475 4.96363C200.153 2.79431 201.296 0.927692 203.35 0.274656C204.305 -0.0338473 205.34 -0.000694633 206.271 0.368229C207.203 0.737152 207.971 1.41798 208.44 2.28982C208.634 2.64577 208.569 3.13064 208.994 3.36607L209 3.92942ZM208.091 4.12281C208.091 2.4748 206.52 0.952918 204.791 0.919285C202.959 0.88285 201.293 2.50563 201.361 4.28256C201.413 5.91936 202.999 7.46927 204.668 7.51411C206.417 7.54774 208.1 5.89413 208.091 4.12281Z" fill="#7F7D7D"/>
<path d="M30.8801 5.76527C30.756 5.93933 30.5751 6.06668 30.3673 6.1263C30.1595 6.18592 29.9371 6.17424 29.737 6.0932C29.5797 5.98495 29.4641 5.82802 29.4086 5.64759C29.3532 5.46716 29.3611 5.27369 29.4312 5.09823C29.4542 5.00755 29.4953 4.92224 29.5521 4.84719C29.6088 4.77213 29.6802 4.70882 29.762 4.6609C29.8438 4.61298 29.9344 4.58138 30.0287 4.56793C30.123 4.55448 30.2191 4.55944 30.3114 4.58253C30.9972 4.74508 30.9458 5.26359 30.8801 5.76527Z" fill="#7F7D7D"/>
<path d="M205.556 4.57146L206.562 6.21947C206.41 6.33166 206.229 6.4 206.039 6.41683C205.849 6.43366 205.658 6.39832 205.488 6.31476C204.968 5.76823 204.956 4.75644 204.008 4.7144C203.167 5.06194 204.213 6.3596 202.819 6.39604V2.11347C203.745 1.94782 204.693 1.9374 205.622 2.08264C205.81 2.19208 205.972 2.33852 206.099 2.51268C206.226 2.68683 206.315 2.88492 206.359 3.09442C206.345 3.96327 205.822 4.16226 205.556 4.57146ZM205.311 3.2738C204.959 2.61796 204.453 2.60394 203.856 2.85339C203.713 3.23736 203.713 3.54286 203.999 3.82313C204.511 3.91843 204.996 3.90722 205.311 3.26259V3.2738Z" fill="#7F7D7D"/>
</svg>
