<svg width="46" height="46" viewBox="0 0 46 46" fill="none" xmlns="http://www.w3.org/2000/svg">
<path d="M29.0289 29.0291C24.5072 33.5508 19.7149 36.9051 15.6415 38.6847C13.603 39.5753 11.7757 40.0578 10.2707 40.1152C8.76669 40.1726 7.65038 39.8059 6.92214 39.0777C6.19389 38.3494 5.82723 37.2331 5.88458 35.7291C5.94197 34.2241 6.42448 32.3968 7.31511 30.3582C9.09472 26.2849 12.449 21.4926 16.9707 16.9709C21.4924 12.4491 26.2847 9.09491 30.358 7.31531C32.3966 6.42467 34.2239 5.94216 35.7289 5.88477C37.2329 5.82742 38.3492 6.19408 39.0775 6.92233C39.8057 7.65057 40.1724 8.76688 40.115 10.2709C40.0576 11.7759 39.5751 13.6032 38.6845 15.6417C36.9049 19.715 33.5506 24.5074 29.0289 29.0291Z" stroke="#EBA761" stroke-width="1.26318"/>
<path d="M29.0291 16.9708C33.5508 21.4926 36.9051 26.2849 38.6847 30.3582C39.5753 32.3968 40.0578 34.2241 40.1152 35.7291C40.1726 37.2331 39.8059 38.3494 39.0777 39.0776C38.3494 39.8059 37.2331 40.1725 35.7291 40.1152C34.2241 40.0578 32.3968 39.5753 30.3582 38.6846C26.2849 36.905 21.4926 33.5508 16.9709 29.0291C12.4491 24.5074 9.09491 19.715 7.31531 15.6417C6.42467 13.6031 5.94216 11.7759 5.88477 10.2708C5.82742 8.76685 6.19408 7.65054 6.92233 6.92229C7.65057 6.19405 8.76688 5.82739 10.2709 5.88474C11.7759 5.94213 13.6032 6.42464 15.6417 7.31527C19.715 9.09487 24.5074 12.4491 29.0291 16.9708Z" stroke="#EBA761" stroke-width="1.26318"/>
<circle cx="23.3157" cy="23" r="2.52636" fill="#EBA761"/>
</svg>
